<svg width="20" height="20" viewBox="0 0 20 20" fill="none" xmlns="http://www.w3.org/2000/svg">
<path d="M12.5 9.16669H18.3333V10.8334H12.5V9.16669ZM13.3333 12.5H18.3333V14.1667H13.3333V12.5ZM11.6666 5.83335H18.3333V7.50002H11.6666V5.83335ZM3.33329 15.8334H11.6666V15C11.6666 12.7025 9.79746 10.8334 7.49996 10.8334H5.83329C3.53579 10.8334 1.66663 12.7025 1.66663 15V15.8334H3.33329ZM6.66663 10C8.32913 10 9.58329 8.74585 9.58329 7.08335C9.58329 5.42085 8.32913 4.16669 6.66663 4.16669C5.00413 4.16669 3.74996 5.42085 3.74996 7.08335C3.74996 8.74585 5.00413 10 6.66663 10Z" fill="#6E6B7B"/>
</svg>
