<svg width="13" height="12" viewBox="0 0 13 12" fill="none" xmlns="http://www.w3.org/2000/svg">
<path d="M10.6756 2.84948H1.14382V2.4682L9.5318 1.79717V2.4682H10.6756V1.32439C10.6756 0.48559 9.99619 -0.103094 9.16654 0.0151004L1.50984 1.10859C0.679426 1.22754 0 2.01068 0 2.84948V10.4749C0 10.8794 0.160678 11.2673 0.446688 11.5533C0.732697 11.8393 1.12061 12 1.52509 12H10.6756C11.0801 12 11.468 11.8393 11.754 11.5533C12.04 11.2673 12.2007 10.8794 12.2007 10.4749V4.37456C12.2007 3.97008 12.04 3.58217 11.754 3.29616C11.468 3.01015 11.0801 2.84948 10.6756 2.84948ZM9.5318 8.19186C9.38154 8.19181 9.23276 8.16216 9.09396 8.10461C8.95516 8.04707 8.82905 7.96274 8.72284 7.85646C8.61662 7.75018 8.53239 7.62401 8.47493 7.48517C8.41748 7.34633 8.38793 7.19754 8.38798 7.04728C8.38803 6.89702 8.41768 6.74824 8.47522 6.60944C8.53277 6.47064 8.61709 6.34453 8.72338 6.23832C8.82966 6.13211 8.95582 6.04787 9.09466 5.99041C9.2335 5.93296 9.3823 5.90341 9.53256 5.90346C9.83602 5.90356 10.127 6.02421 10.3415 6.23886C10.556 6.45351 10.6765 6.74458 10.6764 7.04804C10.6763 7.3515 10.5556 7.64249 10.341 7.857C10.1263 8.07151 9.83526 8.19196 9.5318 8.19186Z" fill="#6E6B7B"/>
</svg>
