<svg width="16" height="18" viewBox="0 0 16 18" fill="none" xmlns="http://www.w3.org/2000/svg">
<path fill-rule="evenodd" clip-rule="evenodd" d="M11.3333 3.99935C11.3333 5.8403 9.84095 7.33268 8 7.33268C6.15905 7.33268 4.66667 5.8403 4.66667 3.99935C4.66667 2.1584 6.15905 0.666016 8 0.666016C9.84095 0.666016 11.3333 2.1584 11.3333 3.99935ZM9.66667 3.99935C9.66667 4.91982 8.92047 5.66602 8 5.66602C7.07952 5.66602 6.33333 4.91982 6.33333 3.99935C6.33333 3.07887 7.07952 2.33268 8 2.33268C8.92047 2.33268 9.66667 3.07887 9.66667 3.99935ZM11.3333 7.33283C10.7113 7.33283 10.2379 7.72917 9.75277 8.13529C9.24317 8.56193 8.72069 8.99935 7.99945 8.99935C7.27235 8.99935 6.7289 8.55151 6.20542 8.12012C5.71903 7.7193 5.24988 7.33268 4.66667 7.33268C1.32331 7.33268 0.5 11.4272 0.5 14.006C0.5 15.8693 1.9222 17.3327 3.83333 17.3327H12.1667C14.0779 17.3327 15.5 15.8691 15.5 14.0059C15.4991 11.4295 14.6704 7.33283 11.3333 7.33283ZM11.3333 8.99935C10.7532 8.99935 10.3526 9.35833 9.92317 9.74309C9.42735 10.1874 8.89316 10.666 8 10.666C7.10684 10.666 6.57266 10.1874 6.07683 9.74309C5.64743 9.35833 5.24679 8.99935 4.66666 8.99935C2.58333 8.99935 2.16667 12.2212 2.16667 13.7255C2.16667 14.8124 3.27282 15.666 4.75926 15.666H11.2407C12.7272 15.666 13.8333 14.8123 13.8333 13.7254C13.8326 12.2225 13.4167 8.99935 11.3333 8.99935Z" fill="#8D869D"/>
</svg>
