<svg width="20" height="20" viewBox="0 0 20 20" fill="none" xmlns="http://www.w3.org/2000/svg">
<path d="M11.966 11.8577C11.4089 12.3068 10.7149 12.5518 9.99935 12.5518C9.28377 12.5518 8.58975 12.3068 8.03269 11.8577C7.8625 11.7162 7.6431 11.6482 7.42275 11.6685C7.20239 11.6888 6.99913 11.7958 6.85769 11.966C6.71624 12.1362 6.64819 12.3556 6.6685 12.576C6.68882 12.7963 6.79584 12.9996 6.96602 13.141C7.81713 13.8515 8.89065 14.2407 9.99935 14.2407C11.1081 14.2407 12.1816 13.8515 13.0327 13.141C13.2029 12.9996 13.3099 12.7963 13.3302 12.576C13.3505 12.3556 13.2825 12.1362 13.141 11.966C13.071 11.8818 12.985 11.8121 12.8881 11.7611C12.7911 11.71 12.6851 11.6786 12.576 11.6685C12.3556 11.6482 12.1362 11.7162 11.966 11.8577ZM7.49935 9.16602C7.66417 9.16602 7.82529 9.11714 7.96233 9.02557C8.09937 8.93401 8.20618 8.80386 8.26925 8.65159C8.33232 8.49931 8.34883 8.33176 8.31667 8.17011C8.28452 8.00846 8.20515 7.85997 8.08861 7.74343C7.97206 7.62688 7.82358 7.54752 7.66193 7.51536C7.50028 7.48321 7.33272 7.49971 7.18045 7.56278C7.02818 7.62586 6.89803 7.73267 6.80646 7.86971C6.71489 8.00675 6.66602 8.16786 6.66602 8.33268C6.66602 8.5537 6.75382 8.76566 6.9101 8.92194C7.06638 9.07822 7.27834 9.16602 7.49935 9.16602ZM12.4994 7.49935C12.3345 7.49935 12.1734 7.54822 12.0364 7.63979C11.8993 7.73136 11.7925 7.86151 11.7295 8.01378C11.6664 8.16605 11.6499 8.33361 11.682 8.49526C11.7142 8.65691 11.7936 8.80539 11.9101 8.92194C12.0266 9.03848 12.1751 9.11785 12.3368 9.15C12.4984 9.18216 12.666 9.16566 12.8183 9.10258C12.9705 9.03951 13.1007 8.9327 13.1922 8.79566C13.2838 8.65862 13.3327 8.4975 13.3327 8.33268C13.3327 8.11167 13.2449 7.89971 13.0886 7.74343C12.9323 7.58715 12.7204 7.49935 12.4994 7.49935ZM9.99935 1.66602C8.35117 1.66602 6.74001 2.15476 5.3696 3.07044C3.99919 3.98611 2.93109 5.2876 2.30036 6.81032C1.66963 8.33304 1.5046 10.0086 1.82614 11.6251C2.14769 13.2416 2.94136 14.7265 4.1068 15.8919C5.27223 17.0573 6.75709 17.851 8.3736 18.1726C9.99011 18.4941 11.6657 18.3291 13.1884 17.6983C14.7111 17.0676 16.0126 15.9995 16.9283 14.6291C17.8439 13.2587 18.3327 11.6475 18.3327 9.99935C18.3327 8.905 18.1171 7.82137 17.6983 6.81032C17.2796 5.79927 16.6657 4.88061 15.8919 4.10679C15.1181 3.33297 14.1994 2.71914 13.1884 2.30035C12.1773 1.88156 11.0937 1.66602 9.99935 1.66602ZM9.99935 16.666C8.68081 16.666 7.39188 16.275 6.29555 15.5425C5.19922 14.8099 4.34474 13.7687 3.84016 12.5506C3.33557 11.3324 3.20355 9.99195 3.46078 8.69875C3.71802 7.40554 4.35296 6.21765 5.28531 5.2853C6.21766 4.35295 7.40554 3.71802 8.69875 3.46078C9.99196 3.20355 11.3324 3.33557 12.5506 3.84015C13.7687 4.34474 14.8099 5.19922 15.5425 6.29555C16.275 7.39188 16.666 8.68081 16.666 9.99935C16.666 11.7675 15.9636 13.4632 14.7134 14.7134C13.4632 15.9636 11.7675 16.666 9.99935 16.666Z" fill="#6FDB2D"/>
</svg>
