<svg width="16" height="16" viewBox="0 0 16 16" fill="none" xmlns="http://www.w3.org/2000/svg">
<path d="M7.00075 1C7.00075 0.734784 7.10611 0.48043 7.29364 0.292893C7.48118 0.105357 7.73553 0 8.00075 0C8.26597 0 8.52032 0.105357 8.70786 0.292893C8.89539 0.48043 9.00075 0.734784 9.00075 1V8.158L12.2437 4.915L13.6577 6.329L8.00075 11.986L2.34375 6.33L3.75775 4.916L7.00075 8.158V1Z" fill="#918E96"/>
<path d="M0 10H2V14H14V10H16V14C16 14.5304 15.7893 15.0391 15.4142 15.4142C15.0391 15.7893 14.5304 16 14 16H2C1.46957 16 0.960859 15.7893 0.585786 15.4142C0.210714 15.0391 0 14.5304 0 14V10Z" fill="#918E96"/>
</svg>
