<svg width="16" height="16" viewBox="0 0 16 16" fill="none" xmlns="http://www.w3.org/2000/svg">
<path d="M8.00055 13.4396C4.99255 13.4396 2.56055 11.0076 2.56055 7.99957C2.56055 4.99157 4.99255 2.55957 8.00055 2.55957C11.0085 2.55957 13.4405 4.99157 13.4405 7.99957C13.4405 11.0076 11.0085 13.4396 8.00055 13.4396ZM8.00055 3.19957C5.34455 3.19957 3.20055 5.34357 3.20055 7.99957C3.20055 10.6556 5.34455 12.7996 8.00055 12.7996C10.6565 12.7996 12.8005 10.6556 12.8005 7.99957C12.8005 5.34357 10.6565 3.19957 8.00055 3.19957Z" fill="#858388"/>
<path d="M9.69569 10.7841L7.67969 8.76812V5.12012H8.31969V8.51212L10.1437 10.3361L9.69569 10.7841Z" fill="#858388"/>
</svg>
