<svg width="40" height="40" viewBox="0 0 40 40" fill="none" xmlns="http://www.w3.org/2000/svg">
<path d="M20 0C30.9997 0 40 9.00026 40 20C40 30.9997 30.9997 40 20 40C9.00026 40 0 30.9997 0 20C0 9.00026 9.00026 0 20 0Z" fill="#DD4B39"/>
<path d="M30.1244 16.624V18.8741H32.3745V21.1242H30.1244V23.3742H27.8743V21.1242H25.6243V18.8741H27.8743V16.624H30.1244Z" fill="white"/>
<path d="M9.8738 25.6243C6.87372 22.6242 6.87372 17.3741 9.99909 14.374C12.2492 12.1239 15.4998 11.6245 18.3746 12.7487L19.4988 13.3734L20.75 14.2487L18.7488 16.2482L17.9988 15.7487C16.2498 14.6228 13.7492 14.8734 12.1239 16.4988C10.248 18.3747 10.1244 21.7489 12.1239 23.7484C13.9998 25.7479 17.374 25.7479 19.1246 23.7484C19.6241 23.249 20.1252 22.4989 20.2488 21.7489V21.4983H15.7504V18.9994H22.8747L23 19.6241V21.373C22.8747 22.9984 22.25 24.6237 21.1241 25.7479C18.124 28.6244 12.8756 28.6244 9.8738 25.6243Z" fill="white"/>
</svg>
