<svg width="48" height="48" viewBox="0 0 48 48" fill="none" xmlns="http://www.w3.org/2000/svg">
<circle opacity="0.2" cx="24" cy="24" r="24" fill="#885DE5"/>
<circle cx="24" cy="24" r="24" fill="#F8F8F8"/>
<path d="M4 26.5836H5.46877V24.0989H8.03612V26.5836H9.50191V20.1955H8.03612V22.6803H5.46877V20.1955H4V26.5836Z" fill="#805AA6"/>
<path d="M12.7857 25.3904C12.9236 25.3928 13.0604 25.3667 13.187 25.3139C13.3136 25.2611 13.4272 25.1827 13.5201 25.0841C13.733 24.8442 13.8402 24.5329 13.8186 24.2173C13.8371 23.9021 13.7303 23.592 13.5201 23.3506C13.4327 23.2489 13.3238 23.1666 13.2007 23.1092C13.0776 23.0519 12.9432 23.0209 12.8066 23.0183C12.6686 23.0153 12.5317 23.0412 12.4049 23.094C12.2782 23.1469 12.1647 23.2255 12.0722 23.3245C11.8612 23.5656 11.7543 23.876 11.7737 24.1913C11.7582 24.5061 11.8646 24.8152 12.0722 25.0581C12.159 25.1604 12.2678 25.2431 12.3911 25.3005C12.5143 25.3578 12.649 25.3885 12.7857 25.3904ZM12.7857 26.653C12.3309 26.6628 11.8807 26.5636 11.4751 26.3641C11.0925 26.164 10.7759 25.8636 10.5616 25.4973C10.3372 25.1001 10.225 24.6526 10.2362 24.2C10.2254 23.7491 10.3409 23.3038 10.5706 22.9114C10.7861 22.543 11.1063 22.2422 11.4931 22.0446C11.9003 21.8489 12.3489 21.747 12.8036 21.747C13.2583 21.747 13.7069 21.8489 14.1142 22.0446C14.5001 22.2424 14.8192 22.5432 15.0336 22.9114C15.2578 23.3078 15.3753 23.7524 15.3753 24.2043C15.3753 24.6562 15.2578 25.1009 15.0336 25.4973C14.817 25.8669 14.4946 26.1679 14.1052 26.3641C13.6969 26.5646 13.2435 26.6639 12.7857 26.653Z" fill="#805AA6"/>
<path d="M17.5713 20.1955H16.1055V26.5865H17.5713V20.1955Z" fill="#805AA6"/>
<path d="M21.9715 24.2058C21.9837 24.0493 21.9635 23.8922 21.9123 23.7433C21.861 23.5945 21.7797 23.4571 21.673 23.339C21.5774 23.2375 21.4607 23.157 21.3304 23.1027C21.2002 23.0484 21.0595 23.0216 20.9177 23.0241C20.7742 23.0221 20.6319 23.0491 20.4998 23.1033C20.3677 23.1575 20.2487 23.2378 20.1505 23.339C20.044 23.4572 19.9629 23.5947 19.9116 23.7435C19.8604 23.8923 19.8401 24.0494 19.8519 24.2058C19.8344 24.5209 19.9411 24.8307 20.1505 25.0725C20.2487 25.1737 20.3677 25.254 20.4998 25.3082C20.6319 25.3625 20.7742 25.3894 20.9177 25.3875C21.0595 25.39 21.2002 25.3632 21.3304 25.3089C21.4607 25.2546 21.5774 25.174 21.673 25.0725C21.78 24.9547 21.8615 24.8172 21.9128 24.6684C21.964 24.5195 21.984 24.3622 21.9715 24.2058ZM18.3055 24.2058C18.2953 23.7611 18.3914 23.3201 18.5862 22.9172C18.7587 22.5636 19.0295 22.2635 19.3683 22.0504C19.6985 21.8545 20.0797 21.7542 20.4669 21.7615C20.7784 21.7569 21.0862 21.8274 21.3625 21.9666C21.6086 22.0895 21.8151 22.2754 21.9596 22.504V21.8308H23.4283V26.5865H21.9715V25.9104C21.8237 26.1372 21.6181 26.3233 21.3744 26.4507C21.0978 26.5889 20.7901 26.6584 20.4788 26.653C20.0946 26.6594 19.7165 26.5591 19.3892 26.3641C19.0523 26.1489 18.782 25.8493 18.6071 25.4973C18.4051 25.0919 18.302 24.6471 18.3055 24.1971V24.2058Z" fill="#805AA6"/>
<path fill-rule="evenodd" clip-rule="evenodd" d="M12.8066 18.774C12.6614 18.774 12.5194 18.8157 12.3986 18.8938C12.2779 18.9719 12.1838 19.0829 12.1282 19.2128C12.0726 19.3426 12.058 19.4855 12.0864 19.6234C12.1147 19.7613 12.1847 19.8879 12.2874 19.9873C12.3901 20.0867 12.5209 20.1544 12.6634 20.1818C12.8058 20.2093 12.9535 20.1952 13.0877 20.1414C13.2219 20.0876 13.3366 19.9965 13.4173 19.8796C13.498 19.7627 13.541 19.6253 13.541 19.4847C13.541 19.3914 13.522 19.299 13.4851 19.2128C13.4482 19.1265 13.3941 19.0482 13.3259 18.9822C13.2577 18.9162 13.1768 18.8638 13.0877 18.8281C12.9986 18.7924 12.9031 18.774 12.8066 18.774ZM12.4395 19.4847C12.4395 19.555 12.461 19.6237 12.5013 19.6822C12.5417 19.7406 12.599 19.7862 12.6661 19.8131C12.7332 19.84 12.8071 19.847 12.8783 19.8333C12.9495 19.8196 13.0149 19.7857 13.0663 19.736C13.1176 19.6863 13.1526 19.623 13.1668 19.5541C13.181 19.4851 13.1737 19.4137 13.1459 19.3488C13.1181 19.2838 13.071 19.2283 13.0106 19.1893C12.9503 19.1502 12.8793 19.1294 12.8066 19.1294C12.7582 19.129 12.7101 19.1379 12.6652 19.1556C12.6203 19.1733 12.5795 19.1994 12.5451 19.2324C12.5107 19.2655 12.4833 19.3048 12.4647 19.3481C12.4461 19.3914 12.4365 19.4378 12.4365 19.4847H12.4395Z" fill="#805AA6"/>
<path fill-rule="evenodd" clip-rule="evenodd" d="M16.8368 17C16.7407 17 16.6456 17.0183 16.5569 17.0539C16.4681 17.0895 16.3875 17.1416 16.3196 17.2073C16.2517 17.2731 16.1978 17.3511 16.161 17.437C16.1243 17.5229 16.1054 17.6149 16.1054 17.7079V18.4186C16.099 18.5156 16.1132 18.6128 16.1471 18.7042C16.1811 18.7956 16.234 18.8794 16.3027 18.9502C16.3714 19.0211 16.4543 19.0775 16.5464 19.1162C16.6386 19.1548 16.7379 19.1747 16.8383 19.1747C16.9386 19.1747 17.038 19.1548 17.1301 19.1162C17.2222 19.0775 17.3052 19.0211 17.3738 18.9502C17.4425 18.8794 17.4955 18.7956 17.5294 18.7042C17.5633 18.6128 17.5776 18.5156 17.5712 18.4186V17.7079C17.5704 17.5199 17.4926 17.3398 17.355 17.2072C17.2174 17.0745 17.031 17 16.8368 17ZM17.204 18.4186V17.7079C17.204 17.6136 17.1653 17.5232 17.0964 17.4566C17.0276 17.3899 16.9342 17.3525 16.8368 17.3525C16.7394 17.3525 16.646 17.3899 16.5771 17.4566C16.5083 17.5232 16.4696 17.6136 16.4696 17.7079V18.4186C16.4696 18.5129 16.5083 18.6033 16.5771 18.6699C16.646 18.7366 16.7394 18.774 16.8368 18.774C16.9342 18.774 17.0276 18.7366 17.0964 18.6699C17.1653 18.6033 17.204 18.5129 17.204 18.4186Z" fill="#805AA6"/>
<path fill-rule="evenodd" clip-rule="evenodd" d="M21.9984 17.7685C21.9304 17.7026 21.8497 17.6502 21.7608 17.6145C21.672 17.5788 21.5767 17.5604 21.4804 17.5604C21.3842 17.5604 21.2889 17.5788 21.2 17.6145C21.1112 17.6502 21.0304 17.7026 20.9625 17.7685L19.9236 18.774C19.7969 18.9093 19.7289 19.0867 19.7336 19.2692C19.7384 19.4518 19.8156 19.6256 19.9492 19.7545C20.0829 19.8835 20.2627 19.9577 20.4513 19.9618C20.64 19.9659 20.823 19.8996 20.9625 19.7765L21.9984 18.774C22.0666 18.708 22.1208 18.6296 22.1577 18.5433C22.1946 18.4571 22.2136 18.3646 22.2136 18.2712C22.2136 18.1779 22.1946 18.0854 22.1577 17.9992C22.1208 17.9129 22.0666 17.8345 21.9984 17.7685ZM20.7028 19.5367L21.7387 18.5342C21.7769 18.5023 21.8079 18.4632 21.8298 18.4192C21.8517 18.3752 21.8641 18.3274 21.866 18.2786C21.868 18.2298 21.8595 18.1812 21.8412 18.1357C21.8229 18.0902 21.7951 18.0489 21.7595 18.0143C21.7239 17.9797 21.6814 17.9525 21.6345 17.9345C21.5876 17.9165 21.5374 17.908 21.487 17.9096C21.4366 17.9113 21.3871 17.9229 21.3415 17.9439C21.2959 17.9648 21.2553 17.9946 21.2222 18.0314L20.1833 19.0369C20.1228 19.105 20.0911 19.1927 20.0947 19.2825C20.0983 19.3723 20.1369 19.4574 20.2027 19.5208C20.2685 19.5841 20.3567 19.621 20.4495 19.6239C20.5423 19.6269 20.6328 19.5957 20.7028 19.5367Z" fill="#805AA6"/>
<path d="M25.106 26.575V20.366H29.0854V21.1721H26.0762V23.0645H28.8018V23.8706H26.0762V26.5779L25.106 26.575Z" fill="#679A40"/>
<path d="M31.6558 26.6674C31.2424 26.6814 30.8334 26.5812 30.4766 26.3785C30.1379 26.1772 29.8655 25.8865 29.6915 25.5406C29.4987 25.1464 29.4036 24.7141 29.4138 24.278C29.404 23.8401 29.499 23.406 29.6915 23.0096C29.865 22.6627 30.1374 22.371 30.4766 22.1689C30.8364 21.9708 31.2433 21.8666 31.6573 21.8666C32.0713 21.8666 32.4781 21.9708 32.838 22.1689C33.1769 22.3704 33.4485 22.6624 33.6201 23.0096C33.8136 23.4058 33.9097 23.8399 33.9007 24.278C33.91 24.7143 33.8139 25.1466 33.6201 25.5406C33.4469 25.8861 33.1756 26.1767 32.838 26.3785C32.48 26.5808 32.0701 26.681 31.6558 26.6674ZM31.6558 25.9076C31.9183 25.9168 32.1759 25.8371 32.3842 25.6822C32.5798 25.5245 32.7266 25.3175 32.8081 25.0841C32.9951 24.5521 32.9951 23.9751 32.8081 23.443C32.7257 23.2085 32.5779 23.0006 32.3812 22.8421C32.1687 22.6937 31.9133 22.6139 31.6513 22.6139C31.3893 22.6139 31.1339 22.6937 30.9214 22.8421C30.7247 23.0006 30.577 23.2085 30.4945 23.443C30.3075 23.9751 30.3075 24.5521 30.4945 25.0841C30.5769 25.3179 30.7247 25.5249 30.9214 25.6822C31.1323 25.8386 31.3933 25.9183 31.6588 25.9076H31.6558Z" fill="#679A40"/>
<path d="M36.7488 26.6674C36.3304 26.6832 35.9161 26.5829 35.5547 26.3785C35.217 26.1767 34.9458 25.8861 34.7725 25.5406C34.5797 25.1464 34.4847 24.714 34.4949 24.278C34.485 23.8401 34.5801 23.406 34.7725 23.0096C34.9453 22.6631 35.2166 22.3714 35.5547 22.1688C35.9154 21.9719 36.3226 21.8684 36.7369 21.8684C37.1511 21.8684 37.5583 21.9719 37.919 22.1688C38.2571 22.3714 38.5284 22.6631 38.7012 23.0096C38.8936 23.406 38.9887 23.8401 38.9788 24.278C38.989 24.714 38.894 25.1464 38.7012 25.5406C38.5279 25.8861 38.2566 26.1767 37.919 26.3785C37.5645 26.5787 37.1591 26.6788 36.7488 26.6674ZM36.7488 25.9075C37.0113 25.9168 37.2689 25.8371 37.4772 25.6822C37.6739 25.5249 37.8217 25.3179 37.9041 25.0841C38.0911 24.552 38.0911 23.9751 37.9041 23.443C37.8216 23.2085 37.6739 23.0005 37.4772 22.8421C37.2647 22.6937 37.0093 22.6139 36.7473 22.6139C36.4853 22.6139 36.2299 22.6937 36.0174 22.8421C35.8189 22.9995 35.67 23.2078 35.5875 23.443C35.4045 23.9757 35.4045 24.5514 35.5875 25.0841C35.6699 25.3186 35.8189 25.5259 36.0174 25.6822C36.2275 25.8379 36.4873 25.9176 36.7518 25.9075H36.7488Z" fill="#679A40"/>
<path d="M41.6147 26.6646C41.2464 26.6706 40.8846 26.57 40.5758 26.3756C40.2622 26.1697 40.0149 25.8823 39.8624 25.5464C39.6815 25.1389 39.5939 24.6983 39.6056 24.2549C39.5933 23.8112 39.682 23.3703 39.8653 22.9634C40.0201 22.6288 40.2696 22.3433 40.5848 22.14C40.8938 21.9484 41.2537 21.848 41.6207 21.8511C41.8702 21.84 42.1186 21.8896 42.3431 21.9955C42.5085 22.0765 42.6541 22.1908 42.77 22.3307C42.8563 22.4372 42.9351 22.5492 43.0059 22.6658H43.0626V20.3544H44V26.5634H43.0835V25.8382H43.0059C42.9346 25.9569 42.8538 26.0699 42.7641 26.1763C42.6445 26.315 42.4972 26.4289 42.3312 26.5114C42.1088 26.6182 41.8629 26.6708 41.6147 26.6646ZM41.8237 25.8931C42.0692 25.9001 42.3101 25.8269 42.5073 25.6851C42.7018 25.5342 42.8495 25.3342 42.9342 25.1073C43.0353 24.829 43.0839 24.5354 43.0775 24.2405C43.0835 23.9513 43.0349 23.6634 42.9342 23.391C42.8547 23.1623 42.7072 22.9613 42.5103 22.8132C42.3114 22.6729 42.0698 22.6007 41.8237 22.608C41.5696 22.5995 41.3201 22.6749 41.1162 22.8218C40.923 22.9734 40.7764 23.1732 40.6923 23.3997C40.5941 23.6656 40.5465 23.9466 40.552 24.2289C40.5474 24.5143 40.596 24.7981 40.6952 25.0668C40.7809 25.2933 40.9284 25.493 41.1221 25.6447C41.3187 25.8045 41.567 25.8924 41.8237 25.8931Z" fill="#679A40"/>
</svg>
