<svg width="48" height="48" viewBox="0 0 48 48" fill="none" xmlns="http://www.w3.org/2000/svg">
<circle opacity="0.2" cx="24" cy="24" r="24" fill="#885DE5"/>
<circle cx="24" cy="24" r="24" fill="#F8F8F8"/>
<path d="M6 27.4465H7.54802V24.7381H10.2563V27.4465H11.8034V20.4818H10.2563V23.1911H7.54802V20.4818H6V27.4465Z" fill="#805AA6"/>
<path d="M15.2668 26.1476C15.4124 26.15 15.5569 26.1213 15.6906 26.0635C15.8243 26.0056 15.9442 25.92 16.0422 25.8122C16.2606 25.5893 16.3695 25.27 16.3689 24.8545C16.3682 24.439 16.2626 24.1198 16.0519 23.8968C15.9561 23.7888 15.8381 23.7029 15.7059 23.645C15.5736 23.5871 15.4304 23.5586 15.2861 23.5614C15.1403 23.5579 14.9955 23.5861 14.8616 23.644C14.7277 23.7019 14.608 23.7881 14.5107 23.8968C14.3052 24.1133 14.2024 24.4325 14.2024 24.8545C14.2024 25.2765 14.3019 25.5957 14.501 25.8122C14.5968 25.9202 14.7148 26.0061 14.847 26.064C14.9792 26.1219 15.1224 26.1504 15.2668 26.1476ZM15.2668 27.524C14.7865 27.5312 14.3119 27.4193 13.8855 27.1984C13.484 26.9846 13.1505 26.6626 12.9229 26.2688C12.6851 25.8361 12.566 25.3481 12.5778 24.8545C12.5681 24.3626 12.6917 23.8773 12.9355 23.4499C13.1619 23.0504 13.4984 22.7244 13.9048 22.5107C14.3316 22.2895 14.8065 22.1776 15.2871 22.185C15.7677 22.1779 16.2425 22.2898 16.6694 22.5107C17.0758 22.7244 17.4123 23.0504 17.6387 23.4499C17.8815 23.8775 18.0041 24.3629 17.9935 24.8545C18.0035 25.3504 17.8774 25.8395 17.629 26.2688C17.3979 26.6663 17.0574 26.9889 16.648 27.1984C16.2216 27.4193 15.747 27.5312 15.2668 27.524Z" fill="#805AA6"/>
<path d="M20.316 20.4818H18.7679V27.4465H20.316V20.4818Z" fill="#805AA6"/>
<path d="M24.9553 24.8545C24.9553 24.4581 24.8515 24.144 24.6296 23.9152C24.5287 23.8045 24.4053 23.7165 24.2678 23.6572C24.1302 23.5979 23.9816 23.5685 23.8318 23.5711C23.6807 23.5689 23.5307 23.5984 23.3916 23.6577C23.2526 23.7169 23.1275 23.8047 23.0244 23.9152C22.8079 24.1382 22.6996 24.448 22.6996 24.8448C22.6996 25.2416 22.8079 25.5579 23.0244 25.7938C23.1275 25.9043 23.2526 25.9921 23.3916 26.0513C23.5307 26.1106 23.6807 26.1401 23.8318 26.1379C23.9816 26.1405 24.1302 26.1111 24.2678 26.0518C24.4053 25.9925 24.5287 25.9045 24.6296 25.7938C24.8583 25.565 24.9553 25.251 24.9553 24.8545ZM21.0857 24.8448C21.0753 24.36 21.1768 23.8794 21.3823 23.4403C21.5665 23.0601 21.8523 22.7383 22.2082 22.5107C22.5564 22.2923 22.9604 22.1792 23.3714 22.185C23.7037 22.1773 24.0325 22.254 24.3271 22.4079C24.5872 22.5423 24.8057 22.7451 24.9591 22.9944V22.2625H26.5101V27.4465H24.9553V26.7117C24.7962 26.9599 24.575 27.1621 24.3136 27.2982C24.0193 27.4521 23.6908 27.5288 23.3588 27.5211C22.9519 27.5251 22.5526 27.4121 22.2082 27.1954C21.8532 26.9625 21.5679 26.638 21.3823 26.2562C21.179 25.814 21.0789 25.3314 21.0896 24.8448H21.0857Z" fill="#805AA6"/>
<path fill-rule="evenodd" clip-rule="evenodd" d="M15.2862 18.9348C15.0805 18.9348 14.8833 19.0165 14.7379 19.1619C14.5924 19.3074 14.5107 19.5046 14.5107 19.7103C14.5107 19.9159 14.5924 20.1132 14.7379 20.2586C14.8833 20.404 15.0805 20.4857 15.2862 20.4857C15.4919 20.4857 15.6891 20.404 15.8345 20.2586C15.98 20.1132 16.0617 19.9159 16.0617 19.7103C16.0617 19.5046 15.98 19.3074 15.8345 19.1619C15.6891 19.0165 15.4919 18.9348 15.2862 18.9348ZM14.8985 19.7103C14.8985 19.8131 14.9393 19.9117 15.012 19.9844C15.0848 20.0572 15.1834 20.098 15.2862 20.098C15.389 20.098 15.4877 20.0572 15.5604 19.9844C15.6331 19.9117 15.6739 19.8131 15.6739 19.7103C15.6739 19.6074 15.6331 19.5088 15.5604 19.4361C15.4877 19.3634 15.389 19.3225 15.2862 19.3225C15.1839 19.3228 15.0858 19.3635 15.0133 19.4358C14.9409 19.508 14.9 19.606 14.8994 19.7083L14.8985 19.7103Z" fill="#805AA6"/>
<path fill-rule="evenodd" clip-rule="evenodd" d="M19.5417 17C19.336 17 19.1388 17.0817 18.9934 17.2271C18.8479 17.3726 18.7662 17.5698 18.7662 17.7755V18.5509C18.7662 18.7566 18.8479 18.9538 18.9934 19.0993C19.1388 19.2447 19.336 19.3264 19.5417 19.3264C19.7474 19.3264 19.9446 19.2447 20.09 19.0993C20.2355 18.9538 20.3172 18.7566 20.3172 18.5509V17.7755C20.3172 17.5698 20.2355 17.3726 20.09 17.2271C19.9446 17.0817 19.7474 17 19.5417 17ZM19.9294 18.5509V17.7755C19.9294 17.6726 19.8886 17.574 19.8159 17.5013C19.7432 17.4286 19.6445 17.3877 19.5417 17.3877C19.4389 17.3877 19.3402 17.4286 19.2675 17.5013C19.1948 17.574 19.154 17.6726 19.154 17.7755V18.5509C19.154 18.6538 19.1948 18.7524 19.2675 18.8251C19.3402 18.8978 19.4389 18.9387 19.5417 18.9387C19.5929 18.9387 19.6435 18.9285 19.6908 18.9089C19.738 18.8892 19.7809 18.8604 19.8169 18.8241C19.8529 18.7878 19.8814 18.7447 19.9008 18.6973C19.9201 18.6499 19.9298 18.5992 19.9294 18.548V18.5509Z" fill="#805AA6"/>
<path fill-rule="evenodd" clip-rule="evenodd" d="M24.9864 17.8404C24.8411 17.6957 24.6443 17.6144 24.4392 17.6144C24.2341 17.6144 24.0373 17.6957 23.892 17.8404L22.7976 18.9348C22.6529 19.0801 22.5717 19.2769 22.5717 19.482C22.5717 19.6871 22.6529 19.8838 22.7976 20.0292C22.943 20.1739 23.1397 20.2552 23.3448 20.2552C23.5499 20.2552 23.7467 20.1739 23.892 20.0292L24.9864 18.9348C25.1311 18.7895 25.2124 18.5927 25.2124 18.3876C25.2124 18.1825 25.1311 17.9858 24.9864 17.8404ZM23.6187 19.7558L24.713 18.6614C24.7855 18.5888 24.8263 18.4903 24.8263 18.3876C24.8263 18.2849 24.7855 18.1865 24.713 18.1138C24.6403 18.0413 24.5419 18.0005 24.4392 18.0005C24.3365 18.0005 24.2381 18.0413 24.1654 18.1138L23.071 19.2072C22.9985 19.2799 22.9578 19.3783 22.9578 19.481C22.9578 19.5837 22.9985 19.6822 23.071 19.7549C23.1435 19.8275 23.242 19.8684 23.3446 19.8686C23.4473 19.8688 23.5458 19.8282 23.6187 19.7558Z" fill="#805AA6"/>
<path d="M27.6113 27.4368V20.6689H28.633V26.5576H31.699V27.4368H27.6113Z" fill="#679A40"/>
<path d="M33.0492 21.5782C32.885 21.581 32.7264 21.5186 32.6082 21.4047C32.55 21.3524 32.5036 21.2884 32.472 21.2169C32.4405 21.1454 32.4244 21.068 32.425 20.9898C32.4241 20.9111 32.44 20.8332 32.4716 20.7612C32.5032 20.6892 32.5497 20.6247 32.6082 20.572C32.6666 20.5154 32.7356 20.471 32.8113 20.4412C32.887 20.4114 32.9679 20.3969 33.0492 20.3985C33.1305 20.3969 33.2114 20.4114 33.2871 20.4412C33.3628 20.471 33.4318 20.5154 33.4903 20.572C33.5487 20.6247 33.5952 20.6892 33.6268 20.7612C33.6584 20.8332 33.6743 20.9111 33.6735 20.9898C33.674 21.068 33.658 21.1454 33.6264 21.2169C33.5948 21.2884 33.5484 21.3524 33.4903 21.4047C33.372 21.5186 33.2134 21.581 33.0492 21.5782ZM32.55 27.4368V22.3614H33.5387V27.4368H32.55Z" fill="#679A40"/>
<path d="M37.0498 22.3614V23.1543H34.1815V22.3614H37.0498ZM34.9676 27.4368V21.773C34.9574 21.4942 35.0299 21.2186 35.1761 20.981C35.311 20.7742 35.5024 20.6103 35.7276 20.509C35.9624 20.4032 36.2174 20.3496 36.475 20.3519C36.6458 20.3492 36.8165 20.3651 36.9839 20.3994C37.0905 20.4215 37.1954 20.451 37.2979 20.4876L37.0662 21.2873L36.8879 21.2389C36.8012 21.2187 36.7123 21.2093 36.6233 21.2108C36.3838 21.2108 36.2123 21.2709 36.1095 21.3891C35.9986 21.5372 35.9442 21.7201 35.9564 21.9048V27.4368H34.9676Z" fill="#679A40"/>
<path d="M39.821 27.5434C39.3695 27.5559 38.9233 27.4443 38.5308 27.2206C38.1703 27.006 37.8808 26.6902 37.6982 26.3124C37.4954 25.8824 37.3959 25.4111 37.4074 24.9359C37.3972 24.4615 37.4967 23.9911 37.6982 23.5614C37.8786 23.1811 38.1625 22.8593 38.5173 22.6328C38.8877 22.4046 39.3163 22.2885 39.7512 22.2984C40.0349 22.2978 40.3165 22.346 40.5839 22.4409C40.8543 22.5362 41.1011 22.6883 41.308 22.8868C41.5335 23.1082 41.7064 23.3776 41.814 23.6748C41.9462 24.052 42.0089 24.4501 41.9991 24.8497V25.2005H37.9638V24.46H41.0308C41.0359 24.2181 40.9813 23.9787 40.8718 23.763C40.7702 23.5662 40.6167 23.4009 40.4278 23.2851C40.2252 23.1656 39.9932 23.1052 39.758 23.1107C39.5015 23.1044 39.249 23.1749 39.033 23.3133C38.8306 23.4448 38.6664 23.6273 38.557 23.8425C38.4454 24.0605 38.3882 24.3023 38.3903 24.5472V25.1288C38.3815 25.4275 38.4433 25.7241 38.5706 25.9944C38.6803 26.2221 38.8559 26.4116 39.0746 26.5382C39.3054 26.6671 39.5665 26.7317 39.8307 26.7253C40.005 26.7274 40.1784 26.6999 40.3435 26.6439C40.4927 26.5932 40.629 26.5104 40.7429 26.4015C40.8579 26.2892 40.946 26.1524 41.0007 26.0012L41.9361 26.1699C41.8638 26.4399 41.7259 26.688 41.5348 26.892C41.3325 27.104 41.085 27.2677 40.8107 27.3709C40.4945 27.4898 40.1588 27.5484 39.821 27.5434Z" fill="#679A40"/>
</svg>
