<svg width="58" height="58" viewBox="0 0 58 58" fill="none" xmlns="http://www.w3.org/2000/svg">
<g filter="url(#filter0_d)">
<rect x="4" width="50" height="50" rx="25" fill="#F0A616"/>
</g>
<path d="M18.59 26.7C18.4556 26.5597 18.349 26.393 18.2762 26.2095C18.2035 26.026 18.166 25.8293 18.166 25.6307C18.166 25.432 18.2035 25.2353 18.2762 25.0518C18.349 24.8683 18.4556 24.7016 18.59 24.5613L28.1852 14.5204C28.292 14.4083 28.4189 14.3195 28.5586 14.2588C28.6982 14.1982 28.848 14.167 28.9992 14.167C29.1504 14.167 29.3002 14.1982 29.4398 14.2588C29.5795 14.3195 29.7064 14.4083 29.8132 14.5204L39.4083 24.5613C39.9741 25.1534 39.9741 26.1079 39.4083 26.7C38.8426 27.2921 37.9304 27.2921 37.3646 26.7L28.9934 17.9519L20.6222 26.7121C20.068 27.2921 19.1443 27.2921 18.59 26.7Z" fill="white"/>
<path d="M18.59 35.867C18.4556 35.7267 18.349 35.56 18.2762 35.3765C18.2035 35.193 18.166 34.9963 18.166 34.7976C18.166 34.599 18.2035 34.4023 18.2762 34.2188C18.349 34.0353 18.4556 33.8686 18.59 33.7283L28.1852 23.6873C28.292 23.5753 28.4189 23.4865 28.5586 23.4258C28.6982 23.3652 28.848 23.334 28.9992 23.334C29.1504 23.334 29.3002 23.3652 29.4398 23.4258C29.5795 23.4865 29.7064 23.5753 29.8132 23.6873L39.4083 33.7283C39.9741 34.3204 39.9741 35.2749 39.4083 35.867C38.8426 36.4591 37.9304 36.4591 37.3646 35.867L28.9934 27.1189L20.6222 35.8791C20.068 36.4591 19.1443 36.4591 18.59 35.867Z" fill="white"/>
<defs>
<filter id="filter0_d" x="0" y="0" width="58" height="58" filterUnits="userSpaceOnUse" color-interpolation-filters="sRGB">
<feFlood flood-opacity="0" result="BackgroundImageFix"/>
<feColorMatrix in="SourceAlpha" type="matrix" values="0 0 0 0 0 0 0 0 0 0 0 0 0 0 0 0 0 0 127 0" result="hardAlpha"/>
<feOffset dy="4"/>
<feGaussianBlur stdDeviation="2"/>
<feColorMatrix type="matrix" values="0 0 0 0 0 0 0 0 0 0 0 0 0 0 0 0 0 0 0.2 0"/>
<feBlend mode="normal" in2="BackgroundImageFix" result="effect1_dropShadow"/>
<feBlend mode="normal" in="SourceGraphic" in2="effect1_dropShadow" result="shape"/>
</filter>
</defs>
</svg>
