<svg width="14" height="8" viewBox="0 0 14 8" fill="none" xmlns="http://www.w3.org/2000/svg">
<path d="M1.19582 7.5198C1.11518 7.43562 1.05119 7.33562 1.00753 7.22552C0.963878 7.11542 0.941406 6.9974 0.941406 6.8782C0.941406 6.759 0.963878 6.64097 1.00753 6.53087C1.05119 6.42077 1.11518 6.32077 1.19582 6.23659L6.9529 0.212016C7.01699 0.144808 7.09312 0.0914876 7.17693 0.0551071C7.26074 0.0187266 7.35058 2.79692e-07 7.44131 2.83652e-07C7.53205 2.87611e-07 7.62189 0.0187266 7.7057 0.0551071C7.78951 0.0914876 7.86564 0.144808 7.92973 0.212016L13.6868 6.23659C14.0263 6.59183 14.0263 7.16456 13.6868 7.5198C13.3473 7.87504 12.8 7.87504 12.4606 7.5198L7.43785 2.27096L2.41513 7.52705C2.08259 7.87504 1.52836 7.87504 1.19582 7.5198Z" fill="#68656D"/>
</svg>
