<svg width="28" height="28" viewBox="0 0 28 28" fill="none" xmlns="http://www.w3.org/2000/svg">
<circle cx="14" cy="14" r="13.5" fill="white" stroke="#F0EAF7"/>
<path d="M10 8C10 8.53043 9.78929 9.03914 9.41421 9.41421C9.03914 9.78929 8.53043 10 8 10C7.46957 10 6.96086 9.78929 6.58579 9.41421C6.21071 9.03914 6 8.53043 6 8C6 7.46957 6.21071 6.96086 6.58579 6.58579C6.96086 6.21071 7.46957 6 8 6C8.53043 6 9.03914 6.21071 9.41421 6.58579C9.78929 6.96086 10 7.46957 10 8Z" fill="#885DE5"/>
<path d="M10 14C10 14.5304 9.78929 15.0391 9.41421 15.4142C9.03914 15.7893 8.53043 16 8 16C7.46957 16 6.96086 15.7893 6.58579 15.4142C6.21071 15.0391 6 14.5304 6 14C6 13.4696 6.21071 12.9609 6.58579 12.5858C6.96086 12.2107 7.46957 12 8 12C8.53043 12 9.03914 12.2107 9.41421 12.5858C9.78929 12.9609 10 13.4696 10 14Z" fill="#885DE5"/>
<path d="M8 22C8.53043 22 9.03914 21.7893 9.41421 21.4142C9.78929 21.0391 10 20.5304 10 20C10 19.4696 9.78929 18.9609 9.41421 18.5858C9.03914 18.2107 8.53043 18 8 18C7.46957 18 6.96086 18.2107 6.58579 18.5858C6.21071 18.9609 6 19.4696 6 20C6 20.5304 6.21071 21.0391 6.58579 21.4142C6.96086 21.7893 7.46957 22 8 22Z" fill="#885DE5"/>
<path d="M16 8C16 8.53043 15.7893 9.03914 15.4142 9.41421C15.0391 9.78929 14.5304 10 14 10C13.4696 10 12.9609 9.78929 12.5858 9.41421C12.2107 9.03914 12 8.53043 12 8C12 7.46957 12.2107 6.96086 12.5858 6.58579C12.9609 6.21071 13.4696 6 14 6C14.5304 6 15.0391 6.21071 15.4142 6.58579C15.7893 6.96086 16 7.46957 16 8Z" fill="#885DE5"/>
<path d="M14 16C14.5304 16 15.0391 15.7893 15.4142 15.4142C15.7893 15.0391 16 14.5304 16 14C16 13.4696 15.7893 12.9609 15.4142 12.5858C15.0391 12.2107 14.5304 12 14 12C13.4696 12 12.9609 12.2107 12.5858 12.5858C12.2107 12.9609 12 13.4696 12 14C12 14.5304 12.2107 15.0391 12.5858 15.4142C12.9609 15.7893 13.4696 16 14 16Z" fill="#885DE5"/>
<path d="M16 20C16 20.5304 15.7893 21.0391 15.4142 21.4142C15.0391 21.7893 14.5304 22 14 22C13.4696 22 12.9609 21.7893 12.5858 21.4142C12.2107 21.0391 12 20.5304 12 20C12 19.4696 12.2107 18.9609 12.5858 18.5858C12.9609 18.2107 13.4696 18 14 18C14.5304 18 15.0391 18.2107 15.4142 18.5858C15.7893 18.9609 16 19.4696 16 20Z" fill="#885DE5"/>
<path d="M20 10C20.5304 10 21.0391 9.78929 21.4142 9.41421C21.7893 9.03914 22 8.53043 22 8C22 7.46957 21.7893 6.96086 21.4142 6.58579C21.0391 6.21071 20.5304 6 20 6C19.4696 6 18.9609 6.21071 18.5858 6.58579C18.2107 6.96086 18 7.46957 18 8C18 8.53043 18.2107 9.03914 18.5858 9.41421C18.9609 9.78929 19.4696 10 20 10Z" fill="#885DE5"/>
<path d="M22 14C22 14.5304 21.7893 15.0391 21.4142 15.4142C21.0391 15.7893 20.5304 16 20 16C19.4696 16 18.9609 15.7893 18.5858 15.4142C18.2107 15.0391 18 14.5304 18 14C18 13.4696 18.2107 12.9609 18.5858 12.5858C18.9609 12.2107 19.4696 12 20 12C20.5304 12 21.0391 12.2107 21.4142 12.5858C21.7893 12.9609 22 13.4696 22 14Z" fill="#885DE5"/>
<path d="M20 22C20.5304 22 21.0391 21.7893 21.4142 21.4142C21.7893 21.0391 22 20.5304 22 20C22 19.4696 21.7893 18.9609 21.4142 18.5858C21.0391 18.2107 20.5304 18 20 18C19.4696 18 18.9609 18.2107 18.5858 18.5858C18.2107 18.9609 18 19.4696 18 20C18 20.5304 18.2107 21.0391 18.5858 21.4142C18.9609 21.7893 19.4696 22 20 22Z" fill="#885DE5"/>
</svg>
