<svg width="16" height="16" viewBox="0 0 16 16" fill="none" xmlns="http://www.w3.org/2000/svg">
<circle cx="8" cy="8" r="8" fill="#1952E3"/>
<path d="M14.6746 3.58794L10.2628 7.99977L14.6746 12.4116C14.0801 13.3092 13.3094 14.0798 12.4119 14.6743L8.00004 10.2625L3.58822 14.6743C2.69065 14.0798 1.91996 13.3092 1.32548 12.4116L5.7373 7.99977L1.32547 3.58794C1.6045 3.16664 1.92236 2.7733 2.27393 2.41301C2.29684 2.38954 2.31993 2.36617 2.34319 2.34291C2.36632 2.31978 2.38956 2.29681 2.41291 2.27402C2.7733 1.9223 3.16677 1.60432 3.58821 1.3252L8.00004 5.73703L12.4119 1.3252C12.8333 1.60429 13.2267 1.92223 13.587 2.2739C13.6104 2.29673 13.6337 2.31974 13.6569 2.34291C13.6801 2.36611 13.7031 2.38942 13.726 2.41283C14.0776 2.77317 14.3955 3.16657 14.6746 3.58794Z" fill="white"/>
<path d="M14.1944 2.93704L9.13141 8.00003L14.1944 13.063C13.8558 13.4767 13.4767 13.8559 13.063 14.1944L8.00003 9.13141L2.93705 14.1944C2.93336 14.1914 2.92968 14.1883 2.926 14.1853C2.86147 14.1295 2.52365 13.8363 2.34932 13.663C2.34523 13.6589 2.34114 13.6548 2.33706 13.6508C2.16371 13.4764 1.87032 13.1383 1.81468 13.074C1.81168 13.0703 1.80868 13.0667 1.80568 13.063L6.86865 8.00004L1.80566 2.93705C1.80854 2.93353 1.81142 2.93002 1.8143 2.92651C1.86963 2.86252 2.17031 2.51604 2.34318 2.34318C2.51609 2.17027 2.8627 1.86947 2.92656 1.81426C2.93005 1.81139 2.93355 1.80853 2.93704 1.80566L8.00003 6.86866L13.063 1.80567C13.2445 1.95419 13.4194 2.11052 13.587 2.27416C13.6104 2.297 13.6337 2.32 13.6569 2.34318C13.6801 2.36638 13.7031 2.38968 13.726 2.4131C13.8896 2.58076 14.0459 2.75558 14.1944 2.93704Z" fill="#EE3737"/>
<path d="M9.6 0.160029C9.33776 0.106798 9.07087 0.0663937 8.8 0.0395002C8.53687 0.0133756 8.27 0 8 0C7.73 0 7.46313 0.0133756 7.2 0.0395002C6.92913 0.0663937 6.66224 0.106798 6.4 0.160029V6.4H0.160029C0.106798 6.66223 0.0663945 6.92913 0.039501 7.19999C0.0133758 7.46312 0 7.73 0 8C0 8.27 0.0133758 8.53688 0.039501 8.80001C0.0663944 9.07087 0.106798 9.33777 0.160029 9.6H6.4V15.84C6.66224 15.8932 6.92913 15.9336 7.2 15.9605C7.46313 15.9866 7.73 16 8 16C8.27 16 8.53687 15.9866 8.8 15.9605C9.07087 15.9336 9.33776 15.8932 9.6 15.84V9.6L15.84 9.6C15.8932 9.33777 15.9336 9.07087 15.9605 8.80001C15.9866 8.53688 16 8.27 16 8C16 7.73 15.9866 7.46313 15.9605 7.2C15.9336 6.92913 15.8932 6.66224 15.84 6.4L9.6 6.4V0.160029Z" fill="white"/>
<path d="M8 0C7.73 0 7.46313 0.0133756 7.2 0.0395002V7.2L0.039501 7.19999C0.039501 7.19999 0 7.73 0 8C0 8.27 0.039501 8.80001 0.039501 8.80001H7.2V15.9605C7.2 15.9605 7.73 16 8 16C8.27 16 8.8 15.9605 8.8 15.9605V8.80001H15.9605C15.9866 8.53688 16 8.27 16 8C16 7.73 15.9866 7.46313 15.9605 7.2L8.8 7.19999V0.0395002C8.53687 0.0133756 8.27 0 8 0Z" fill="#EE3737"/>
</svg>
