<svg width="16" height="16" viewBox="0 0 16 16" fill="none" xmlns="http://www.w3.org/2000/svg">
<circle cx="8" cy="8" r="8" fill="#EE3737"/>
<path d="M11.9792 7.02308C11.9269 6.85416 11.7832 6.73392 11.6131 6.71807L9.30408 6.49916L8.39104 4.26923C8.32372 4.10586 8.1703 4 7.99996 4C7.82963 4 7.6762 4.10586 7.60888 4.26955L6.69584 6.49916L4.38663 6.71807C4.21692 6.73441 4.07367 6.85416 4.02091 7.02308C3.96831 7.19216 4.01684 7.37758 4.14522 7.49438L5.89067 9.09161L5.37591 11.4573C5.33818 11.6313 5.403 11.8111 5.54124 11.9154C5.6156 11.9714 5.70265 12 5.79032 12C5.86593 12 5.94093 11.9788 6.0084 11.9366L8.00012 10.6944L9.99121 11.9366C10.1368 12.0281 10.3204 12.0198 10.4585 11.9154C10.5969 11.8108 10.6616 11.631 10.6239 11.4573L10.1091 9.09161L11.8544 7.49471C11.9828 7.37758 12.0318 7.19249 11.9792 7.02308Z" fill="#F9D932"/>
</svg>
