<svg width="12" height="16" viewBox="0 0 12 16" fill="none" xmlns="http://www.w3.org/2000/svg">
<path d="M6 14.7367C5.87909 14.5939 5.73293 14.4185 5.56792 14.2152C5.08217 13.6167 4.43533 12.7792 3.78948 11.8219C3.14267 10.8632 2.50303 9.79358 2.02661 8.73015C1.54726 7.66016 1.25 6.63321 1.25 5.75C1.25 3.12364 3.37364 1 6 1C8.62636 1 10.75 3.12364 10.75 5.75C10.75 6.63321 10.4527 7.66016 9.97339 8.73015C9.49697 9.79358 8.85733 10.8632 8.21052 11.8219C7.56467 12.7792 6.91783 13.6167 6.43208 14.2152C6.26707 14.4185 6.1209 14.5939 6 14.7367ZM4.32062 7.42938C4.76602 7.87478 5.37011 8.125 6 8.125C6.62989 8.125 7.23398 7.87478 7.67938 7.42938C8.12478 6.98398 8.375 6.37989 8.375 5.75C8.375 5.12011 8.12478 4.51602 7.67938 4.07062C7.23398 3.62522 6.62989 3.375 6 3.375C5.37011 3.375 4.76602 3.62522 4.32062 4.07062C3.87522 4.51602 3.625 5.12011 3.625 5.75C3.625 6.37989 3.87522 6.98398 4.32062 7.42938Z" stroke="#6E6B7B"/>
</svg>
