<svg width="18" height="24" viewBox="0 0 18 24" fill="none" xmlns="http://www.w3.org/2000/svg">
<path d="M16.3853 4.17281C14.6867 1.52109 11.9947 0 9.00021 0C6.00575 0 3.31374 1.52109 1.61554 4.17281C-0.0748413 6.81094 -0.465063 10.1512 0.56959 13.1025C0.846395 13.9083 1.28616 14.6911 1.87366 15.4252L8.40792 23.7047C8.55567 23.8922 8.77207 24 9.00021 24C9.22834 24 9.44475 23.8922 9.59249 23.7047L16.1255 15.427C16.7156 14.6892 17.1549 13.9069 17.4291 13.1077C18.4655 10.1512 18.0753 6.81094 16.3853 4.17281ZM15.9725 12.5198C15.7609 13.1367 15.4154 13.7466 14.9465 14.333C14.9452 14.3344 14.9439 14.3358 14.9431 14.3377L9.00021 21.8667L3.05432 14.333C2.58545 13.747 2.23998 13.1372 2.02619 12.5147C1.17057 10.0739 1.49517 7.3125 2.89484 5.12766C4.29886 2.93578 6.52417 1.67859 9.00021 1.67859C11.4762 1.67859 13.7011 2.93578 15.1051 5.12766C16.5048 7.31203 16.8298 10.0739 15.9725 12.5198ZM9.00021 4.97906C6.59804 4.97906 4.64389 7.08703 4.64389 9.67828C4.64389 12.2695 6.59804 14.3775 9.00021 14.3775C11.4024 14.3775 13.3565 12.2695 13.3565 9.67828C13.3565 7.0875 11.4024 4.97906 9.00021 4.97906ZM9.00021 12.6994C7.45583 12.6994 6.19956 11.3442 6.19956 9.67828C6.19956 8.01234 7.45583 6.65719 9.00021 6.65719C10.5446 6.65719 11.8009 8.01234 11.8009 9.67828C11.8009 11.3442 10.5446 12.6994 9.00021 12.6994Z" fill="#885DE5"/>
</svg>
