<svg width="24" height="24" viewBox="0 0 24 24" fill="none" xmlns="http://www.w3.org/2000/svg">
<path d="M20 2H4C3.20435 2 2.44129 2.31607 1.87868 2.87868C1.31607 3.44129 1 4.20435 1 5V19C1 19.7956 1.31607 20.5587 1.87868 21.1213C2.44129 21.6839 3.20435 22 4 22H20C20.7956 22 21.5587 21.6839 22.1213 21.1213C22.6839 20.5587 23 19.7956 23 19V5C23 4.20435 22.6839 3.44129 22.1213 2.87868C21.5587 2.31607 20.7956 2 20 2ZM4 4H20C20.2652 4 20.5196 4.10536 20.7071 4.29289C20.8946 4.48043 21 4.73478 21 5V14.36L16.8 11.63C16.3042 11.222 15.6821 10.999 15.04 10.999C14.3979 10.999 13.7758 11.222 13.28 11.63L3 18.7V5C3 4.73478 3.10536 4.48043 3.29289 4.29289C3.48043 4.10536 3.73478 4 4 4ZM20 20H4.56L14.56 13.16C14.6945 13.0602 14.8575 13.0062 15.025 13.0062C15.1925 13.0062 15.3555 13.0602 15.49 13.16L21 17V19C21 19.2652 20.8946 19.5196 20.7071 19.7071C20.5196 19.8946 20.2652 20 20 20Z" fill="#8D869D"/>
<path d="M7.5 10C8.32843 10 9 9.32843 9 8.5C9 7.67157 8.32843 7 7.5 7C6.67157 7 6 7.67157 6 8.5C6 9.32843 6.67157 10 7.5 10Z" fill="#8D869D"/>
</svg>
