<svg width="14" height="8" viewBox="0 0 14 8" fill="none" xmlns="http://www.w3.org/2000/svg">
<path d="M1.19582 0.267306C1.11518 0.351487 1.05119 0.45149 1.00753 0.561587C0.963878 0.671685 0.941406 0.789714 0.941406 0.908914C0.941406 1.02811 0.963878 1.14614 1.00753 1.25624C1.05119 1.36634 1.11518 1.46634 1.19582 1.55052L6.9529 7.57509C7.01699 7.6423 7.09312 7.69562 7.17693 7.732C7.26074 7.76838 7.35058 7.78711 7.44131 7.78711C7.53205 7.78711 7.62189 7.76838 7.7057 7.732C7.78951 7.69562 7.86564 7.6423 7.92973 7.57509L13.6868 1.55052C14.0263 1.19528 14.0263 0.622546 13.6868 0.267306C13.3473 -0.0879336 12.8 -0.0879336 12.4606 0.267306L7.43785 5.51615L2.41513 0.260058C2.08259 -0.0879317 1.52836 -0.0879331 1.19582 0.267306Z" fill="#68656D"/>
</svg>
