<svg width="80" height="80" viewBox="0 0 80 80" fill="none" xmlns="http://www.w3.org/2000/svg">
<rect opacity="0.1" width="80" height="80" rx="20" fill="#8D869D"/>
<g opacity="0.2">
<path d="M53.3327 23.333H26.666C25.3399 23.333 24.0682 23.8598 23.1305 24.7975C22.1928 25.7352 21.666 27.0069 21.666 28.333V51.6663C21.666 52.9924 22.1928 54.2642 23.1305 55.2019C24.0682 56.1396 25.3399 56.6663 26.666 56.6663H53.3327C54.6588 56.6663 55.9305 56.1396 56.8682 55.2019C57.8059 54.2642 58.3327 52.9924 58.3327 51.6663V28.333C58.3327 27.0069 57.8059 25.7352 56.8682 24.7975C55.9305 23.8598 54.6588 23.333 53.3327 23.333ZM26.666 26.6663H53.3327C53.7747 26.6663 54.1986 26.8419 54.5112 27.1545C54.8238 27.4671 54.9993 27.891 54.9993 28.333V43.933L47.9993 39.383C47.173 38.7031 46.1361 38.3313 45.066 38.3313C43.9959 38.3313 42.959 38.7031 42.1327 39.383L24.9993 51.1663V28.333C24.9993 27.891 25.1749 27.4671 25.4875 27.1545C25.8001 26.8419 26.224 26.6663 26.666 26.6663ZM53.3327 53.333H27.5993L44.266 41.933C44.4901 41.7666 44.7619 41.6767 45.041 41.6767C45.3202 41.6767 45.5919 41.7666 45.816 41.933L54.9993 48.333V51.6663C54.9993 52.1084 54.8238 52.5323 54.5112 52.8449C54.1986 53.1574 53.7747 53.333 53.3327 53.333Z" fill="#8D869D"/>
<path d="M32.5 36.667C33.8807 36.667 35 35.5477 35 34.167C35 32.7863 33.8807 31.667 32.5 31.667C31.1193 31.667 30 32.7863 30 34.167C30 35.5477 31.1193 36.667 32.5 36.667Z" fill="#8D869D"/>
</g>
</svg>
