<svg width="20" height="20" viewBox="0 0 20 20" fill="none" xmlns="http://www.w3.org/2000/svg">
<path d="M11.966 11.8577C11.409 12.3068 10.7149 12.5518 9.99935 12.5518C9.28377 12.5518 8.58975 12.3068 8.03269 11.8577C7.86251 11.7162 7.6431 11.6482 7.42275 11.6685C7.20239 11.6888 6.99914 11.7958 6.85769 11.966C6.71624 12.1362 6.64819 12.3556 6.6685 12.576C6.68882 12.7963 6.79584 12.9996 6.96602 13.141C7.81713 13.8515 8.89065 14.2407 9.99935 14.2407C11.1081 14.2407 12.1816 13.8515 13.0327 13.141C13.2029 12.9996 13.3099 12.7963 13.3302 12.576C13.3505 12.3556 13.2825 12.1362 13.141 11.966C13.071 11.8818 12.985 11.8121 12.8881 11.7611C12.7911 11.71 12.6851 11.6786 12.576 11.6685C12.3556 11.6482 12.1362 11.7162 11.966 11.8577ZM7.49935 9.75768L7.74102 9.50768L7.98269 9.75768C8.06015 9.83579 8.15232 9.89779 8.25387 9.94009C8.35542 9.9824 8.46434 10.0042 8.57435 10.0042C8.68436 10.0042 8.79328 9.9824 8.89483 9.94009C8.99638 9.89779 9.08855 9.83579 9.16602 9.75768C9.24413 9.68021 9.30612 9.58805 9.34843 9.4865C9.39074 9.38495 9.41252 9.27603 9.41252 9.16602C9.41252 9.05601 9.39074 8.94708 9.34843 8.84554C9.30612 8.74399 9.24413 8.65182 9.16602 8.57435L8.91602 8.33268L9.16602 8.09102C9.32294 7.92968 9.40934 7.71261 9.40621 7.48756C9.40309 7.26252 9.31069 7.04794 9.14935 6.89102C8.98801 6.7341 8.77094 6.6477 8.5459 6.65082C8.32086 6.65395 8.10627 6.74634 7.94935 6.90768L7.70769 7.15768L7.49935 6.90768C7.34243 6.74634 7.12785 6.65395 6.9028 6.65082C6.67776 6.6477 6.46069 6.7341 6.29935 6.89102C6.13801 7.04794 6.04562 7.26252 6.04249 7.48756C6.03937 7.71261 6.12577 7.92968 6.28269 8.09102L6.53269 8.33268L6.28269 8.57435C6.20458 8.65182 6.14258 8.74399 6.10028 8.84554C6.05797 8.94708 6.03619 9.05601 6.03619 9.16602C6.03619 9.27603 6.05797 9.38495 6.10028 9.4865C6.14258 9.58805 6.20458 9.68021 6.28269 9.75768C6.36016 9.83579 6.45232 9.89779 6.55387 9.94009C6.65542 9.9824 6.76434 10.0042 6.87435 10.0042C6.98436 10.0042 7.09328 9.9824 7.19483 9.94009C7.29638 9.89779 7.38855 9.83579 7.46602 9.75768H7.49935ZM9.99935 1.66602C8.35118 1.66602 6.74001 2.15476 5.3696 3.07044C3.99919 3.98611 2.93109 5.2876 2.30036 6.81032C1.66963 8.33304 1.5046 10.0086 1.82614 11.6251C2.14769 13.2416 2.94136 14.7265 4.1068 15.8919C5.27223 17.0573 6.75709 17.851 8.3736 18.1726C9.99011 18.4941 11.6657 18.3291 13.1884 17.6983C14.7111 17.0676 16.0126 15.9995 16.9283 14.6291C17.8439 13.2587 18.3327 11.6475 18.3327 9.99935C18.3327 8.905 18.1171 7.82137 17.6983 6.81032C17.2796 5.79927 16.6657 4.88061 15.8919 4.10679C15.1181 3.33297 14.1994 2.71914 13.1884 2.30035C12.1773 1.88156 11.0937 1.66602 9.99935 1.66602ZM9.99935 16.666C8.68081 16.666 7.39188 16.275 6.29555 15.5425C5.19922 14.8099 4.34474 13.7687 3.84016 12.5506C3.33557 11.3324 3.20355 9.99195 3.46078 8.69875C3.71802 7.40554 4.35296 6.21765 5.28531 5.2853C6.21766 4.35295 7.40554 3.71802 8.69875 3.46078C9.99196 3.20355 11.3324 3.33557 12.5506 3.84015C13.7687 4.34474 14.8099 5.19922 15.5425 6.29555C16.275 7.39188 16.666 8.68081 16.666 9.99935C16.666 11.7675 15.9636 13.4632 14.7134 14.7134C13.4632 15.9636 11.7675 16.666 9.99935 16.666ZM14.166 6.90768C14.0886 6.82958 13.9964 6.76758 13.8948 6.72527C13.7933 6.68297 13.6844 6.66118 13.5744 6.66118C13.4643 6.66118 13.3554 6.68297 13.2539 6.72527C13.1523 6.76758 13.0602 6.82958 12.9827 6.90768L12.741 7.15768L12.4994 6.90768C12.3424 6.75076 12.1296 6.66261 11.9077 6.66261C11.6858 6.66261 11.4729 6.75076 11.316 6.90768C11.1591 7.0646 11.0709 7.27743 11.0709 7.49935C11.0709 7.72127 11.1591 7.9341 11.316 8.09102L11.566 8.33268L11.316 8.57435C11.2379 8.65182 11.1759 8.74399 11.1336 8.84554C11.0913 8.94708 11.0695 9.05601 11.0695 9.16602C11.0695 9.27603 11.0913 9.38495 11.1336 9.4865C11.1759 9.58805 11.2379 9.68021 11.316 9.75768C11.3935 9.83579 11.4857 9.89779 11.5872 9.94009C11.6888 9.9824 11.7977 10.0042 11.9077 10.0042C12.0177 10.0042 12.1266 9.9824 12.2282 9.94009C12.3297 9.89779 12.4219 9.83579 12.4994 9.75768L12.741 9.50768L12.9827 9.75768C13.0602 9.83579 13.1523 9.89779 13.2539 9.94009C13.3554 9.9824 13.4643 10.0042 13.5744 10.0042C13.6844 10.0042 13.7933 9.9824 13.8948 9.94009C13.9964 9.89779 14.0886 9.83579 14.166 9.75768C14.2441 9.68021 14.3061 9.58805 14.3484 9.4865C14.3907 9.38495 14.4125 9.27603 14.4125 9.16602C14.4125 9.05601 14.3907 8.94708 14.3484 8.84554C14.3061 8.74399 14.2441 8.65182 14.166 8.57435L13.916 8.33268L14.166 8.09102C14.2441 8.01355 14.3061 7.92138 14.3484 7.81983C14.3907 7.71828 14.4125 7.60936 14.4125 7.49935C14.4125 7.38934 14.3907 7.28042 14.3484 7.17887C14.3061 7.07732 14.2441 6.98515 14.166 6.90768Z" fill="#F0A616"/>
</svg>
