<svg width="12" height="11" viewBox="0 0 12 11" fill="none" xmlns="http://www.w3.org/2000/svg">
<path d="M11.5993 5.55608e-07H0.4C0.178667 5.55608e-07 0 0.178 0 0.400001V2H12V0.400001C12 0.347416 11.9896 0.295347 11.9695 0.246773C11.9493 0.198199 11.9198 0.154074 11.8826 0.116922C11.8454 0.0797697 11.8012 0.0503198 11.7526 0.0302571C11.704 0.0101945 11.6519 -8.70859e-05 11.5993 5.55608e-07V5.55608e-07ZM0.666667 9.73333C0.666667 10.2467 1.086 10.6667 1.59933 10.6667H10.3993C10.9127 10.6667 11.3327 10.246 11.3327 9.73333V2.66667H0.666667V9.73333ZM4 4H8V5.33333H4V4Z" fill="#6E6B7B"/>
</svg>
