<svg width="20" height="20" viewBox="0 0 20 20" fill="none" xmlns="http://www.w3.org/2000/svg">
<path fill-rule="evenodd" clip-rule="evenodd" d="M10.0007 1.66675C6.40648 1.66684 3.33431 4.55159 3.33415 8.33342C3.29508 13.4017 10.0007 18.3334 10.0007 18.3334C10.0007 18.3334 16.7062 13.4017 16.6671 8.33342C16.667 4.55159 13.5948 1.66684 10.0007 1.66675ZM10.0007 3.33341C7.30503 3.33349 5.0009 5.55475 5.00078 8.46675C4.97148 12.3694 10.0007 16.1667 10.0007 16.1667C10.0007 16.1667 15.0298 12.3694 15.0005 8.46675C15.0004 5.55475 12.6963 3.33349 10.0007 3.33341ZM6.66732 8.33341C6.66732 10.1744 8.1597 11.6667 10.0007 11.6667C11.8416 11.6667 13.334 10.1744 13.334 8.33341C13.334 6.49247 11.8416 5.00008 10.0007 5.00008C8.1597 5.00008 6.66732 6.49247 6.66732 8.33341ZM8.33399 8.33341C8.33399 7.41294 9.08018 6.66675 10.0007 6.66675C10.9211 6.66675 11.6673 7.41294 11.6673 8.33341C11.6673 9.25389 10.9211 10.0001 10.0007 10.0001C9.08018 10.0001 8.33399 9.25389 8.33399 8.33341Z" fill="#8D869D"/>
</svg>
