<svg width="185" height="103" viewBox="0 0 185 103" fill="none" xmlns="http://www.w3.org/2000/svg">
<rect opacity="0.4" x="0.5" y="0.5" width="184" height="102" rx="7.5" fill="white" stroke="#8D869D"/>
<path d="M100 30H84C83.2044 30 82.4413 30.3161 81.8787 30.8787C81.3161 31.4413 81 32.2044 81 33V47C81 47.7956 81.3161 48.5587 81.8787 49.1213C82.4413 49.6839 83.2044 50 84 50H100C100.796 50 101.559 49.6839 102.121 49.1213C102.684 48.5587 103 47.7956 103 47V33C103 32.2044 102.684 31.4413 102.121 30.8787C101.559 30.3161 100.796 30 100 30ZM84 32H100C100.265 32 100.52 32.1054 100.707 32.2929C100.895 32.4804 101 32.7348 101 33V42.36L96.8 39.63C96.3042 39.222 95.6821 38.999 95.04 38.999C94.3979 38.999 93.7758 39.222 93.28 39.63L83 46.7V33C83 32.7348 83.1054 32.4804 83.2929 32.2929C83.4804 32.1054 83.7348 32 84 32ZM100 48H84.56L94.56 41.16C94.6945 41.0602 94.8575 41.0062 95.025 41.0062C95.1925 41.0062 95.3555 41.0602 95.49 41.16L101 45V47C101 47.2652 100.895 47.5196 100.707 47.7071C100.52 47.8946 100.265 48 100 48Z" fill="#8D869D"/>
<path d="M87.5 38C88.3284 38 89 37.3284 89 36.5C89 35.6716 88.3284 35 87.5 35C86.6716 35 86 35.6716 86 36.5C86 37.3284 86.6716 38 87.5 38Z" fill="#8D869D"/>
<path d="M64.276 62.5455V72H65.6333V65.1538H65.721L68.5093 71.9862H69.6357L72.4241 65.1584H72.5118V72H73.8691V62.5455H72.1379L69.1279 69.8949H69.0171L66.0072 62.5455H64.276ZM76.7417 72L77.6096 69.4979H81.3027L82.166 72H83.6802L80.2779 62.5455H78.6298L75.2275 72H76.7417ZM78.025 68.2976L79.4192 64.2628H79.4931L80.8873 68.2976H78.025ZM80.361 60.1449C80.361 60.6112 80.1025 61.022 79.4561 61.022C78.8006 61.022 78.5559 60.6065 78.5559 60.1449H77.4249C77.4249 61.1836 78.2143 61.8991 79.4561 61.8991C80.7072 61.8991 81.4966 61.1836 81.4966 60.1449H80.361ZM79.4515 74.4467C79.927 74.4467 80.324 74.0774 80.324 73.625C80.324 73.1726 79.927 72.7987 79.4515 72.7987C78.9714 72.7987 78.579 73.1726 78.579 73.625C78.579 74.0774 78.9714 74.4467 79.4515 74.4467ZM83.4494 63.7734H86.3947V72H87.8166V63.7734H90.7665V62.5455H83.4494V63.7734ZM100.98 65.0291H102.356C102.315 63.5149 100.976 62.4162 99.0554 62.4162C97.158 62.4162 95.7038 63.5011 95.7038 65.1307C95.7038 66.4464 96.6456 67.2173 98.1644 67.6282L99.2816 67.9329C100.293 68.2006 101.073 68.533 101.073 69.3732C101.073 70.2965 100.191 70.9059 98.9769 70.9059C97.8782 70.9059 96.9641 70.4165 96.881 69.3871H95.4499C95.5423 71.0998 96.8672 72.157 98.9862 72.157C101.207 72.157 102.485 70.989 102.485 69.3871C102.485 67.6836 100.967 67.0234 99.7663 66.728L98.843 66.4879C98.1044 66.2987 97.1211 65.9524 97.1257 65.0476C97.1257 64.2443 97.8597 63.6488 99.0231 63.6488C100.108 63.6488 100.879 64.1566 100.98 65.0291ZM104.913 72L105.78 69.4979H109.474L110.337 72H111.851L108.449 62.5455H106.801L103.398 72H104.913ZM106.196 68.2976L107.59 64.2628H107.664L109.058 68.2976H106.196ZM119.296 62.5455V68.6484C119.296 69.9318 118.41 70.8551 116.97 70.8551C115.534 70.8551 114.643 69.9318 114.643 68.6484V62.5455H113.216V68.7638C113.216 70.7489 114.703 72.157 116.97 72.157C119.236 72.157 120.727 70.7489 120.727 68.7638V62.5455H119.296Z" fill="#8D869D"/>
</svg>
