<svg width="185" height="103" viewBox="0 0 185 103" fill="none" xmlns="http://www.w3.org/2000/svg">
<rect opacity="0.4" x="0.5" y="0.5" width="184" height="102" rx="7.5" fill="white" stroke="#8D869D"/>
<path d="M100 30H84C83.2044 30 82.4413 30.3161 81.8787 30.8787C81.3161 31.4413 81 32.2044 81 33V47C81 47.7956 81.3161 48.5587 81.8787 49.1213C82.4413 49.6839 83.2044 50 84 50H100C100.796 50 101.559 49.6839 102.121 49.1213C102.684 48.5587 103 47.7956 103 47V33C103 32.2044 102.684 31.4413 102.121 30.8787C101.559 30.3161 100.796 30 100 30ZM84 32H100C100.265 32 100.52 32.1054 100.707 32.2929C100.895 32.4804 101 32.7348 101 33V42.36L96.8 39.63C96.3042 39.222 95.6821 38.999 95.04 38.999C94.3979 38.999 93.7758 39.222 93.28 39.63L83 46.7V33C83 32.7348 83.1054 32.4804 83.2929 32.2929C83.4804 32.1054 83.7348 32 84 32ZM100 48H84.56L94.56 41.16C94.6945 41.0602 94.8575 41.0062 95.025 41.0062C95.1925 41.0062 95.3555 41.0602 95.49 41.16L101 45V47C101 47.2652 100.895 47.5196 100.707 47.7071C100.52 47.8946 100.265 48 100 48Z" fill="#8D869D"/>
<path d="M87.5 38C88.3284 38 89 37.3284 89 36.5C89 35.6716 88.3284 35 87.5 35C86.6716 35 86 35.6716 86 36.5C86 37.3284 86.6716 38 87.5 38Z" fill="#8D869D"/>
<path d="M53.5055 62.5455V72H54.8627V65.1538H54.9505L57.7388 71.9862H58.8652L61.6536 65.1584H61.7413V72H63.0985V62.5455H61.3674L58.3574 69.8949H58.2466L55.2367 62.5455H53.5055ZM65.9711 72L66.839 69.4979H70.5322L71.3955 72H72.9097L69.5074 62.5455H67.8593L64.4569 72H65.9711ZM67.2545 68.2976L68.6487 64.2628H68.7226L70.1167 68.2976H67.2545ZM69.5905 60.1449C69.5905 60.6112 69.3319 61.022 68.6856 61.022C68.0301 61.022 67.7854 60.6065 67.7854 60.1449H66.6544C66.6544 61.1836 67.4438 61.8991 68.6856 61.8991C69.9367 61.8991 70.7261 61.1836 70.7261 60.1449H69.5905ZM68.681 74.4467C69.1565 74.4467 69.5535 74.0774 69.5535 73.625C69.5535 73.1726 69.1565 72.7987 68.681 72.7987C68.2009 72.7987 67.8085 73.1726 67.8085 73.625C67.8085 74.0774 68.2009 74.4467 68.681 74.4467ZM72.6789 63.7734H75.6242V72H77.0461V63.7734H79.996V62.5455H72.6789V63.7734ZM84.5871 63.7734H87.5324V72H88.9543V63.7734H91.9042V62.5455H84.5871V63.7734ZM93.5211 72H94.9476V68.4222H96.8865C96.9189 68.4222 96.9466 68.4222 96.9789 68.4222L98.8993 72H100.524L98.4284 68.1729C99.5872 67.7436 100.164 66.7788 100.164 65.5092C100.164 63.7688 99.084 62.5455 96.8912 62.5455H93.5211V72ZM94.9476 67.1942V63.7688H96.7388C98.1468 63.7688 98.7285 64.4382 98.7285 65.5092C98.7285 66.5756 98.1468 67.1942 96.7573 67.1942H94.9476ZM110.417 62.0515C110.417 63.0579 110.228 63.695 109.411 63.8842V62.5455H107.98V68.6484C107.98 69.9318 107.094 70.8551 105.653 70.8551C104.218 70.8551 103.327 69.9318 103.327 68.6484V62.5455H101.9V68.7638C101.9 70.7489 103.387 72.157 105.653 72.157C107.92 72.157 109.411 70.7489 109.411 68.7638V64.8629C110.981 64.6737 111.558 63.6903 111.558 62.0515H110.417ZM120.651 61.9361C120.651 62.8732 120.374 63.478 119.714 63.6349C118.961 62.8455 117.923 62.4162 116.736 62.4162C114.28 62.4162 112.475 64.2489 112.475 67.2727C112.475 70.2919 114.28 72.1293 116.736 72.1293C119.183 72.1293 120.993 70.2965 120.993 67.2727C120.993 66.1694 120.753 65.2276 120.328 64.4705C121.316 64.1428 121.796 63.2564 121.796 61.9361H120.651ZM119.58 67.2727C119.58 69.5763 118.361 70.8274 116.736 70.8274C115.107 70.8274 113.892 69.5763 113.892 67.2727C113.892 64.9691 115.107 63.718 116.736 63.718C118.361 63.718 119.58 64.9691 119.58 67.2727ZM116.164 61.5991H117.267L118.698 59.4709H117.244L116.164 61.5991ZM130.865 65.62C130.542 63.598 128.958 62.4162 126.959 62.4162C124.513 62.4162 122.708 64.2489 122.708 67.2727C122.708 70.2965 124.503 72.1293 126.959 72.1293C129.037 72.1293 130.556 70.8274 130.865 68.9577L129.425 68.9531C129.18 70.1626 128.164 70.8274 126.969 70.8274C125.348 70.8274 124.125 69.5856 124.125 67.2727C124.125 64.9783 125.344 63.718 126.973 63.718C128.178 63.718 129.189 64.3967 129.425 65.62H130.865Z" fill="#8D869D"/>
</svg>
