<svg width="44" height="51" viewBox="0 0 44 51" fill="none" xmlns="http://www.w3.org/2000/svg">
<rect width="37" height="51" transform="matrix(-1 0 0 1 44 0)" fill="black" fill-opacity="0.2"/>
<path d="M22.6084 33.7125L30.6917 25.6292L22.6084 17.5459C22.4155 17.353 22.2625 17.124 22.1581 16.872C22.0537 16.62 22 16.3499 22 16.0771C22 15.8044 22.0537 15.5343 22.1581 15.2822C22.2625 15.0302 22.4155 14.8013 22.6084 14.6084C22.8013 14.4155 23.0302 14.2625 23.2822 14.1581C23.5343 14.0537 23.8044 14 24.0771 14C24.3499 14 24.62 14.0537 24.872 14.1581C25.124 14.2625 25.353 14.4155 25.5459 14.6084L35.1084 24.1709C35.9209 24.9834 35.9209 26.2959 35.1084 27.1084L25.5459 36.6709C25.3531 36.864 25.1242 37.0172 24.8722 37.1218C24.6201 37.2263 24.35 37.2801 24.0771 37.2801C23.8043 37.2801 23.5341 37.2263 23.2821 37.1218C23.03 37.0172 22.8011 36.864 22.6084 36.6709C21.8167 35.8584 21.7959 34.525 22.6084 33.7125Z" fill="white" fill-opacity="0.8"/>
</svg>
