<svg width="80" height="89" viewBox="0 0 80 89" fill="none" xmlns="http://www.w3.org/2000/svg">
<mask id="mask0" mask-type="alpha" maskUnits="userSpaceOnUse" x="0" y="0" width="80" height="89">
<rect y="0.710938" width="80" height="87.4767" rx="5" fill="#F4F3F6"/>
</mask>
<g mask="url(#mask0)">
<rect x="0.25" y="0.960938" width="79.5" height="86.9767" rx="4.75" fill="#F4F3F6" stroke="#B7B4BD" stroke-width="0.5"/>
<path d="M53.3327 28.0449H26.666C25.3399 28.0449 24.0682 28.5717 23.1305 29.5094C22.1928 30.4471 21.666 31.7188 21.666 33.0449V56.3783C21.666 57.7043 22.1928 58.9761 23.1305 59.9138C24.0682 60.8515 25.3399 61.3783 26.666 61.3783H53.3327C54.6588 61.3783 55.9305 60.8515 56.8682 59.9138C57.8059 58.9761 58.3327 57.7043 58.3327 56.3783V33.0449C58.3327 31.7188 57.8059 30.4471 56.8682 29.5094C55.9305 28.5717 54.6588 28.0449 53.3327 28.0449ZM26.666 31.3783H53.3327C53.7747 31.3783 54.1986 31.5539 54.5112 31.8664C54.8238 32.179 54.9993 32.6029 54.9993 33.0449V48.6449L47.9993 44.0949C47.173 43.415 46.1361 43.0432 45.066 43.0432C43.9959 43.0432 42.959 43.415 42.1327 44.0949L24.9993 55.8783V33.0449C24.9993 32.6029 25.1749 32.179 25.4875 31.8664C25.8001 31.5539 26.224 31.3783 26.666 31.3783ZM53.3327 58.0449H27.5993L44.266 46.6449C44.4901 46.4785 44.7619 46.3887 45.041 46.3887C45.3202 46.3887 45.5919 46.4785 45.816 46.6449L54.9993 53.0449V56.3783C54.9993 56.8203 54.8238 57.2442 54.5112 57.5568C54.1986 57.8693 53.7747 58.0449 53.3327 58.0449Z" fill="#B7B4BD"/>
<path d="M32.5 41.377C33.8807 41.377 35 40.2577 35 38.877C35 37.4962 33.8807 36.377 32.5 36.377C31.1193 36.377 30 37.4962 30 38.877C30 40.2577 31.1193 41.377 32.5 41.377Z" fill="#B7B4BD"/>
</g>
</svg>
