<svg width="45" height="51" viewBox="0 0 45 51" fill="none" xmlns="http://www.w3.org/2000/svg">
<rect x="1" width="37" height="51" fill="black" fill-opacity="0.2"/>
<path d="M23.3916 33.7125L15.3083 25.6292L23.3916 17.5459C23.5845 17.353 23.7375 17.124 23.8419 16.872C23.9463 16.62 24 16.3499 24 16.0771C24 15.8044 23.9463 15.5343 23.8419 15.2822C23.7375 15.0302 23.5845 14.8013 23.3916 14.6084C23.1987 14.4155 22.9698 14.2625 22.7178 14.1581C22.4657 14.0537 22.1956 14 21.9229 14C21.6501 14 21.38 14.0537 21.128 14.1581C20.876 14.2625 20.647 14.4155 20.4541 14.6084L10.8916 24.1709C10.0791 24.9834 10.0791 26.2959 10.8916 27.1084L20.4541 36.6709C20.6469 36.864 20.8758 37.0172 21.1278 37.1218C21.3799 37.2263 21.65 37.2801 21.9229 37.2801C22.1957 37.2801 22.4659 37.2263 22.7179 37.1218C22.97 37.0172 23.1989 36.864 23.3916 36.6709C24.1833 35.8584 24.2041 34.525 23.3916 33.7125Z" fill="white" fill-opacity="0.8"/>
</svg>
