<svg width="100" height="100" viewBox="0 0 100 100" fill="none" xmlns="http://www.w3.org/2000/svg">
<path d="M52.2535 21.3438C50.8113 21.3438 49.7296 22.4254 49.7296 23.8677C49.7296 25.3099 50.8113 26.2114 52.2535 26.2114C65.9549 26.2114 77.1324 37.3888 77.1324 51.0902C77.1324 64.7916 65.9549 75.9691 52.2535 75.9691C38.5521 75.9691 27.5549 64.9719 27.3746 51.2705H31.1606L24.4901 41.355L18 51.2705H22.507C22.507 67.6761 35.8479 80.8367 52.2535 80.8367C68.6592 80.8367 82 67.4959 82 51.0902C82 34.6846 68.6592 21.3438 52.2535 21.3438Z" fill="#885DE5"/>
<circle cx="36" cy="31" r="11" fill="white"/>
<path d="M35.8465 19C29.176 19 23.7676 24.4085 23.7676 30.8986C23.7676 37.569 29.176 42.9775 35.8465 42.9775C42.5169 42.9775 47.745 37.569 47.745 30.8986C47.745 24.2282 42.3366 19 35.8465 19ZM44.1394 27.4732L35.1253 36.4873C34.7648 36.8479 34.4042 37.0282 34.0436 37.0282C33.6831 37.0282 33.1422 36.8479 32.9619 36.4873L27.5535 31.0789C26.8324 30.3577 26.8324 29.4563 27.5535 28.7352C28.2746 28.0141 29.176 28.0141 29.8972 28.7352L34.0436 32.8817L41.7957 25.1296C42.5169 24.4085 43.4183 24.4085 44.1394 25.1296C44.6803 25.8507 44.6803 26.9324 44.1394 27.4732Z" fill="#F0A616"/>
<path d="M49.7285 39.5529V52.5331L42.6975 59.5641C41.7961 60.4655 41.7961 62.0881 42.6975 62.9895C43.2384 63.5303 43.7792 63.7106 44.5004 63.7106C45.2215 63.7106 45.7623 63.5303 46.3032 62.9895L54.0553 55.2374C54.5961 54.6965 54.7764 54.1557 54.7764 53.4345V39.3726C54.7764 37.9303 53.6947 36.8486 52.2525 36.8486C50.8102 37.0289 49.7285 38.2909 49.7285 39.5529Z" fill="#F0A616"/>
<path d="M52.254 69.658C42.1583 69.658 33.8653 61.3651 33.8653 51.2693C33.8653 50.7284 33.5048 50.3679 32.9639 50.3679C32.4231 50.3679 32.0625 50.7284 32.0625 51.2693C32.0625 62.2665 41.0766 71.2806 52.254 71.2806C63.4315 71.2806 72.4456 62.2665 72.4456 51.089C72.4456 39.9115 63.4315 30.8975 52.254 30.8975C51.7132 30.8975 51.3526 31.258 51.3526 31.7989C51.3526 32.3397 51.7132 32.7003 52.254 32.7003C62.3498 32.7003 70.6428 40.9932 70.6428 51.089C70.6428 61.3651 62.3498 69.658 52.254 69.658Z" fill="#885DE5"/>
</svg>
