<svg width="26" height="26" viewBox="0 0 26 26" fill="none" xmlns="http://www.w3.org/2000/svg">
<path d="M13.6493 4.47323H5.72985C5.51637 4.47323 5.34336 4.29627 5.34336 4.07792C5.34336 3.85957 5.51642 3.68262 5.72985 3.68262H13.6493C13.8628 3.68262 14.0358 3.85957 14.0358 4.07792C14.0358 4.29627 13.8628 4.47323 13.6493 4.47323Z" fill="#885DE5"/>
<path d="M6.07968 7.37095H2.00327C1.78979 7.37095 1.61677 7.19399 1.61677 6.97564C1.61677 6.75729 1.78984 6.58033 2.00327 6.58033H6.07968C6.29317 6.58033 6.46618 6.75729 6.46618 6.97564C6.46618 7.19399 6.29317 7.37095 6.07968 7.37095Z" fill="#885DE5"/>
<path d="M5.93993 10.0648H4.32966C4.11618 10.0648 3.94316 9.88785 3.94316 9.6695C3.94316 9.45115 4.11623 9.27419 4.32966 9.27419H5.93998C6.15347 9.27419 6.32648 9.45115 6.32648 9.6695C6.32648 9.88785 6.15342 10.0648 5.93993 10.0648Z" fill="#885DE5"/>
<path d="M4.32966 12.0157H0.386496C0.173012 12.0157 0 11.8387 0 11.6204C0 11.402 0.173063 11.2251 0.386496 11.2251H4.32961C4.54309 11.2251 4.71611 11.402 4.71611 11.6204C4.71611 11.8387 4.54309 12.0157 4.32966 12.0157Z" fill="#885DE5"/>
<path d="M14.1647 22.3173H5.72985C5.51637 22.3173 5.34336 22.1403 5.34336 21.9219C5.34336 21.7035 5.51642 21.5266 5.72985 21.5266H14.1647C14.3782 21.5266 14.5512 21.7035 14.5512 21.9219C14.5512 22.1402 14.3782 22.3173 14.1647 22.3173Z" fill="#885DE5"/>
<path d="M6.07968 19.4195H2.00327C1.78979 19.4195 1.61677 19.2426 1.61677 19.0242C1.61677 18.8059 1.78984 18.6289 2.00327 18.6289H6.07968C6.29317 18.6289 6.46618 18.8058 6.46618 19.0242C6.46618 19.2426 6.29317 19.4195 6.07968 19.4195Z" fill="#885DE5"/>
<path d="M5.93993 16.7257H4.32966C4.11618 16.7257 3.94316 16.5487 3.94316 16.3303C3.94316 16.1119 4.11623 15.935 4.32966 15.935H5.93998C6.15347 15.935 6.32648 16.112 6.32648 16.3303C6.32648 16.5487 6.15342 16.7257 5.93993 16.7257Z" fill="#885DE5"/>
<path d="M4.32966 14.7749H0.386496C0.173012 14.7749 0 14.5979 0 14.3796C0 14.1612 0.173063 13.9842 0.386496 13.9842H4.32961C4.54309 13.9842 4.71611 14.1612 4.71611 14.3796C4.71611 14.598 4.54309 14.7749 4.32966 14.7749Z" fill="#885DE5"/>
<path d="M13 22.75C18.3848 22.75 22.75 18.3848 22.75 13C22.75 7.61522 18.3848 3.25 13 3.25C7.61522 3.25 3.25 7.61522 3.25 13C3.25 18.3848 7.61522 22.75 13 22.75Z" fill="#885DE5"/>
<path d="M16.3902 17.225C16.1767 17.225 15.9629 17.1439 15.7998 16.9816L12.432 13.6066C12.106 13.2819 12.106 12.7556 12.432 12.4309C12.7581 12.1064 13.2866 12.1064 13.6127 12.4309L16.9805 15.8059C17.3065 16.1306 17.3065 16.6569 16.9805 16.9816C16.8175 17.1439 16.6039 17.225 16.3902 17.225Z" fill="white"/>
<path d="M13.0001 13.8125C12.5513 13.8125 12.1875 13.4671 12.1875 13.0408V7.27171C12.1875 6.84545 12.5512 6.5 13.0001 6.5C13.4489 6.5 13.8125 6.84545 13.8125 7.27171V13.0407C13.8125 13.4669 13.4488 13.8125 13.0001 13.8125Z" fill="white"/>
</svg>
