<svg width="333" height="189" viewBox="0 0 333 189" fill="none" xmlns="http://www.w3.org/2000/svg">
<g filter="url(#filter0_d_5184_768)">
<rect x="8" y="8" width="317" height="173" rx="10" fill="white"/>
<path d="M325 169.22C324.99 172.341 323.552 175.331 321 177.538C318.447 179.745 314.987 180.99 311.376 181H21.6328C18.0208 180.99 14.5601 179.745 12.0061 177.538C9.45202 175.332 8.01189 172.341 8 169.22V19.7719C8.01191 16.6516 9.45232 13.6622 12.0066 11.4565C14.561 9.25086 18.0216 8.00822 21.6328 8L311.376 8C314.987 8.00823 318.446 9.25112 320.999 11.457C323.552 13.6629 324.99 16.6523 325 19.7719V169.22Z" fill="white"/>
<path fill-rule="evenodd" clip-rule="evenodd" d="M57.9343 103.313C57.9328 104.555 57.4385 105.747 56.5598 106.625C55.6811 107.504 54.4897 107.999 53.247 108H29.8104C28.5672 108 27.375 107.506 26.4959 106.627C25.6169 105.748 25.123 104.556 25.123 103.313V86.6817C25.123 86.0664 25.2443 85.4572 25.48 84.8888C25.7156 84.3204 26.0609 83.8041 26.4963 83.3692C26.9316 82.9344 27.4484 82.5897 28.017 82.3548C28.5857 82.1198 29.1951 81.9993 29.8104 82H53.247C54.4892 82 55.6806 82.4931 56.5594 83.3709C57.4383 84.2487 57.9328 85.4395 57.9343 86.6817V103.313Z" fill="#F0A616"/>
<g style="mix-blend-mode:multiply">
<path d="M57.9343 90.1915V89.5887H51.9231V82H51.3202V89.5887H46.4526C46.1362 88.5787 45.5284 87.6847 44.7054 87.0192C43.8824 86.3536 42.8811 85.9461 41.8273 85.8479V82H41.2301V85.8028C40.0992 85.8243 39.0038 86.2017 38.0996 86.8814C37.1954 87.561 36.5285 88.5083 36.1935 89.5887H31.7709V82H31.1738V89.5887H25.123V90.1915H31.1738V98.6986H25.123V99.2958H31.1738V108H31.7709V99.2958H36.0752C36.3432 100.471 36.9971 101.522 37.9325 102.282C38.8679 103.041 40.0308 103.466 41.2357 103.487V107.994H41.8329V103.448C42.9603 103.342 44.0257 102.884 44.8782 102.139C45.7307 101.394 46.3269 100.399 46.5822 99.2958H51.3259V108H51.9287V99.2958H57.9343V98.6986H54.3512V90.1915H57.9343ZM35.9625 98.6986H31.7709V90.1915H36.0245C35.8701 90.975 35.8959 91.7833 36.0999 92.5553C36.3039 93.3274 36.6807 94.0429 37.2019 94.6479C36.3846 95.6109 35.9354 96.8327 35.9343 98.0958C35.9398 98.2975 35.9567 98.4988 35.985 98.6986H35.9625ZM41.3033 102.896C40.369 102.902 39.4534 102.634 38.6699 102.124C37.8864 101.615 37.2694 100.888 36.8952 100.031C36.5211 99.1752 36.4062 98.228 36.5649 97.3072C36.7235 96.3864 37.1487 95.5323 37.7878 94.8507L37.9738 94.6479L37.7878 94.4451C37.1488 93.7606 36.7236 92.9043 36.5647 91.9815C36.4057 91.0587 36.5197 90.1095 36.8929 89.2506C37.266 88.3917 37.882 87.6606 38.665 87.1471C39.4481 86.6335 40.3641 86.3599 41.3005 86.3599C42.2369 86.3599 43.153 86.6335 43.936 87.1471C44.7191 87.6606 45.335 88.3917 45.7081 89.2506C46.0813 90.1095 46.1954 91.0587 46.0364 91.9815C45.8774 92.9043 45.4522 93.7606 44.8132 94.4451L44.6273 94.6479L44.8132 94.8507C45.6388 95.7299 46.0999 96.8897 46.1033 98.0958C46.1019 99.3645 45.5988 100.581 44.7038 101.48C43.8088 102.38 42.5945 102.888 41.3259 102.896H41.3033ZM53.7259 98.6986H46.6611C46.6932 98.499 46.7138 98.2977 46.7231 98.0958C46.722 96.8327 46.2728 95.6109 45.4554 94.6479C45.9747 94.0419 46.3495 93.3259 46.5515 92.5539C46.7535 91.782 46.7775 90.9742 46.6216 90.1915H53.7484L53.7259 98.6986Z" fill="#FFD37E"/>
</g>
<g opacity="0.2">
<path opacity="0.5" d="M65.1869 81.7245C64.6732 81.5262 64.9346 82.4906 64.4299 82.6258C63.9252 82.761 63.3213 83.0403 63.7269 83.1665C64.2096 83.2559 64.7083 83.1696 65.1329 82.9232C65.241 82.7339 65.3492 81.7876 65.1869 81.7245Z" fill="#C5B2F7"/>
<path opacity="0.5" d="M61.3119 83.0315C60.7081 82.9774 60.1042 83.0315 59.9961 83.2658C59.8879 83.5001 60.5549 83.6894 60.9604 83.6894C61.366 83.6894 62.1681 83.392 62.0149 83.3379L61.3119 83.0315Z" fill="#C5B2F7"/>
<path opacity="0.5" d="M64.6381 77.8492C64.4398 77.9303 64.9896 78.3179 65.1969 78.3179C65.4042 78.3179 65.7557 77.6689 65.3501 77.6689C64.9445 77.6689 65.1879 77.6689 64.6381 77.8492Z" fill="#C5B2F7"/>
<path opacity="0.5" d="M66.4036 72.9642L66.71 73.2616C67.0689 73.5453 67.5061 73.712 67.9627 73.7393C68.4224 73.7933 68.4224 73.4419 68.0709 73.0813C67.9791 72.9698 67.8634 72.8803 67.7324 72.8194C67.6013 72.7586 67.4583 72.728 67.3138 72.7299C66.9894 72.6668 66.9894 72.3243 66.1512 72.3243C65.313 72.3243 65.4482 71.8556 65.3491 71.6123C65.2499 71.3689 66.0521 71.4861 66.2503 71.5492C66.4486 71.6123 67.2598 70.8372 67.2598 70.8372C67.2598 70.8372 68.5756 70.2424 68.7288 70.3595C68.882 70.4767 69.6301 70.2424 69.9906 70.1252C70.3511 70.008 70.5404 69.3411 70.5404 69.3411C70.8079 69.4541 71.05 69.6196 71.2524 69.8278C71.4957 70.1252 72.0545 69.8278 72.2077 69.8278C72.5296 69.9878 72.832 70.1844 73.109 70.4136C73.109 70.4136 74.1094 70.4136 74.515 70.3595C75.1392 70.2876 75.7705 70.3058 76.3896 70.4136C77.1885 70.5474 77.9954 70.6287 78.805 70.6569C79.4061 70.8545 80.039 70.937 80.6706 70.9003C80.8557 70.8385 81.0528 70.8219 81.2456 70.8517C81.4384 70.8814 81.6213 70.9568 81.7792 71.0715C81.8951 71.1002 82.0042 71.1515 82.1002 71.2227C82.1961 71.2939 82.2769 71.3834 82.3379 71.4861C82.5903 71.8556 82.8336 71.5492 83.1942 71.3149C83.5547 71.0805 83.4916 70.8372 83.4916 70.8372L83.798 70.7741C84.0954 70.711 84.3027 70.9003 85.1589 70.9544C86.0151 71.0084 85.8168 70.7741 86.4207 70.5398C87.0245 70.3054 87.6284 70.8372 87.8357 70.7741C88.043 70.711 88.2863 70.2424 88.4395 70.4767C88.5927 70.711 88.8451 71.1887 88.8451 71.1887C88.8451 71.1887 89.494 70.5939 89.7013 70.5939C90.0781 70.6958 90.465 70.7563 90.8549 70.7741C91.5367 70.6695 92.2341 70.7504 92.8737 71.0084C93.1802 71.3149 93.9282 71.2518 94.3338 71.5492C94.7394 71.8466 95.1449 71.3149 94.9467 71.1887C94.6953 71.0078 94.4574 70.809 94.2347 70.5939C94.2347 70.5939 93.4776 69.5304 93.3785 69.3411C93.2793 69.1518 93.1261 69.1698 92.9278 69.6385C92.7295 70.1072 91.9725 70.1252 91.1253 70.1793C90.2781 70.2333 90.8279 69.7016 89.8725 69.6385C88.9172 69.5754 89.2597 69.1699 89.5661 69.1699C89.8725 69.1699 90.0708 68.4488 90.1699 68.0343C90.2691 67.6197 90.6206 67.6828 91.3326 67.7368C91.8699 67.7053 92.4086 67.7053 92.9459 67.7368C93.6488 67.854 93.6038 67.3853 94.3068 67.4394C95.0097 67.4935 94.6583 67.6197 95.0638 67.9171C95.4694 68.2145 95.7217 68.1514 96.2715 68.4488C96.8213 68.7463 96.632 68.7553 96.8844 68.8093C97.4229 68.7898 97.9592 68.7296 98.4886 68.6291C98.9933 68.566 99.3899 68.5119 99.6513 68.8634C99.9126 69.2149 99.8586 69.6385 100.21 69.9449C100.562 70.2514 100.003 68.8634 100.003 68.3948C100.003 67.9261 100.715 68.3317 101.165 68.3317C101.616 68.3317 102.13 68.1514 102.229 68.3948C102.328 68.6381 101.571 68.9896 102.022 69.5304C102.472 70.0711 102.779 70.2424 103.184 70.2424C103.59 70.2424 104.491 70.3595 104.086 71.0084C103.68 71.6573 102.625 71.6123 102.283 71.6123C101.94 71.6123 101.328 71.8556 101.481 72.2071C101.634 72.5586 102.436 72.3784 102.995 72.3784C103.894 72.4673 104.8 72.4673 105.699 72.3784C106.149 72.2071 106.05 71.4771 105.546 71.3149C105.041 71.1526 105.446 70.7741 105.951 70.9003C106.456 71.0265 106.961 70.711 106.852 70.9003C106.744 71.0895 106.906 71.4861 106.906 71.9638C106.906 72.4414 107.06 72.7479 107.411 72.6217C107.655 72.5163 107.909 72.4348 108.168 72.3784C108.52 72.3243 108.321 71.3149 108.114 70.7741C107.92 70.4204 107.818 70.0238 107.817 69.6205C107.817 69.3231 108.421 69.269 108.718 69.5664C108.973 69.8498 109.208 70.1509 109.421 70.4677C109.756 70.7004 110.031 71.0093 110.223 71.3689C110.421 71.8556 110.475 71.7294 110.881 71.432C111.287 71.1346 111.386 71.1887 111.782 71.4861C112.179 71.7835 111.89 72.3874 111.89 72.5586C111.89 72.7299 112.395 72.5586 112.494 72.2071C112.593 71.8556 112.99 71.8556 113.251 71.7294C113.513 71.6033 113.504 70.9003 113.504 70.9003C113.075 70.7862 112.63 70.7436 112.188 70.7741C111.939 70.8173 111.683 70.7962 111.445 70.7125C111.207 70.6289 110.994 70.4857 110.827 70.2964C110.322 69.8819 110.629 69.5844 110.376 69.1699C110.124 68.7553 111.178 68.5119 111.836 68.1514C112.494 67.7909 113.143 68.0343 112.99 68.9265C112.837 69.8188 112.747 69.7016 113.504 69.5304C114.261 69.3591 113.45 68.566 113.801 68.5119C114.316 68.3967 114.842 68.3363 115.369 68.3317C115.667 68.3948 117.334 68.1514 117.74 68.1514C118.289 68.2724 118.803 68.5158 119.245 68.8634C119.704 69.1699 120.912 69.5844 121.219 69.7647C122.082 70.0078 122.957 70.2064 123.841 70.3595C124.04 70.4136 124.04 71.1346 124.247 71.7294C124.454 72.3243 125.004 71.9097 125.202 71.9097C125.632 72.0361 126.017 72.2832 126.311 72.6217C126.518 72.9191 128.023 73.1625 128.023 73.1625C128.023 73.1625 127.672 73.6942 127.518 73.8745C127.264 74.0704 126.996 74.2481 126.716 74.4062C126.419 74.6495 126.058 74.3521 125.653 74.0547C125.247 73.7573 124.544 73.577 124.391 73.6942C124.238 73.8114 124.346 74.0547 124.445 74.226C124.544 74.3972 125.202 74.6496 125.608 75.0101C126.013 75.3706 125.905 75.7221 125.959 76.1997C126.013 76.6774 125.554 76.0195 125.058 75.9023C124.562 75.7851 124.508 76.38 124.508 76.38C124.508 76.38 123.85 76.3169 123.544 76.3169C123.237 76.3169 123.544 76.3169 122.994 75.8392C122.444 75.3616 122.534 76.1366 122.237 75.9023C121.94 75.668 121.633 75.3075 121.48 75.4246C121.327 75.5418 120.822 74.8839 120.516 74.947C120.209 75.0101 119.01 74.7667 118.713 74.8839C118.416 75.001 118.163 75.0101 117.902 75.1272C117.641 75.2444 117.559 74.289 117.704 74.0006C117.848 73.7122 118.208 73.6401 118.866 73.8114C119.524 73.9826 119.569 73.8114 119.722 73.514C119.815 73.3069 119.954 73.1241 120.129 72.9802C120.304 72.8363 120.511 72.7351 120.732 72.6848C121.435 72.4414 120.678 72.2702 120.48 72.144C120.281 72.0179 120.029 71.7835 119.876 72.144C119.74 72.4221 119.57 72.6824 119.371 72.9191C119.371 72.9191 118.965 72.9191 118.407 72.865C117.848 72.811 118.262 72.5586 118.515 72.4414C118.767 72.3243 119.065 71.6123 118.812 71.432C118.712 71.3249 118.582 71.2504 118.439 71.2183C118.296 71.1861 118.146 71.1978 118.01 71.2518C117.559 71.3689 117.857 70.8372 117.559 70.6569C117.262 70.4767 117.352 70.7741 117.352 71.0084C117.352 71.2428 116.902 71.1887 116.902 71.1887C116.583 71.1278 116.256 71.1278 115.937 71.1887C115.685 71.3149 115.234 71.5492 115.387 71.7294C115.541 71.9097 116.036 71.9097 116.189 72.4414C116.343 72.9732 115.532 73.0994 115.387 73.1625L114.63 73.4599C114.269 73.3551 113.897 73.2945 113.522 73.2796C113.008 73.2796 112.864 73.3427 112.963 73.577C113.062 73.8114 113.314 73.6942 113.468 73.6942C113.621 73.6942 113.621 74.0006 114.072 73.8745C114.522 73.7483 114.423 73.577 114.829 74.0547C115.234 74.5324 115.631 74.4693 116.289 74.8839C116.947 75.2985 116.189 75.7851 115.838 75.7851C115.487 75.7851 115.487 75.4246 115.288 75.0731C115.09 74.7217 114.279 75.1272 114.279 75.1272C113.972 75.3292 113.629 75.47 113.269 75.5418C112.909 75.5418 112.657 75.4787 113.116 75.0731C113.576 74.6676 112.557 74.5865 112.557 74.0006C112.557 73.4148 112.359 74.5865 112.359 74.9019C112.359 75.2173 111.954 74.965 111.097 75.0912C110.241 75.2173 110.394 75.5598 109.295 76.398C108.195 77.2362 107.925 77.4074 108.033 78.2005C108.141 78.9937 108.385 78.7323 108.835 78.8585C109.286 78.9846 109.142 79.8679 109.493 79.7597C109.845 79.6516 110.106 79.3992 110.8 79.8228C111.385 80.1881 112.038 80.4304 112.72 80.5348C113.621 80.7151 114.135 81.0125 114.585 80.8953C115.036 80.7782 115.342 80.9584 115.342 81.373C115.342 81.7876 115.64 81.8507 115.595 82.3824C115.55 82.9142 116.153 81.9047 116.153 81.9047C116.153 81.9047 116.406 82.806 116.153 82.9232C115.901 83.0403 116.208 83.5811 116.46 83.518C116.712 83.4549 117.064 83.6983 117.361 83.4008C117.659 83.1034 117.208 82.2112 117.208 81.8507C117.208 81.4902 116.902 81.3189 116.748 80.9494C116.595 80.5799 117.154 80.5258 117.361 80.8863C117.568 81.2468 117.911 80.9494 118.262 80.643C118.483 80.4228 118.609 80.1254 118.614 79.8138C118.333 79.3595 117.973 78.9596 117.55 78.6331C117.091 78.3898 117.298 78.3267 117.749 78.2186C118.199 78.1104 117.749 77.9121 117.848 77.2632C117.947 76.6143 117.956 76.1907 118.208 76.1907C118.844 76.1031 119.486 76.061 120.128 76.0645C120.876 76.1276 121.237 76.7856 121.741 76.8396C122.246 76.8937 123.048 77.0289 123.201 77.3263C123.355 77.6237 122.643 77.6778 122.994 78.1555C123.166 78.4388 123.435 78.6502 123.751 78.7503C124.103 78.9306 124.508 78.8134 124.968 78.1014C125.427 77.3894 125.617 77.3263 125.77 77.4435C125.923 77.5606 126.879 78.8675 127.131 79.1739C127.471 79.5385 127.746 79.9593 127.942 80.4177C127.987 80.7151 128.699 80.7151 128.897 80.7151C129.355 80.9233 129.728 81.283 129.952 81.7335C130.06 82.094 130.258 82.2112 130.916 82.3824C131.574 82.5537 130.916 83.2206 130.763 83.5811C130.61 83.9416 130.511 84.0588 130.312 84.4824C130.114 84.906 130.312 84.4824 130.565 84.6626C130.817 84.8429 130.916 85.0862 131.322 84.969C131.394 84.9329 131.474 84.9137 131.554 84.9129C131.635 84.9121 131.715 84.9298 131.788 84.9645C131.861 84.9993 131.925 85.0502 131.976 85.1135C132.026 85.1767 132.061 85.2506 132.079 85.3296C132.223 85.6811 132.43 85.9785 132.584 86.2308C132.737 86.4832 132.584 87.0059 132.376 86.7085C132.169 86.4111 131.475 86.5823 131.475 86.5823C131.475 86.5823 131.169 86.9428 131.078 86.7716C131.026 86.6483 130.93 86.5492 130.808 86.4941C130.686 86.439 130.547 86.4318 130.421 86.4742C130.05 86.5202 129.676 86.5383 129.303 86.5282C128.906 86.5823 128.753 86.2849 129.006 86.0506C129.258 85.8162 129.303 84.924 129.817 84.5635C130.33 84.203 130.168 83.6622 129.817 83.6622C129.465 83.6622 129.303 84.194 129.105 84.3201C128.766 84.4004 128.443 84.5375 128.149 84.7257C127.789 85.0321 126.942 84.915 127.293 85.0321C127.645 85.1493 126.788 85.627 126.482 85.627C126.176 85.627 126.284 84.8519 126.284 84.5545C126.284 84.257 125.878 84.7257 125.878 84.7257C125.878 84.7257 125.067 84.194 124.77 84.5545C124.472 84.915 124.012 85.0952 123.661 85.4557C123.295 85.7959 122.91 86.1149 122.507 86.4111C122.793 86.2568 123.095 86.1358 123.409 86.0506C123.784 85.9814 124.142 85.8407 124.463 85.636C124.968 85.3386 125.473 85.2214 125.824 85.7532C125.876 85.8145 125.913 85.8864 125.934 85.9638C125.955 86.0413 125.959 86.1223 125.945 86.2013C125.931 86.2803 125.9 86.3554 125.855 86.4212C125.809 86.487 125.749 86.542 125.68 86.5823C125.773 86.7907 125.908 86.9777 126.076 87.1321C126.284 87.2493 126.338 87.0059 126.689 86.7716C127.041 86.5373 126.888 87.2493 126.987 87.4836C127.086 87.7179 127.437 87.7179 127.645 87.4205C127.852 87.1231 127.996 86.8887 128.149 87.06C128.341 87.3795 128.492 87.7216 128.6 88.0784C128.753 88.493 127.545 88.6192 127.338 88.6733C127.131 88.7273 126.185 88.9707 126.031 89.0338C125.878 89.0969 125.373 89.6286 124.968 89.6286C124.562 89.6286 124.616 88.9166 124.562 88.493C124.508 88.0694 124.013 88.5561 123.958 88.7273C123.904 88.8986 123.454 88.8535 123.102 88.9166C122.751 88.9797 122.147 89.3943 122.147 89.8179C122.147 90.2415 122.598 90.5389 122.444 90.7822C122.029 91.0598 121.521 91.1633 121.029 91.0706C120.687 90.9535 120.182 91.2509 120.335 91.4852C120.489 91.7195 120.335 92.0891 120.029 92.026C119.722 91.9629 119.623 92.3865 119.777 92.6839C119.93 92.9813 119.317 93.5852 119.164 93.3328C119.01 93.0804 118.713 92.9813 118.713 93.3328C118.725 93.7446 118.867 94.142 119.119 94.4684C119.425 94.9461 118.461 95.2435 118.109 95.604C117.486 96.2749 116.794 96.879 116.045 97.4065C115.938 97.4719 115.846 97.5588 115.775 97.6618C115.704 97.7647 115.655 97.8813 115.631 98.0043C115.607 98.1273 115.609 98.2538 115.637 98.3759C115.665 98.498 115.718 98.6129 115.793 98.7134C116.089 99.3475 116.325 100.008 116.496 100.687C116.649 101.102 116.442 102.291 115.991 102.237C115.541 102.183 115.793 101.462 115.333 101.282C114.874 101.102 114.63 100.029 114.531 99.3082C114.432 98.5872 114.324 99.0198 114.026 99.2541C113.729 99.4884 113.423 98.7765 113.269 98.5962C113.116 98.4159 112.26 98.7134 111.647 98.6593C111.034 98.6052 110.845 98.9567 110.845 99.137C110.845 99.3172 110.746 99.849 110.187 99.4884C110.02 99.352 109.826 99.2505 109.619 99.1902C109.411 99.1298 109.194 99.1117 108.979 99.137C108.43 99.137 107.925 99.0739 107.817 99.3082C107.577 99.7024 107.226 100.016 106.807 100.209C106.456 100.327 105.807 100.921 106.104 101.048C106.402 101.174 106.411 101.994 106.203 102.472C106.049 103.178 106.049 103.91 106.203 104.617C106.369 105.399 106.815 106.094 107.456 106.572C108.015 107.113 108.222 107.293 108.772 106.816C109.322 106.338 109.529 106.635 109.673 106.699C109.818 106.762 110.223 106.392 110.079 105.869C110.034 105.763 110.016 105.647 110.027 105.532C110.038 105.418 110.078 105.307 110.142 105.212C110.207 105.116 110.294 105.038 110.396 104.984C110.498 104.931 110.612 104.903 110.728 104.905C111.187 104.968 111.845 104.725 112.197 104.788C112.548 104.851 112.747 105.987 112.197 106.455C111.647 106.924 111.945 107.645 111.845 108.186C111.746 108.726 111.287 108.844 111.845 108.844C112.404 108.844 112.242 108.961 112.593 109.015C112.945 109.069 113.305 108.663 113.657 108.6C114.008 108.537 114.919 109.502 114.766 109.979C114.565 110.654 114.479 111.358 114.513 112.061C114.517 112.446 114.64 112.821 114.865 113.134C114.973 113.368 115.369 113.909 115.829 113.665C116.222 113.52 116.58 113.296 116.883 113.007C117.037 112.773 117.992 113.431 117.893 113.611C117.794 113.792 118.244 113.963 118.551 113.783C118.857 113.602 119.001 113.314 119.308 112.836C119.556 112.416 119.927 112.083 120.371 111.881C120.615 111.827 121.228 111.106 121.633 111.223C122.039 111.34 121.471 111.944 121.426 112.304C121.381 112.665 121.426 113.665 121.633 113.728C121.84 113.792 121.732 113.007 121.976 112.476C122.066 112.267 122.205 112.082 122.38 111.936C122.556 111.79 122.763 111.688 122.985 111.638C123.237 111.638 123.445 112.89 123.796 112.539C124.148 112.187 124.851 112.25 125.004 112.602C125.08 112.794 125.18 112.975 125.301 113.143C125.448 112.998 125.54 112.807 125.563 112.602C125.563 112.313 126.374 112.007 126.87 112.359C127.365 112.71 127.176 112.845 127.428 112.899C127.681 112.953 127.933 112.124 128.077 112.07C128.221 112.016 128.077 112.971 127.726 113.557C127.374 114.143 128.032 113.918 128.032 113.918L128.185 114.098C128.339 114.278 128.834 113.918 129.087 114.278C129.339 114.639 129.645 114.747 129.943 115.405C130.24 116.063 130.7 115.882 131.304 115.756C131.702 115.763 132.092 115.871 132.437 116.069C132.782 116.268 133.072 116.551 133.278 116.892C133.872 117.667 133.773 118.271 134.179 118.271C134.584 118.271 134.683 118.92 134.683 119.172C134.683 119.424 133.782 119.938 133.278 120.073C132.773 120.209 132.773 120.785 133.575 120.605C134.377 120.425 134.026 120.073 134.53 119.893C135.035 119.713 135.54 120.127 135.089 120.794C134.638 121.461 133.728 121.578 134.53 121.696C135.332 121.813 134.891 121.578 135.341 120.857C135.792 120.136 135.747 120.389 136.044 120.389C136.48 120.409 136.901 120.55 137.261 120.794C137.513 121.038 138.162 121.398 138.568 121.696C138.749 121.805 138.954 121.867 139.165 121.877C139.376 121.886 139.586 121.843 139.776 121.75C140.073 121.633 140.938 122.11 141.245 122.588C141.551 123.066 142.299 123.129 142.651 123.3C142.904 123.471 143.12 123.692 143.286 123.95C143.451 124.207 143.563 124.495 143.615 124.796C143.493 125.531 143.291 126.25 143.011 126.941C142.595 127.726 142.046 128.434 141.389 129.032C140.632 129.735 141.091 130.573 141.146 130.925C141.2 131.276 140.632 132.592 140.785 132.898C140.938 133.205 140.587 133.845 140.28 134.268C140.014 134.77 139.779 135.287 139.577 135.818C139.379 136.17 138.721 136.053 138.117 136.233C137.805 136.32 137.503 136.441 137.216 136.594C136.639 136.916 136.082 137.274 135.549 137.666C134.945 138.144 135.756 138.973 135.441 139.631C135.125 140.289 134.846 140.226 134.539 141.001C134.233 141.776 134.089 141.118 133.836 141.298C133.549 141.603 133.388 142.006 133.386 142.425C133.332 142.911 132.827 143.38 132.169 144.092C131.511 144.804 131.114 144.696 130.366 144.453C129.618 144.209 129.763 142.19 129.663 142.488C129.58 143.003 129.598 143.53 129.718 144.038C129.879 144.41 130.098 144.753 130.366 145.056C130.619 145.228 130.574 145.525 130.366 145.823C130.159 146.12 129.618 147.201 129.411 147.256C128.736 147.418 128.037 147.458 127.347 147.373C127.041 147.201 126.888 147.796 126.942 148.157C126.996 148.517 127.248 148.923 126.689 148.806C126.13 148.689 125.373 148.274 125.373 148.562C125.373 148.851 125.527 149.518 125.833 149.518C126.139 149.518 126.437 149.283 126.284 149.698C126.109 150.071 125.85 150.398 125.527 150.653C125.241 151.075 124.921 151.473 124.571 151.843C124.067 152.258 124.067 152.492 124.166 152.681C124.265 152.87 125.022 152.735 125.175 152.852C125.328 152.97 125.022 153.808 124.824 153.988C124.625 154.168 123.76 154.997 123.409 155.241C123.057 155.484 123.057 156.196 123.156 156.557C123.466 157.151 123.938 157.645 124.517 157.981C124.977 158.161 125.932 158.098 125.833 158.278C125.734 158.458 124.616 158.63 124.472 158.693C124.033 158.848 123.575 158.948 123.111 158.99C122.706 158.99 121.949 158.521 121.795 158.521C121.642 158.521 121.895 158.278 122.399 157.8C122.904 157.323 122.201 156.782 122.102 157.44C122.003 158.098 121.795 158.278 121.543 158.278C121.291 158.278 120.984 157.863 120.84 157.674C120.696 157.485 120.029 157.332 120.137 156.611C120.245 155.89 119.831 155.953 119.524 155.655C119.218 155.358 119.93 155.124 119.831 154.817C119.731 154.511 119.272 154.7 119.218 154.285C119.164 153.871 119.623 153.267 119.677 153.096C119.731 152.925 119.371 152.555 119.326 152.258C119.281 151.96 119.524 151.663 119.876 151.185C120.165 150.819 120.371 150.395 120.48 149.941C120.372 149.508 120.291 149.069 120.236 148.625C120.236 148.157 120.48 147.968 120.588 147.31C120.696 146.652 120.236 146.904 120.236 146.354C120.236 145.805 120.741 145.994 120.633 145.453C120.525 144.912 120.885 144.552 121.038 144.191C121.192 143.831 121.345 143.245 121.543 142.821C121.741 142.398 121.345 141.46 121.345 141.28C121.345 141.1 121.994 140.866 121.696 140.505C121.399 140.145 121.795 139.847 122.102 139.55C122.408 139.252 122.048 138.423 122.201 137.351C122.354 136.278 122.498 134.431 122.498 134.25C122.544 133.784 122.476 133.314 122.3 132.88C122.111 132.457 121.796 132.101 121.399 131.862C121.047 131.682 120.597 131.15 120.344 131.087C120.092 131.024 118.875 130.492 118.875 129.663C118.875 128.834 117.974 128.167 117.92 127.572C117.866 126.977 117.064 125.661 117.019 125.066C116.974 124.472 115.901 124.3 115.757 123.642C115.613 122.984 116.253 122.516 116.361 122.092C116.469 121.669 116 120.776 115.955 120.488C115.91 120.2 116.712 119.352 117.019 119.172C117.325 118.992 117.568 118.271 117.767 118.271C117.965 118.271 117.92 117.604 118.127 116.955C118.196 116.674 118.208 116.381 118.164 116.095C118.119 115.809 118.018 115.534 117.866 115.288C117.722 115.17 117.568 114.386 117.316 114.152C117.204 114.082 117.08 114.036 116.95 114.016C116.819 113.996 116.687 114.002 116.559 114.035C116.58 114.193 116.558 114.354 116.497 114.502C116.435 114.649 116.335 114.777 116.208 114.873C115.757 115.17 115.649 114.81 115.496 114.63C115.342 114.449 114.793 114.395 114.54 114.098C114.271 113.75 113.948 113.445 113.585 113.197C113.278 113.007 112.828 112.836 112.873 112.115C112.918 111.394 112.224 110.989 111.972 110.871C111.719 110.754 111.368 110.448 111.07 110.628C110.773 110.808 110.358 110.277 110.016 110.331C109.673 110.385 108.952 109.619 108.7 109.312C108.448 109.006 108.249 108.6 107.799 108.6C107.348 108.6 107.294 108.781 106.997 109.204C106.699 109.628 106.231 108.898 106.095 108.726C105.96 108.555 105.546 108.483 104.987 108.483C104.428 108.483 104.031 107.582 103.833 107.474C103.635 107.366 102.211 106.572 101.859 106.338C101.508 106.104 101.156 105.202 101.301 104.968C101.445 104.734 101.057 103.959 101.057 103.959C101.057 103.959 100.345 103.003 100.093 103.003C99.8405 103.003 99.0384 101.336 98.5878 100.858C97.9257 100.239 97.347 99.5362 96.8664 98.7674C96.6681 98.2357 96.614 97.3975 96.1093 97.8662C95.6046 98.3348 96.0102 98.6953 96.5149 99.173C97.0196 99.6507 96.9114 100.128 97.6234 100.786C98.3354 101.444 98.029 102.093 98.3264 102.391C98.6238 102.688 99.6873 103.4 99.2277 103.878C98.768 104.355 98.3264 103.283 98.1191 103.22C97.9118 103.157 97.4612 103.048 97.5153 102.688C97.5693 102.327 97.1097 102.03 96.7582 101.498C96.4067 100.967 96.2535 101.255 95.8029 101.255C95.3522 101.255 95.7488 100.606 96.0011 100.354C96.2535 100.101 95.7488 99.6327 95.4424 99.5155C95.1359 99.3983 94.7394 98.0284 94.3338 97.1992C93.9282 96.3701 93.6308 95.9465 93.1802 96.0005C92.7295 96.0546 92.5223 95.4057 92.2158 95.1624C91.9094 94.919 91.4588 93.7924 90.954 93.1976C90.4143 92.5171 90.0994 91.6856 90.0528 90.8183C90.1069 90.1603 90.2601 88.493 90.2601 88.1145C90.2601 87.7359 90.0077 86.6815 90.0077 86.5102C89.9819 86.3891 89.9263 86.2762 89.8461 86.1819C89.7659 86.0875 89.6635 86.0145 89.5481 85.9695C89.3498 85.9064 88.8 85.0682 88.3404 85.0682C88.2292 85.0495 88.1235 85.0068 88.0305 84.9431C87.9375 84.8793 87.8596 84.7961 87.8021 84.6991C87.7446 84.6022 87.709 84.4938 87.6976 84.3817C87.6863 84.2695 87.6996 84.1563 87.7365 84.0498C87.7594 83.8178 87.7091 83.5844 87.5928 83.3824C87.4764 83.1804 87.2998 83.0198 87.0876 82.9232C86.8263 82.9232 86.4297 82.1481 86.2765 81.7335C86.1233 81.3189 85.7177 81.3099 85.8168 81.5442C85.916 81.7786 85.8168 82.2112 86.0241 82.3283C86.2314 82.4455 86.4748 83.3918 86.2765 83.518C86.0782 83.6442 85.6186 83.1575 85.1138 82.8601C84.6091 82.5627 84.8074 81.373 84.8074 81.0576C84.8074 80.7421 84.1044 80.4537 83.807 80.4537C83.5096 80.4537 83.1941 80.5168 83.1491 79.7417C83.0909 79.4358 82.9376 79.156 82.711 78.9424C82.4844 78.7287 82.1961 78.5921 81.8873 78.552C81.5899 78.552 79.9676 77.7769 79.4629 77.7769C78.9582 77.7769 78.102 77.2452 77.7956 77.4795C77.4891 77.7139 76.8943 77.0559 76.6419 77.0559C76.3896 77.0559 76.3445 77.3083 75.7407 77.7139C75.1368 78.1194 74.9836 77.8941 74.6772 78.2005C74.3707 78.507 73.6227 78.7864 73.8751 78.0744C74.1274 77.3624 74.1274 77.2452 73.7218 77.4255C73.563 77.5148 73.4319 77.6462 73.3428 77.8052C73.2538 77.9642 73.2103 78.1446 73.2171 78.3267C73.2171 78.6241 72.5051 79.1018 72.5051 79.1018C72.8047 79.1341 73.1068 79.1341 73.4064 79.1018C73.6588 79.0387 73.4605 79.7597 73.2081 79.94C72.9558 80.1202 72.6043 80.5889 72.1987 80.4717C71.7931 80.3546 71.7481 79.94 71.4957 79.8769C71.2434 79.8138 70.6846 80.3005 69.7743 80.8322C68.864 81.364 69.0262 80.9494 68.6657 81.1297C68.0065 81.4589 67.3148 81.7187 66.6018 81.9047C66.1422 81.9588 66.2503 81.2468 66.5027 81.2468C67.0632 81.0568 67.5919 80.7834 68.0709 80.4357C68.3233 80.2554 69.4318 79.7778 69.7292 79.5975C70.0266 79.4172 70.5404 79.1288 70.3421 78.7683C70.1438 78.4078 69.4408 78.9396 69.4408 78.9396C69.4408 78.9396 68.9361 78.4078 68.7829 78.2817C68.6297 78.1555 68.3233 78.7683 68.3233 78.7683C68.2372 78.7551 68.155 78.7237 68.0821 78.6762C68.0091 78.6286 67.9471 78.5661 67.9002 78.4928C67.8533 78.4195 67.8226 78.337 67.8101 78.2509C67.7975 78.1647 67.8035 78.0769 67.8276 77.9932C67.9718 77.3353 67.4671 77.3353 67.3679 77.6327C67.2688 77.9302 66.4126 78.4078 66.3585 78.1104C66.3044 77.813 65.5564 77.2091 65.3491 76.7405C65.1418 76.2718 65.5564 76.1997 66.007 75.7851C66.2358 75.596 66.5012 75.4559 66.7865 75.3738C67.0718 75.2916 67.3709 75.269 67.6653 75.3075C68.2331 75.3706 68.5666 74.5955 68.3773 74.5324C68.2263 74.469 68.0597 74.4523 67.8991 74.4844C67.7384 74.5165 67.5911 74.596 67.4761 74.7126C67.1696 75.0191 66.4126 74.956 66.4126 74.956C65.871 74.9667 65.3352 74.8429 64.8534 74.5955C64.5575 74.3486 64.3178 74.0413 64.1504 73.6942C64.6922 73.4554 65.2661 73.2975 65.8538 73.2256L66.4036 72.9642ZM112.602 90.7191C113.107 90.7822 113.107 89.944 113.062 89.7097C113.017 89.4754 113.008 88.4569 113.215 88.2767C113.423 88.0964 113.666 87.5647 114.225 87.5016C114.352 87.483 114.482 87.4955 114.604 87.5378C114.726 87.5802 114.835 87.6512 114.924 87.7449C115.012 87.8386 115.077 87.9523 115.112 88.0762C115.147 88.2002 115.152 88.3308 115.126 88.457C115.072 88.9887 115.225 89.5295 115.423 89.5295C115.622 89.5295 116.235 89.1059 116.027 88.7454C115.82 88.3849 116.18 87.2042 116.18 87.6188C116.18 87.7052 116.198 87.7907 116.231 87.8706C116.264 87.9504 116.312 88.0229 116.373 88.084C116.434 88.1451 116.507 88.1936 116.587 88.2266C116.666 88.2597 116.752 88.2767 116.838 88.2767C117.091 88.2226 116.586 87.1501 116.235 87.078C115.834 87.0232 115.428 87.0232 115.027 87.078C114.874 87.1501 114.017 86.7896 113.612 86.8527C113.367 86.8605 113.128 86.9298 112.917 87.0543C112.706 87.1787 112.53 87.3542 112.404 87.5647C112.197 88.0334 112.404 88.9346 112.35 89.2861C112.296 89.6376 112.152 90.656 112.602 90.7191ZM115.432 90.7191C115.55 90.9895 116.09 90.7822 116.388 90.4217C116.685 90.0612 117.352 89.944 117.55 89.6466C117.749 89.3492 117.902 89.4123 118.452 89.169C119.001 88.9256 119.353 88.8715 119.155 88.5741C118.956 88.2767 117.893 88.5741 117.749 88.457C117.604 88.3398 116.532 89.7728 116.532 89.7728C116.532 89.7728 115.631 90.1784 115.577 90.3586C115.523 90.5389 115.279 90.3496 115.432 90.7191ZM110.187 86.1317C110.187 86.4561 110.692 86.4922 110.989 86.3029C111.298 86.154 111.621 86.0362 111.954 85.9514C112.152 85.8883 112.053 86.2488 112.503 86.2488C112.954 86.2488 113.513 86.4291 113.666 86.375C113.819 86.3209 114.279 85.5909 113.918 85.5369C113.446 85.3744 113.028 85.0842 112.711 84.6987C112.404 84.3472 111.692 85.1763 111.043 85.4738C110.394 85.7712 110.187 85.654 110.187 86.1317ZM89.4579 84.1669C89.0524 84.0047 89.6112 84.8789 89.8635 85.0682C90.1159 85.2575 90.6206 85.2484 90.6747 85.5459C90.7287 85.8433 90.8729 86.5553 91.1253 86.5012C91.3776 86.4471 91.3776 85.7802 91.1794 85.5459C90.8557 85.1743 90.4792 84.8524 90.0618 84.5905C89.9627 84.5815 89.6562 84.221 89.521 84.1669H89.4579Z" fill="#C5B2F7"/>
<path opacity="0.5" d="M114.423 75.9832C114.288 76.1545 115.027 76.4158 115.162 76.1815C115.297 75.9472 114.756 75.5416 114.423 75.9832Z" fill="#C5B2F7"/>
<path opacity="0.5" d="M116.371 76.335C115.839 76.5153 116.371 76.9749 116.677 76.8127C116.984 76.6505 116.849 76.1818 116.371 76.335Z" fill="#C5B2F7"/>
<path opacity="0.5" d="M91.3233 66.6552C91.2512 66.8896 91.6298 66.8806 92.0624 66.8806C92.5134 66.9116 92.9664 66.8721 93.4052 66.7634C93.6125 66.6552 94.622 66.3668 94.5859 66.7634C94.5499 67.16 94.9915 67.6647 95.2258 67.5926C95.4601 67.5205 95.9288 66.9887 96.1271 67.196C96.3254 67.4033 96.3975 67.8629 96.6408 67.9891C97.0225 68.1066 97.4307 68.1066 97.8124 67.9891C98.3117 67.8844 98.8273 67.8844 99.3266 67.9891C99.6961 68.0702 100.769 68.3136 100.868 68.0702C100.967 67.8269 101.273 67.7908 101.309 67.5475C101.345 67.3042 101.508 66.5561 101.508 66.5561C101.508 66.5561 101.309 66.1235 100.967 66.3218C100.624 66.5201 100.534 66.6462 100.228 66.5561C99.9214 66.466 99.9304 65.8441 99.3897 65.9613C98.8489 66.0784 98.7588 66.4389 98.5875 66.5922C98.4982 66.6765 98.3912 66.7398 98.2742 66.7772C98.1572 66.8147 98.0333 66.8253 97.9116 66.8085L97.0103 66.2046C97.0103 66.2046 95.397 66.1235 95.334 65.8892C95.2709 65.6548 95.0005 65.2493 94.2524 65.3304C93.5044 65.4115 92.2336 65.9252 92.0353 65.9252C91.837 65.9252 92.2697 66.4029 92.0353 66.4029C91.801 66.4029 91.3954 66.2947 91.3233 66.6552Z" fill="#C5B2F7"/>
<path opacity="0.5" d="M97.0014 65.0148C96.6138 65.177 96.6949 65.6096 97.0014 65.6096C97.3078 65.6096 97.9026 65.3392 98.146 65.5375C98.3893 65.7358 98.858 65.5375 98.8219 65.3753C98.7859 65.213 99.0202 64.3749 98.6236 64.3478C98.2271 64.3208 97.6322 64.7804 97.0014 65.0148Z" fill="#C5B2F7"/>
<path opacity="0.5" d="M101.545 64.5012C101.491 64.7896 101.815 65.0149 102.221 65.0149C102.626 65.0149 103.492 64.7806 103.564 65.0149C103.636 65.2493 103.564 65.3754 103.996 65.4475C104.293 65.5223 104.594 65.5765 104.898 65.6098C105.159 65.6098 105.069 65.096 104.835 64.7085C104.6 64.321 104.663 64.3931 104.051 64.1948C103.529 64.0341 102.98 63.979 102.437 64.0326C102.086 64.0686 101.644 63.9424 101.545 64.5012Z" fill="#C5B2F7"/>
<path opacity="0.5" d="M102.22 66.3307C101.959 66.5921 102.22 67.4032 102.121 67.4753C102.022 67.5474 102.121 67.917 102.419 67.8358C102.716 67.7547 102.824 67.0067 103.022 67.0067C103.221 67.0067 104.266 66.7363 104.437 67.1689C104.609 67.6015 104.6 67.4032 105.077 67.4393C105.555 67.4753 105.915 66.8805 105.979 66.6822C106.042 66.4839 105.744 66.0874 105.077 66.1685C104.41 66.2496 102.482 66.0153 102.22 66.3307Z" fill="#C5B2F7"/>
<path opacity="0.5" d="M103.456 68.4306C103.404 68.4964 103.369 68.5744 103.355 68.6573C103.341 68.7402 103.348 68.8253 103.376 68.9047C103.404 68.984 103.451 69.0549 103.514 69.1107C103.577 69.1665 103.653 69.2054 103.735 69.2238C104.096 69.2238 104.736 68.9534 104.808 69.2238C104.88 69.4941 105.114 70.5396 105.709 70.1791C106.304 69.8186 106.277 69.5031 106.448 69.4671C106.619 69.431 106.448 68.5658 106.142 68.3495C105.696 68.1914 105.209 68.1914 104.763 68.3495C104.538 68.4757 103.835 68.1603 103.456 68.4306Z" fill="#C5B2F7"/>
<path opacity="0.5" d="M107.259 68.7915C107.343 68.9013 107.459 68.9831 107.591 69.0265C107.723 69.0699 107.864 69.0728 107.998 69.0349C108.439 68.9537 109.079 68.8636 109.377 68.8276C109.674 68.7915 109.746 68.1967 109.377 68.1606C109.007 68.1246 108.773 67.7641 108.475 67.8812C108.178 67.9984 107.16 68.5121 107.259 68.7915Z" fill="#C5B2F7"/>
<path opacity="0.5" d="M107.159 67.1243C107.006 67.5388 108.502 67.7642 108.34 67.2865C108.178 66.8088 107.322 66.6556 107.159 67.1243Z" fill="#C5B2F7"/>
<path opacity="0.5" d="M107.43 65.1142C106.998 64.997 106.286 64.8348 106.286 64.7176C106.286 64.6005 106.087 65.2764 106.457 65.4747C106.826 65.673 107.43 66.0335 107.863 66.2318C108.295 66.4301 109.143 66.4661 109.413 66.8627C109.747 67.1891 110.151 67.4356 110.594 67.5837L111.666 67.7008C112.16 67.5752 112.673 67.5356 113.18 67.5837C114.029 67.6891 114.884 67.7403 115.74 67.7369C116.371 67.7369 116.479 67.4575 116.542 67.3043C116.605 67.1511 115.37 66.8266 115.064 66.8627C114.757 66.8987 113.045 66.8627 112.54 66.8627C112.024 66.8265 111.506 66.8265 110.99 66.8627C110.594 66.8627 110.287 66.5382 109.99 66.3489C109.574 65.9869 109.11 65.6836 108.611 65.4477C108.21 65.365 107.815 65.2536 107.43 65.1142Z" fill="#C5B2F7"/>
<path opacity="0.5" d="M149.618 73.3606C149.483 73.622 149.212 73.64 149.483 74.1898C149.753 74.7396 149.961 75.0911 150.186 75.028C150.411 74.9649 151.231 74.9469 151.33 75.2623C151.356 75.3527 151.402 75.4363 151.464 75.5071C151.525 75.5779 151.602 75.6343 151.688 75.6721C151.774 75.71 151.867 75.7284 151.961 75.7262C152.055 75.7239 152.148 75.7009 152.232 75.6589C152.8 75.4606 153.268 75.3434 153.403 75.1091C153.539 74.8748 154.449 74.8297 154.449 74.8297C154.449 74.8297 155.197 74.1538 154.918 73.8744C154.567 73.6003 154.15 73.4232 153.71 73.3606C153.403 73.3606 153.106 73.64 152.43 73.64C151.754 73.64 151.321 73.9555 151.06 73.64C150.799 73.3246 149.726 73.1624 149.618 73.3606Z" fill="#C5B2F7"/>
<path opacity="0.5" d="M120.967 65.4926C121.336 65.8171 121.552 65.6098 122.012 65.736C122.472 65.8622 122.841 66.7364 123.085 66.8445C123.216 66.8967 123.361 66.9018 123.496 66.8591C123.63 66.8164 123.746 66.7285 123.824 66.6102C123.983 66.2662 124.107 65.9068 124.193 65.5377C124.193 65.5377 124.193 66.3308 124.563 66.439C124.932 66.5471 125.86 66.3218 126.104 66.3579C126.818 66.456 127.519 66.6312 128.195 66.8806C128.6 67.1239 129.583 67.2772 129.853 67.7819C130.123 68.2866 130.159 70.0891 130.313 70.2874C130.466 70.4857 130.989 69.6475 131.115 69.4582C131.241 69.269 131.881 69.3771 132.097 69.6475C132.314 69.9179 132.809 70.6028 132.773 70.8822C132.737 71.1616 132.647 71.5942 132.467 71.432C132.286 71.2698 131.971 71.3148 132.097 70.9994C132.223 70.6839 132.277 70.008 132.034 70.008H131.574C131.574 70.008 131.115 69.8548 130.808 70.4496C130.502 71.0444 130.745 71.6393 130.962 71.6393C131.178 71.6393 131.674 71.6393 131.674 71.7925C131.674 71.9457 131.142 72.4324 131.178 72.6938C131.301 73.1908 131.489 73.6696 131.737 74.1178C131.854 74.316 132.494 74.5233 132.638 74.5594C132.782 74.5954 132.214 74.6405 132.368 74.9199C132.521 75.1993 132.773 75.8662 133.107 76.0284C133.656 76.3256 134.138 76.7338 134.522 77.2271C134.639 77.5336 135.378 76.9838 135.531 76.9477C135.684 76.9117 135.657 77.7769 136.09 77.849C136.522 77.9211 136.676 77.7679 137.045 77.4164C137.415 77.0649 137.316 76.5782 137.352 76.2267C137.388 75.8752 137.352 75.5868 137.748 75.704C138.145 75.8212 138.361 75.6229 138.334 75.2263C138.307 74.8298 137.964 74.3251 138.604 74.2349C139.244 74.1448 139.596 73.604 139.992 73.604C140.389 73.604 141.497 73.8023 141.624 73.604C141.75 73.4058 142.263 72.4865 142.606 72.4504C142.948 72.4144 143.841 72.3242 144.634 72.171C145.427 72.0178 146.292 71.423 146.572 71.45C146.851 71.4771 147.527 71.4951 147.311 71.2607C147.094 71.0264 146.788 70.4676 146.328 70.4676C145.869 70.4676 146.328 69.5664 146.418 69.5664C146.508 69.5664 147.157 69.6925 147.13 70.0891C147.103 70.4857 147.311 70.9904 147.923 70.8462C148.018 70.8261 148.106 70.7841 148.181 70.7237C148.255 70.6633 148.315 70.586 148.355 70.4983C148.394 70.4105 148.412 70.3147 148.408 70.2185C148.403 70.1224 148.376 70.0287 148.329 69.9449C148.193 69.6783 148.078 69.401 147.987 69.1157C147.869 68.8273 147.896 68.4758 148.536 68.3947C149.176 68.3136 150.077 68.7192 150.041 68.0793C149.98 67.5163 150.044 66.9467 150.231 66.4119C150.411 66.0514 150.816 65.8171 150.6 65.6999C150.384 65.5828 150.104 65.8532 149.888 65.2583C149.826 65.0275 149.835 64.7835 149.912 64.5573C149.989 64.3311 150.131 64.1328 150.321 63.9875C150.573 63.7532 151.862 62.185 152.574 61.9597C153.286 61.7344 153.764 60.8061 153.277 60.6168C152.79 60.4275 151.799 60.058 151.159 60.6889C150.519 61.3198 150.141 61.9236 149.356 61.7254C148.572 61.5271 148.5 60.4726 148.086 59.9228C147.482 59.1297 147.851 57.5795 147.184 57.7057L146.544 57.8229C146.139 57.7469 145.724 57.7469 145.319 57.8229C144.697 57.9761 144.3 58.4087 143.949 58.3186C143.439 58.2447 142.919 58.343 142.471 58.598C141.495 58.8279 140.473 58.7652 139.533 58.4177C140.2 58.5052 140.875 58.5052 141.542 58.4177C142.272 58.2915 143.498 57.9941 144.102 57.877C144.706 57.7598 144.219 57.4804 144.003 57.4534C143.228 57.3452 142.047 56.9667 141.119 56.9126C140.38 56.9126 139.911 57.1379 139.181 57.1559C138.225 57.0513 137.258 57.2234 136.396 57.6516C135.914 57.9263 135.395 58.1297 134.855 58.2555C134.486 58.7332 134.152 59.9228 133.81 59.6074C133.467 59.2919 133.413 58.4898 132.98 58.8143C132.548 59.1387 132.98 59.9228 132.575 60.4816C132.353 60.6992 132.07 60.8429 131.763 60.8929C131.456 60.9429 131.142 60.8968 130.862 60.761C130.556 60.5627 130.25 60.4005 129.06 60.4816C127.87 60.5627 126.482 61.0314 126.753 61.5091C127.023 61.9867 126.203 62.2751 125.987 62.0318C125.77 61.7884 124.788 62.3112 124.851 62.7798C124.914 63.2485 124.698 63.8163 124.175 63.6811C124.071 63.6575 123.964 63.6565 123.859 63.6783C123.755 63.7002 123.657 63.7443 123.571 63.8076C123.486 63.8709 123.415 63.952 123.363 64.0453C123.312 64.1386 123.282 64.2418 123.274 64.348C123.274 64.7536 122.066 65.033 121.976 65.033C121.886 65.033 120.417 65.015 120.967 65.4926Z" fill="#C5B2F7"/>
<path opacity="0.5" d="M114.072 104.067C114.018 104.662 114.523 104.481 115.136 104.481C115.749 104.481 116.794 104.364 117.001 104.662C117.431 105.029 117.886 105.366 118.362 105.671C118.615 105.905 119.426 105.978 119.48 105.734C119.534 105.491 118.921 104.833 118.579 104.896C117.993 104.805 117.457 104.511 117.065 104.067C116.643 103.752 116.12 103.605 115.595 103.652C115.078 103.751 114.568 103.889 114.072 104.067Z" fill="#C5B2F7"/>
<path opacity="0.5" d="M117.748 102.4C117.289 102.463 117.397 103.112 117.956 102.994C118.514 102.877 118.208 102.337 117.748 102.4Z" fill="#C5B2F7"/>
<path opacity="0.5" d="M118.002 107.329C117.543 107.428 117.651 108.492 118.21 108.303C118.768 108.113 118.462 107.239 118.002 107.329Z" fill="#C5B2F7"/>
<path opacity="0.5" d="M124.671 106.68C124.211 106.77 124.319 107.843 124.869 107.636C125.419 107.428 125.113 106.572 124.671 106.68Z" fill="#C5B2F7"/>
<path opacity="0.5" d="M120.074 106.924C120.371 106.988 120.672 107.027 120.975 107.041C121.336 107.041 121.534 107.285 121.877 107.465C122.219 107.645 122.733 107.221 122.931 107.221C123.13 107.221 123.391 107.933 123.436 107.158C123.442 106.864 123.343 106.578 123.159 106.349C122.974 106.12 122.715 105.963 122.427 105.906C122.042 105.831 121.645 105.856 121.273 105.978C120.93 106.023 120.074 106.924 120.074 106.924Z" fill="#C5B2F7"/>
<path opacity="0.5" d="M162.343 95.2436C162.542 95.1264 163.353 94.829 163.803 94.5947C164.482 94.2516 165.191 93.9711 165.921 93.7565C166.947 93.8047 167.975 93.7655 168.995 93.6393C169.355 93.4591 170.256 93.1617 170.662 94.4775C171.067 95.7934 170.662 95.3067 170.256 95.55C169.851 95.7934 170.41 96.3251 170.608 96.3251C170.806 96.3251 171.509 97.1002 171.87 97.1002C172.292 97.182 172.702 97.3215 173.086 97.5148C173.086 97.5148 173.934 98.2899 174.393 98.2899C174.853 98.2899 175.195 98.7045 175.7 98.1006C176.205 97.4968 176.863 96.7938 177.367 96.92C177.872 97.0461 178.431 97.5148 179.08 97.5148C179.729 97.5148 180.945 97.3886 181.153 97.686C181.36 97.9834 179.792 99.0019 179.891 99.2362C179.99 99.4705 180.197 99.4165 180.702 98.7045C181.207 97.9925 181.955 97.9925 182.568 97.8032C183.181 97.6139 183.469 98.7045 183.577 99.11C183.685 99.5156 184.127 100.128 184.478 100.913C184.83 101.697 185.19 102.715 185.587 103.616C185.895 104.509 186.25 105.384 186.65 106.239C187.079 106.907 187.419 107.628 187.66 108.384C187.855 108.974 188.223 109.492 188.714 109.871C189.205 110.39 189.586 111.003 189.832 111.674C189.832 112.034 189.525 112.809 190.328 112.872C190.966 112.865 191.59 112.681 192.13 112.341C192.373 112.214 194.347 111.322 194.6 111.674C194.852 112.025 194.248 113.584 194.194 113.999C194.14 114.414 192.68 116.45 192.626 116.982C192.517 117.341 192.331 117.672 192.08 117.951C191.83 118.23 191.52 118.45 191.175 118.595C190.616 118.704 189.453 120.398 189.048 120.912C188.642 121.425 187.984 122.642 187.687 122.714C187.389 122.786 187.281 124.084 187.434 124.327C187.588 124.571 187.489 125.995 187.93 126.472C188.372 126.95 188.543 127.302 188.345 127.725C188.146 128.149 188.444 129.086 188.345 129.87C188.192 130.6 187.884 131.288 187.443 131.889C187.236 132.132 185.974 132.547 185.569 133.142C185.163 133.737 184.821 134.277 184.92 134.566C185.15 135.265 185.301 135.987 185.371 136.72C185.317 137.071 184.361 137.549 183.956 137.792C183.55 138.036 183.757 138.504 183.856 138.982C183.956 139.46 183.153 140.235 182.793 140.649C182.202 141.491 181.548 142.286 180.837 143.029C180.281 143.574 179.543 143.895 178.764 143.93C178.028 143.822 177.275 143.922 176.592 144.218C176.34 144.525 175.988 144.462 175.484 144.173C174.979 143.885 174.925 143.452 174.88 142.794C174.859 142.43 174.792 142.07 174.682 141.722C174.605 141.184 174.397 140.674 174.078 140.235C173.729 139.811 173.427 139.352 173.176 138.865C172.924 138.504 173.077 137.729 173.032 137.062C172.953 136.338 172.745 135.633 172.419 134.98C172.167 134.557 171.662 133.43 171.464 133.016C171.137 132.245 170.998 131.408 171.058 130.573C171.084 130.144 171.201 129.725 171.402 129.344C171.602 128.963 171.882 128.629 172.221 128.365C172.618 128.005 172.275 127.536 171.924 126.815C171.572 126.094 171.924 124.913 171.662 124.49C171.401 124.066 170.355 121.867 169.797 121.515C169.238 121.164 169.193 121.038 169.499 120.209C169.806 119.379 169.499 118.541 170.004 118.001C170.509 117.46 170.256 117.099 169.698 116.748C169.139 116.396 169.346 116.216 168.895 116.631C168.445 117.045 167.832 117.28 167.48 116.865C167.129 116.45 167.228 115.792 166.579 115.315C165.93 114.837 165.065 115.495 164.777 115.612C164.265 115.959 163.703 116.224 163.109 116.396C162.472 116.431 161.832 116.407 161.199 116.324C160.496 116.324 159.883 116.396 159.784 116.811C159.685 117.225 159.531 117.469 159.081 117.045C158.63 116.622 157.72 115.675 157.72 115.675C157.115 115.124 156.604 114.479 156.206 113.765C155.9 112.995 155.304 112.377 154.547 112.043C153.583 111.502 154.142 110.917 154.034 110.313C153.925 109.709 153.43 109.475 153.682 109.411C153.934 109.348 153.88 108.934 154.439 108.105C154.616 107.765 154.718 107.391 154.737 107.008C154.755 106.625 154.691 106.243 154.547 105.888C154.439 105.419 153.934 104.698 154.439 103.932C154.944 103.166 155.449 101.489 155.845 101.012C156.432 100.443 157.097 99.9607 157.819 99.5787C158.369 99.2813 158.017 98.5062 158.324 97.6139C158.63 96.7217 159.081 96.3071 159.225 96.3071C159.369 96.3071 159.937 95.6852 160.532 95.2887C161.072 95.0093 162.136 95.3608 162.343 95.2436ZM184.379 119.731C184.244 119.488 183.37 119.56 183.226 119.857C183.081 120.155 182.919 121.525 183.37 121.66C183.82 121.795 184.632 120.218 184.379 119.731Z" fill="#C5B2F7"/>
<path opacity="0.5" d="M193.554 128.545C192.923 128.338 192.851 129.329 192.347 129.987C191.842 130.645 191.292 131.177 191.085 131.114C190.877 131.051 189.778 131.528 190.129 132.43C190.303 132.772 190.39 133.152 190.38 133.536C190.371 133.92 190.266 134.295 190.075 134.629C189.733 135.043 190.382 136.242 190.283 136.891C190.183 137.54 190.436 137.972 191.184 137.972C191.932 137.972 192.139 137.675 192.437 136.891C192.734 136.107 192.788 135.35 193.095 134.692C193.401 134.034 193.644 132.664 193.798 132.303C194.061 131.619 194.198 130.892 194.203 130.158C194.122 129.509 193.915 128.671 193.554 128.545Z" fill="#C5B2F7"/>
<path opacity="0.5" d="M211.869 113.242C211.545 113.413 211.265 115.45 211.869 115.684C212.473 115.919 212.834 114.729 212.626 114.432C212.419 114.134 212.329 112.999 211.869 113.242Z" fill="#C5B2F7"/>
<path opacity="0.5" d="M169.401 91.0166C168.932 91.0166 168.698 91.9179 168.995 92.2063C169.293 92.4947 169.599 92.4496 169.852 92.026C169.892 91.9305 169.912 91.8278 169.911 91.7241C169.91 91.6205 169.887 91.5182 169.845 91.4236C169.803 91.329 169.742 91.244 169.665 91.174C169.589 91.104 169.499 91.0504 169.401 91.0166Z" fill="#C5B2F7"/>
<path opacity="0.5" d="M165.57 91.9719C165.444 92.1882 165.967 92.2694 166.075 92.026C166.183 91.7827 165.922 91.314 165.57 91.9719Z" fill="#C5B2F7"/>
<path opacity="0.5" d="M171.537 92.9904C171.348 93.1165 171.834 93.5221 172.087 93.6393C172.339 93.7564 172.546 94.117 172.745 94.18C172.943 94.2431 173.646 94.18 173.402 93.5762C173.357 93.401 173.252 93.2469 173.106 93.1401C172.96 93.0333 172.781 92.9804 172.6 92.9904C172.438 92.9904 171.816 92.8011 171.537 92.9904Z" fill="#C5B2F7"/>
<path opacity="0.5" d="M159.514 80.9493C159.063 81.0395 159.009 81.6073 158.702 81.6073C158.396 81.6073 158.053 81.7244 158.153 82.139C158.252 82.5536 158.45 82.851 158.153 83.0403C157.855 83.2295 158.153 83.9415 158.612 83.9956C159.072 84.0497 159.514 83.6982 159.811 83.5179C160.046 83.4403 160.255 83.2989 160.414 83.1095C160.573 82.9201 160.676 82.6902 160.712 82.4454C160.747 82.007 160.643 81.5688 160.415 81.1927C160.301 81.0737 160.157 80.9881 159.998 80.9452C159.839 80.9023 159.672 80.9037 159.514 80.9493Z" fill="#C5B2F7"/>
<path opacity="0.5" d="M160.072 79.1647C159.658 79.3179 159.811 79.9308 160.018 80.2372C160.268 80.7111 160.63 81.1165 161.073 81.4178C161.586 81.6612 162.641 81.8955 162.244 82.1389C161.733 82.4388 161.313 82.8718 161.028 83.3916C160.928 83.7431 161.884 84.1036 161.884 84.1036C161.884 84.1036 161.586 84.5272 161.884 84.6354C162.181 84.7435 162.289 84.2208 162.686 84.2208C163.082 84.2208 163.894 84.5272 164.299 84.5272C164.705 84.5272 165.363 83.8693 165.309 83.4547C165.156 82.9016 164.794 82.4297 164.299 82.1389C163.849 81.8955 163.344 80.823 163.037 80.5887C162.731 80.3543 163.344 79.7505 162.992 79.3449C162.641 78.9394 162.388 78.9754 161.983 78.678C161.577 78.3806 161.226 78.7411 160.974 79.1016C160.721 79.4621 160.379 79.0385 160.072 79.1647Z" fill="#C5B2F7"/>
<path opacity="0.5" d="M163.426 87.4385C163.381 86.9067 162.372 86.429 161.705 86.3029C161.038 86.1767 161.146 85.8342 161.867 85.7711C162.588 85.708 162.516 85.4196 163.12 85.3025C163.724 85.1853 164.337 84.996 164.787 84.942C165.238 84.8879 165.238 84.4012 165.238 84.0407C165.238 83.6802 166.5 83.563 166.5 83.563C166.5 83.563 167.212 82.7879 167.608 82.4274C167.856 82.2747 168.137 82.1843 168.428 82.1639C168.718 82.1435 169.009 82.1937 169.276 82.3103C169.834 82.4815 169.231 81.8867 169.023 81.5983C168.889 81.1629 168.924 80.6927 169.122 80.2824C169.276 79.9219 170.186 79.7417 170.438 79.8678C170.691 79.994 170.438 80.5167 170.492 80.9944C170.538 81.3034 170.699 81.5835 170.943 81.7785L171.34 81.7154H172.006C172.664 81.7154 172.457 82.1931 172.962 82.0128C173.41 81.8647 173.847 81.684 174.269 81.4721C174.778 81.3421 175.318 81.4064 175.783 81.6523C176.54 81.9498 176.134 81.1116 176.287 80.6339C176.441 80.1562 176.747 79.3361 177.243 79.3811C177.739 79.4262 178.144 79.8047 178.559 79.5073C178.973 79.2099 177.802 78.7953 177.802 78.6061C177.802 78.4168 178.757 78.4258 179.604 78.3627C180.207 78.3692 180.81 78.3301 181.407 78.2455C181.812 78.1284 181.109 77.3443 180.956 77.3443C180.402 77.4004 179.845 77.4185 179.289 77.3984C178.784 77.3443 178.234 77.7589 177.784 77.876C177.333 77.9932 177.225 77.164 176.972 76.8035C176.888 76.6988 176.829 76.5765 176.798 76.4457C176.767 76.3149 176.766 76.1789 176.794 76.0476C176.823 75.9162 176.88 75.7929 176.962 75.6867C177.045 75.5805 177.15 75.494 177.27 75.4336C178.02 75.0524 178.702 74.55 179.289 73.9465C179.496 73.586 178.487 73.6491 177.486 73.7032C176.486 73.7572 177.639 74.0637 176.738 75.1362C175.837 76.2087 175.377 75.4877 174.665 76.2087C173.953 76.9297 174.467 76.9748 175.125 77.2271C175.783 77.4795 175.215 78.1284 175.071 78.3447C174.927 78.561 174.17 79.1919 174.26 79.6605C174.35 80.1292 173.755 80.4356 173.755 80.4356C173.755 80.4356 171.889 80.9133 171.538 80.9764C171.186 81.0395 171.087 80.67 171.186 80.3185C171.285 79.967 170.781 79.1288 170.736 78.588C170.691 78.0473 169.925 78.8314 169.834 79.1919C169.744 79.5524 168.834 79.6065 168.275 79.3721C168.042 79.241 167.849 79.0496 167.716 78.8181C167.583 78.5865 167.515 78.3234 167.518 78.0563C167.617 77.876 167.212 76.9748 167.212 76.7495C167.715 76.0491 168.444 75.5432 169.276 75.3164C170.24 75.0821 171.448 73.7032 172.106 73.1083C172.536 72.6499 172.922 72.152 173.259 71.6212C174.869 71.003 176.523 70.5059 178.207 70.1342C179.722 70.0457 181.241 70.1854 182.714 70.5487C183.33 70.7689 183.932 71.0277 184.516 71.3238C185.41 71.6461 186.344 71.8462 187.292 71.9187C187.86 72.0222 188.406 72.2234 188.905 72.5135C189.356 72.7568 188.905 72.9281 187.788 73.3517C187.4 73.5239 186.982 73.6173 186.558 73.6266C186.134 73.6359 185.713 73.5608 185.318 73.4057C184.714 73.1714 184.363 73.1714 184.822 73.5229C185.282 73.8744 185.12 74.0637 185.174 74.5954C185.228 75.1272 185.931 74.6585 186.075 74.5323C186.219 74.4062 186.237 74.1808 186.787 74.5954C186.915 74.7278 187.084 74.8118 187.266 74.8332C187.449 74.8546 187.633 74.8119 187.788 74.7126C188.049 74.6585 187.842 74.0096 187.995 73.7663C188.148 73.5229 188.752 73.5229 188.896 73.4057C189.14 73.2347 189.416 73.1151 189.707 73.0543C190.005 72.9912 189.951 73.586 190.257 73.7663C190.564 73.9465 190.41 72.9912 190.257 72.7568C190.104 72.5225 190.059 71.8556 190.257 71.6753C190.482 71.561 190.729 71.4969 190.981 71.4876C191.233 71.4782 191.484 71.5238 191.717 71.6212C191.97 71.8646 191.312 72.5225 191.465 72.9912C191.618 73.4598 191.97 72.7568 192.231 72.3873C192.492 72.0178 193.033 72.3873 193.943 72.2161C194.854 72.0448 194.637 71.441 195.602 71.7925C196.566 72.144 196.305 72.153 196.611 71.7925C196.917 71.432 197.512 71.8646 198.017 71.6212C198.522 71.3779 198.576 71.6212 198.981 71.8646C199.387 72.1079 199.883 71.3779 200.09 71.1436C200.297 70.9092 201.099 70.9092 201.505 70.9633C201.936 71.1085 202.376 71.2289 202.821 71.3238C203.191 71.3765 203.548 71.4956 203.875 71.6753C203.875 71.6753 204.777 72.0358 204.939 71.7925C205.101 71.5491 204.885 71.2607 204.128 70.8912C203.371 70.5217 203.668 69.7556 204.128 69.6925C204.587 69.6294 204.533 69.341 204.885 69.1067C205.236 68.8724 205.696 67.9711 206.092 68.1514C206.489 68.3316 206.849 68.6831 207.363 68.9805C207.877 69.278 207.408 69.6925 207.309 69.999C207.257 70.5456 207.34 71.0967 207.552 71.6032C207.706 71.7835 207.408 72.4324 207.003 72.7388C206.597 73.0452 206.038 73.6942 206.192 73.8113C206.345 73.9285 207.588 73.2255 207.588 73.2255C207.923 72.7419 208.294 72.2839 208.697 71.8556C209.058 71.5491 209.409 71.5491 209.508 71.9096C209.607 72.2702 210.166 72.3783 210.671 72.144C211.176 71.9097 210.671 71.7294 210.617 71.1886C210.563 70.6479 209.761 70.9543 209.31 71.0715C208.859 71.1886 208.499 71.7294 208.355 71.7294C208.21 71.7294 208.201 71.3689 208.3 70.8281C208.4 70.2874 208.093 69.99 208.093 69.6925C208.093 69.3951 208.246 69.3951 208.598 68.7913C208.949 68.1874 208.958 69.2058 209.003 69.7466C209.049 70.2874 209.409 70.044 209.715 69.9809C210.022 69.9179 209.86 69.2058 210.112 68.8453C210.364 68.4848 210.923 68.4308 211.428 68.9715C211.933 69.5123 211.878 69.323 212.491 69.5664C213.104 69.8097 213.14 69.8638 213.194 70.3955C213.248 70.9273 213.645 70.9904 213.897 70.8191C214.15 70.6479 213.951 69.9178 213.798 69.6835C213.645 69.4492 212.437 69.0346 211.996 68.611C211.554 68.1874 212.194 68.1964 212.654 68.1964C213.113 68.1964 213.96 68.2595 213.96 68.2595C214.482 68.127 214.976 67.9043 215.42 67.6016C215.842 67.3156 216.304 67.0938 216.79 66.9437C217.367 66.7318 217.993 66.6911 218.593 66.8265C219.098 66.9437 219.449 66.5922 219.954 66.3488C220.459 66.1055 221.017 65.9343 221.162 66.0514C221.674 66.2745 222.218 66.4145 222.775 66.466C223.275 66.2948 223.765 66.0962 224.244 65.8712C225.055 65.5107 224.695 65.5737 225.001 65.3935C225.307 65.2132 225.803 65.1592 226.867 65.6909C227.93 66.2227 226.867 65.6909 227.164 66.0514C227.461 66.4119 227.624 65.9883 228.327 65.8712C228.864 65.7949 229.41 65.8163 229.94 65.9343C230.6 65.9232 231.254 66.0651 231.851 66.3488C232.31 66.7093 231.553 67.4754 231.301 67.7188C231.048 67.9621 231.706 68.1333 231.905 68.0793C232.784 68.0386 233.664 68.0779 234.536 68.1964C235.284 68.3136 235.591 68.7372 235.942 68.7372C236.349 68.7252 236.74 68.5759 237.051 68.3136C237.648 68.0725 238.282 67.9323 238.925 67.899C239.481 67.8385 240.043 67.8782 240.584 68.0162C240.802 68.3735 240.908 68.7877 240.89 69.2059C240.905 69.4297 240.991 69.643 241.135 69.8149C241.279 69.9867 241.474 70.108 241.692 70.1612C242.044 70.2243 242.702 69.4492 242.954 69.323C243.207 69.1968 243.504 69.8638 243.666 69.6835C243.828 69.5033 245.072 69.7466 245.577 69.4492C246.082 69.1518 246.388 69.4492 246.631 69.323C246.96 69.072 247.192 68.7156 247.289 68.3136C247.289 68.0793 247.497 67.899 247.289 67.5385C247.082 67.178 246.388 67.4213 245.622 67.187C244.856 66.9527 245.577 66.5922 245.874 66.3488C246.172 66.1055 246.685 66.3488 247.19 66.466C247.695 66.5832 247.497 66.2948 247.74 66.2948C247.983 66.2948 248.912 66.5922 249.416 66.5922C249.921 66.5922 250.318 67.2411 250.318 67.2411C249.759 67.4404 249.186 67.6 248.605 67.7188C248.308 67.7188 248.497 68.1964 248.758 68.1964C249.117 68.253 249.45 68.4163 249.714 68.6651C250.065 68.9715 251.633 68.6651 251.832 68.6651C252.344 68.8149 252.824 69.0594 253.247 69.3861C253.563 69.6162 253.901 69.8154 254.256 69.9809C254.829 69.9759 255.4 69.9368 255.968 69.8638C256.685 69.7181 257.425 69.7397 258.131 69.9269C258.545 70.1403 258.935 70.3971 259.294 70.6929C259.7 71.1165 259.997 70.9363 260.556 70.8822C261.09 70.7922 261.629 70.7291 262.169 70.6929C262.674 70.6929 264.341 70.6389 264.639 71.1706C264.936 71.7024 265.306 71.5942 265.306 71.5942C265.485 71.1956 265.702 70.8153 265.954 70.4586C266.162 70.2784 266.856 70.5758 267.216 70.8191C267.577 71.0625 269.587 70.8191 270.082 70.9363C270.578 71.0534 271.299 71.6483 270.893 72.126C270.488 72.6036 271.2 73.4418 271.047 73.9285C270.893 74.4152 270.497 74.4602 270.082 74.5774C269.668 74.6946 270.497 75.2984 270.848 75.713C271.2 76.1276 270.65 76.2447 270.29 76.0645C269.459 76 268.625 76.1457 267.865 76.4881C266.712 76.8396 266.261 77.5606 265.053 77.6147C263.846 77.6687 264.341 77.5606 262.827 77.5606C261.313 77.5606 261.367 78.0383 261.025 78.6331C260.682 79.2279 261.178 79.1108 261.025 79.5884C260.83 80.0434 260.697 80.5223 260.628 81.0124C260.628 81.427 259.727 81.4901 259.411 81.8506C258.948 82.5597 258.386 83.1999 257.744 83.7523C257.168 84.227 256.675 84.7934 256.284 85.4286C256.38 84.8265 256.568 84.2428 256.843 83.6982C257.239 82.9862 256.392 81.9678 256.329 81.1927C256.266 80.4176 256.581 80.1833 257.095 79.4623C257.609 78.7412 258.807 78.561 259.312 78.1554C259.817 77.7499 261.89 76.1276 261.89 76.1276C261.604 76.3318 261.303 76.5127 260.989 76.6683C260.484 76.9027 259.871 77.3803 259.483 77.3803C259.096 77.3803 259.222 76.9027 259.168 76.425C259.114 75.9473 258.159 76.3078 257.807 76.7855C257.276 77.2898 256.703 77.7481 256.095 78.1554C255.383 78.7503 255.59 78.6872 255.139 78.7503C254.564 78.7344 254.012 78.5248 253.571 78.1554C253.22 77.858 252.868 78.3898 251.769 78.4528C250.669 78.5159 249.398 78.3267 248.894 78.3898C248.389 78.4528 247.091 80.1923 246.37 80.4807C245.649 80.7691 244.649 81.3189 244.91 81.7335C245.171 82.148 245.604 81.3729 245.811 81.3729C246.018 81.3729 245.658 82.2111 246.118 82.2111C246.577 82.2111 246.821 81.9047 247.271 81.8506C247.722 81.7965 248.082 82.2652 248.173 82.9231C248.169 83.6189 248.031 84.3074 247.767 84.951C247.598 85.8638 247.14 86.698 246.46 87.3303C245.617 88.0747 244.822 88.8724 244.081 89.7187C243.828 90.0702 242.927 89.7818 242.774 89.5384C242.621 89.2951 242.179 90.0702 241.819 90.2504C241.621 90.3395 241.452 90.4803 241.328 90.6581C241.204 90.8358 241.131 91.0438 241.116 91.2598C241.116 91.7375 240.097 91.7375 240.097 92.0349C240.321 92.5923 240.625 93.1144 240.998 93.5851C241.089 93.9384 241.09 94.3088 241.002 94.6628C240.914 95.0168 240.739 95.3433 240.494 95.6129C240.043 95.9104 239.836 96.2709 239.232 95.8563C238.628 95.4417 239.133 95.1984 239.385 94.5404C239.638 93.8825 239.133 93.531 239.034 93.3418C238.935 93.1525 238.52 93.7023 238.322 93.7654C238.123 93.8284 238.123 93.2336 238.277 92.8641C238.328 92.6591 238.331 92.445 238.285 92.2386C238.24 92.0322 238.148 91.8391 238.015 91.6744C237.871 91.6113 236.916 92.5757 236.51 92.5036C236.105 92.4315 236.456 91.377 236.609 91.0706C236.762 90.7641 236.303 91.0165 236.005 91.3139C235.708 91.6113 235.05 92.2693 234.798 92.2152C234.545 92.1611 234.032 92.6928 234.446 93.0534C234.861 93.4139 234.996 93.7023 235.248 93.7654C235.643 93.7665 236.035 93.7057 236.411 93.5851C236.663 93.531 237.168 94.0087 236.663 94.5404C236.159 95.0722 235.095 95.1353 235.293 95.4958C235.706 96.0459 236.079 96.6241 236.411 97.2262C236.665 97.9929 236.784 98.7981 236.762 99.6056C236.862 100.263 235.293 101.624 234.843 102.048C234.392 102.472 233.941 103.472 233.175 103.959C232.386 104.438 231.477 104.685 230.553 104.671C230.3 104.49 229.597 104.968 229.651 105.626C229.706 106.284 230.048 106.221 230.048 106.392C229.867 106.821 229.631 107.224 229.345 107.591C229.147 107.897 228.444 107.591 228.543 106.69C228.642 105.788 229.147 105.437 229.093 105.013C229.096 104.919 229.069 104.825 229.017 104.747C228.964 104.668 228.888 104.608 228.799 104.575C228.71 104.542 228.613 104.538 228.522 104.563C228.431 104.588 228.35 104.642 228.291 104.716C227.984 105.076 227.029 106.095 227.029 106.095C227.198 106.638 227.47 107.143 227.831 107.582C228.349 108.169 228.807 108.806 229.201 109.483C229.796 110.385 229.345 111.151 229.201 111.818C229.057 112.485 228.543 112.467 228.137 112.584C227.732 112.701 227.633 112.881 227.479 113.242C227.326 113.602 226.623 114.017 226.524 113.719C226.313 113.351 226.059 113.009 225.767 112.701C225.524 112.097 225.166 111.546 224.713 111.079C224.055 110.547 223.811 110.304 223.811 110.844C223.811 111.385 223.406 112.395 223.406 112.746C223.406 113.098 222.504 111.674 222.504 111.079C222.504 110.484 222.342 109.465 222.396 108.519C222.45 107.573 221.342 108.456 221.342 108.456C221.342 108.456 220.837 109.465 220.585 109.465C220.332 109.465 220.233 108.636 220.269 107.915C220.297 107.354 220.162 106.798 219.882 106.311C219.401 105.776 219.008 105.167 218.719 104.508C218.566 103.851 218.259 104.094 217.962 104.445C217.665 104.797 217.755 104.806 216.547 104.806C215.339 104.806 215.393 105.707 214.745 106.239C214.096 106.771 213.636 107.789 212.942 108.15C212.248 108.51 211.933 108.862 211.933 109.276C211.952 109.974 211.901 110.671 211.779 111.358C211.671 112.058 211.468 112.741 211.176 113.386C210.815 113.981 210.518 114.936 210.211 114.936C209.905 114.936 209.815 114.107 209.815 113.566C209.569 112.782 209.211 112.039 208.751 111.358C208.553 110.952 207.796 109.096 207.796 109.096C207.529 108.281 207.342 107.442 207.237 106.59C207.291 106.05 207.291 104.572 207.291 104.572C207.291 104.572 206.48 105.518 206.128 105.473C205.777 105.428 205.425 104.752 205.47 103.986C205.516 103.22 204.876 103.265 204.515 103.148C204.155 103.03 203.704 101.958 203.452 101.958C203.199 101.958 203.055 101.958 202.857 102.318C202.659 102.679 201.586 102.616 201.334 102.616C200.588 102.613 199.845 102.532 199.117 102.372C198.666 102.192 198.161 101.129 197.909 101.003C197.657 100.876 196.899 101.651 196.602 101.543C196.305 101.435 195.701 100.822 195.034 100.471C194.367 100.119 194.178 99.2721 193.925 98.7403C193.673 98.2086 192.817 99.0378 192.916 99.6416C193.015 100.245 194.133 101.012 194.133 101.444C194.133 101.877 194.331 101.985 194.881 102.526C195.43 103.066 194.98 103.355 195.34 103.472C195.701 103.589 196.196 102.994 196.701 102.697C197.206 102.399 197.152 101.985 197.404 101.985C197.657 101.985 197.602 102.76 198.008 102.814C198.69 103.054 199.285 103.49 199.72 104.067C199.982 104.544 199.468 104.842 199.27 105.256C198.935 106.013 198.491 106.718 197.954 107.347C197.477 107.932 196.855 108.382 196.151 108.654C195.394 108.835 195.295 109.312 194.682 109.366C193.793 109.649 192.947 110.052 192.168 110.565C191.551 110.905 190.853 111.07 190.149 111.043C189.752 110.853 189.59 109.673 189.446 108.78C189.355 108.184 189.185 107.602 188.941 107.05C188.58 106.504 188.156 106.002 187.679 105.554C187.298 104.872 187.041 104.127 186.922 103.355C186.868 102.76 186.319 102.994 186.219 102.345C186.004 101.674 185.752 101.015 185.462 100.372C185.354 99.957 184.345 100.435 183.939 100.498C183.778 100.496 183.619 100.458 183.474 100.388C183.329 100.317 183.202 100.215 183.101 100.089C183 99.9635 182.928 99.8168 182.891 99.6599C182.854 99.503 182.851 99.3398 182.885 99.182C182.984 98.2807 183.389 98.2807 183.894 98.2807C184.399 98.2807 184.201 97.9833 184.705 97.3794C185.168 96.606 185.411 95.7211 185.408 94.8198C185.462 94.0447 185.057 94.4052 184.651 94.5224C184.265 94.6691 183.857 94.7484 183.444 94.7567C183.245 94.7027 182.434 94.4052 182.281 94.5855C182.076 94.658 181.856 94.6737 181.643 94.6309C181.431 94.588 181.234 94.4882 181.073 94.3422C180.875 94.0447 179.866 93.6842 179.757 93.4409C179.734 92.7644 179.668 92.0901 179.559 91.4221C179.361 91.0706 178.901 91.4851 178.658 91.7195C178.414 91.9538 177.702 92.1341 177.901 92.3143C178.099 92.4946 178.757 92.8551 178.712 93.3327C178.667 93.8104 178.207 93.9276 177.946 94.1619C177.684 94.3962 177.198 94.7567 177.045 94.4593C176.891 94.1619 176.387 92.8551 176.242 92.6568C175.919 92.2419 175.66 91.7799 175.476 91.2869C175.332 90.7551 174.773 90.5749 174.422 90.1603C174.07 89.7457 173.061 89.0878 172.664 88.6101C172.268 88.1324 171.547 87.7719 171.493 88.3758C171.439 88.9796 172.196 89.0878 172.502 89.6826C172.818 90.1818 173.276 90.5744 173.818 90.8092C174.272 91.055 174.714 91.3227 175.143 91.6113C174.902 91.7146 174.638 91.7549 174.377 91.7285C174.025 91.6744 174.323 92.4495 174.278 92.8641C174.233 93.2787 173.872 93.2787 173.773 92.801C173.674 92.3602 173.467 91.9512 173.169 91.6113C172.971 91.4311 171.664 90.9624 171.457 90.8453C171.249 90.7281 170.393 90.0611 170.294 89.5294C170.195 88.9977 169.393 88.9346 169.24 89.0517C169.086 89.1689 168.284 89.8268 167.924 89.8268C167.479 89.7292 167.04 89.6089 166.608 89.4663C166.211 89.4122 166.157 90.2414 166.004 90.7191C165.851 91.1967 165.202 90.8453 164.85 91.2508C164.499 91.6564 163.886 92.089 164.039 92.4495C164.192 92.81 164.445 92.801 163.985 93.0984C163.526 93.3958 163.282 93.9997 162.832 94.0538C162.381 94.1078 161.768 94.3512 161.516 94.1799C161.263 94.0087 161.065 94.7658 160.912 94.946C160.759 95.1263 160.506 94.4143 160.254 94.1168C160.002 93.8194 159.353 94.0538 159.145 93.9997C158.938 93.9456 158.74 93.3958 158.487 93.1615C158.379 93.0258 158.32 92.8574 158.32 92.6838C158.32 92.5103 158.379 92.3419 158.487 92.2062C158.629 92.0846 158.729 91.9223 158.774 91.7415C158.819 91.5608 158.807 91.3704 158.74 91.1967C158.596 90.656 158.487 89.4663 159.001 89.232C159.768 89.1102 160.55 89.1102 161.317 89.232C161.921 89.232 162.958 89.4753 163.12 89.1058C163.374 88.5888 163.48 88.0119 163.426 87.4385ZM182.443 76.9477C182.272 77.5155 183.606 77.9662 183.858 77.5516C184.11 77.137 182.668 76.1186 182.416 76.9477H182.443ZM180.731 91.368C180.83 91.6023 181.335 91.0075 181.731 91.0075C182.128 91.0075 183.047 91.1877 183.299 90.7731C183.552 90.3586 184.354 90.2955 185.012 90.4126C185.67 90.5298 186.228 91.0616 186.679 91.1246C187.372 91.1551 188.065 91.0976 188.743 90.9534C189.149 90.8362 189.049 89.9981 188.391 89.5745C187.827 89.0913 187.224 88.6542 186.589 88.2676C185.985 88.0243 185.787 87.79 186.129 87.6728C186.472 87.5556 186.94 87.0689 186.436 87.0689C185.931 87.0689 185.48 87.2582 185.426 87.5556C185.342 87.869 185.146 88.1412 184.877 88.3217C184.669 88.4479 184.165 88.9256 183.975 88.565C183.786 88.2045 183.272 87.141 183.02 87.0689C182.768 86.9968 182.362 87.0689 182.065 87.6728C181.831 88.2013 181.504 88.6836 181.1 89.0968C180.803 89.3401 180.397 90.0521 180.704 90.1693C181.01 90.2865 180.704 91.377 180.704 91.377L180.731 91.368ZM192.267 87.2041C191.645 87.6818 191.456 88.3307 191.699 88.7453C191.942 89.1599 192.663 90.4757 193.015 90.6019C193.366 90.7281 194.628 90.9624 194.133 91.5032C193.637 92.0439 193.52 92.2152 193.069 92.1611C192.618 92.107 192.817 93.5851 193.168 93.7023C193.52 93.8194 194.583 94.243 194.971 94.3061C195.358 94.3692 196.485 94.1889 196.431 93.8284C196.377 93.4679 196.178 92.0259 195.773 91.6834C195.367 91.341 196.332 90.9714 196.079 90.665C195.827 90.3586 195.475 90.4847 195.268 90.1333C195.132 89.7781 194.927 89.4534 194.664 89.1779C194.367 88.9436 194.115 89.4213 194.169 88.7543C194.223 88.0874 194.917 87.6908 195.223 88.0423C195.53 88.3938 196.431 88.2316 196.638 88.0423C196.845 87.853 196.233 87.3303 196.079 86.9698C195.918 86.7834 195.714 86.638 195.485 86.5455C195.257 86.4531 195.009 86.4163 194.763 86.4381C194.619 86.5552 194.214 86.9157 193.808 87.2131C193.403 87.5106 192.555 86.9608 192.267 87.2041Z" fill="#C5B2F7"/>
<path opacity="0.5" d="M198.043 70.3416C197.683 70.7832 196.89 70.639 196.331 70.2785C195.855 70.036 195.349 69.8572 194.826 69.7467C194.52 69.6206 194.826 68.9086 195.222 68.7373C195.619 68.5661 196.538 68.0163 197.241 67.6648C197.944 67.3133 198.143 66.5923 198.656 66.5923C199.17 66.5923 201.576 65.9885 201.883 66.1146C202.189 66.2408 203.685 66.349 203.956 65.8713C204.226 65.3936 205.308 65.691 205.064 66.1146C204.821 66.5382 203.902 67.4755 203.262 67.3043C202.24 67.1554 201.202 67.1554 200.179 67.3043C199.41 67.5199 198.691 67.8843 198.061 68.3768C197.404 68.7914 197.557 69.2781 197.818 69.2781C197.91 69.3259 197.991 69.3937 198.054 69.4764C198.117 69.5591 198.161 69.6548 198.182 69.7565C198.204 69.8582 198.203 69.9635 198.179 70.0647C198.155 70.1658 198.108 70.2604 198.043 70.3416Z" fill="#C5B2F7"/>
<path opacity="0.5" d="M249.1 82.238C248.803 82.3371 247.938 82.1208 248.199 82.95C248.461 83.6108 248.563 84.3242 248.496 85.0319C248.442 85.7696 248.478 86.5112 248.605 87.24C248.704 87.4203 249.109 87.8348 249.362 87.7177C249.614 87.6005 249.253 86.4108 249.253 86.1675C249.253 85.9242 249.614 85.5727 249.812 85.5096C250.01 85.4465 249.812 84.4371 249.56 84.0225C249.307 83.6079 248.956 83.3736 249.154 83.3015C249.353 83.2294 249.614 82.7697 249.461 82.6526C249.307 82.5354 249.452 82.0848 249.1 82.238Z" fill="#C5B2F7"/>
<path opacity="0.5" d="M248.596 88.2766C248.217 88.3847 248.091 88.9886 248.091 89.1778C248.091 89.3671 246.667 89.7186 247.117 90.1873C247.568 90.6559 248.019 90.3134 248.74 90.2503C249.203 90.2032 249.66 90.1034 250.101 89.9529C250.101 89.9529 251.164 90.016 251.002 89.4212C250.84 88.8263 249.749 88.7543 249.551 88.8173C249.353 88.8804 248.992 88.1594 248.596 88.2766Z" fill="#C5B2F7"/>
<path opacity="0.5" d="M247.423 90.6021C247.062 90.8634 247.269 91.9089 246.972 92.6209C246.674 93.3329 246.422 93.9999 246.215 93.9999C245.64 94.1567 245.107 94.44 244.656 94.829C244.349 95.1895 242.853 94.5316 242.691 94.829C242.432 95.1531 242.145 95.4547 241.835 95.7303C241.573 95.9736 240.87 95.7934 241.024 96.5054C241.177 97.2174 241.528 97.8843 241.835 97.8843C242.141 97.8843 242.538 97.641 242.538 96.983C242.538 96.3251 243.241 96.983 243.592 96.929C243.944 96.8749 244.142 96.4513 244.295 95.9736C244.448 95.4959 244.097 96.2079 244.701 96.3882C244.785 96.4282 244.877 96.447 244.97 96.443C245.063 96.4389 245.153 96.4121 245.233 96.365C245.313 96.3178 245.381 96.2517 245.429 96.1725C245.478 96.0932 245.506 96.0033 245.512 95.9105C245.512 95.7303 246.62 95.4329 246.819 95.2526C247.017 95.0724 247.828 94.7749 247.882 94.5406C247.936 94.3063 247.882 92.9273 248.135 92.8102C248.387 92.693 248.738 92.693 248.342 91.9089C247.945 91.1248 247.936 90.2416 247.423 90.6021Z" fill="#C5B2F7"/>
<path opacity="0.5" d="M236.329 102.336C235.581 102.472 235.121 104.364 235.734 104.301C236.347 104.238 236.987 102.219 236.329 102.336Z" fill="#C5B2F7"/>
<path opacity="0.5" d="M267.449 144.525C267.25 144.642 267.449 145.3 267.656 145.534C267.858 145.942 267.942 146.397 267.899 146.85C267.854 147.084 266.998 147.382 267.404 147.679C267.809 147.977 268.557 147.679 268.467 148.04C268.377 148.4 267.953 148.878 268.413 148.995C268.873 149.112 269.026 148.571 269.215 148.166C269.354 147.765 269.6 147.409 269.927 147.138C270.279 146.913 269.927 146.363 269.72 146.363C269.513 146.363 269.423 146.67 268.963 146.363C268.503 146.057 268.611 146.192 268.314 145.597C268.017 145.002 267.971 144.218 267.449 144.525Z" fill="#C5B2F7"/>
<path opacity="0.5" d="M267.071 148.337C266.999 148.626 266.575 148.698 266.269 148.995C265.962 149.292 266.269 149.401 265.413 150.013C264.556 150.626 263.493 151.257 263.295 151.816C263.096 152.375 263.493 152.654 264.295 152.717C265.097 152.78 264.908 152.952 265.458 152.24C265.971 151.606 266.548 151.026 267.179 150.509C267.581 150.116 267.817 149.584 267.837 149.022C267.837 149.022 267.071 148.166 267.071 148.337Z" fill="#C5B2F7"/>
<path opacity="0.5" d="M250.199 148.814C249.649 149.472 250.758 149.472 250.605 150.121C250.452 150.77 251.353 150.536 251.614 150.419C252.054 149.897 252.319 149.251 252.371 148.571C252.272 148.22 251.263 149.166 251.001 149.112C250.728 149.03 250.46 148.93 250.199 148.814Z" fill="#C5B2F7"/>
<path opacity="0.5" d="M246.522 144.173C246.522 143.56 246.215 144.822 246.017 144.281C245.819 143.74 246.215 142.848 245.711 143.209C245.206 143.569 244.963 143.867 244.909 144.173C244.854 144.479 243.953 144.579 244.007 144.281C244.061 143.984 244.413 143.272 244.061 142.974C243.621 142.707 243.144 142.503 242.646 142.37C242.196 142.199 242.7 141.604 241.484 141.902C240.891 142.014 240.326 142.237 239.816 142.56C239.816 142.56 238.708 142.145 238.356 142.614C238.005 143.082 237.5 143.993 237.5 143.993C237.5 143.993 236.094 144.047 235.788 144.101C235.481 144.155 234.977 144.642 234.526 144.822C234.075 145.002 233.318 145.173 233.012 144.876C232.705 144.579 232.21 144.047 232.354 143.686C232.498 143.326 233.616 142.848 233.21 142.262C232.805 141.676 232.561 141.55 232.507 141.19C232.538 140.96 232.513 140.726 232.435 140.508C232.357 140.29 232.227 140.094 232.056 139.937C231.453 139.225 231.597 138.387 231.849 138.27C232.102 138.152 231.705 137.431 231.498 137.134C231.379 136.862 231.335 136.562 231.372 136.268C231.408 135.973 231.523 135.693 231.705 135.458C232.102 135.169 233.318 134.034 233.67 134.034C234.021 134.034 234.571 134.214 234.922 133.917C235.274 133.619 236.337 133.736 236.337 133.502C236.342 132.985 236.465 132.476 236.698 132.015C236.95 131.708 238.005 131.42 238.158 131.177C238.311 130.933 238.555 129.924 238.861 129.744C239.167 129.563 239.42 129.149 239.87 129.744C240.321 130.339 240.772 130.582 240.979 129.987C241.186 129.392 241.033 129.563 241.484 129.086C241.934 128.608 241.43 127.644 241.889 128.184C242.349 128.725 242.646 129.14 242.646 129.14C242.646 129.14 242.592 127.95 242.899 127.95C243.205 127.95 243.503 128.554 243.656 128.554C243.809 128.554 245.17 128.184 245.458 128.554C245.747 128.924 244.746 130.113 245.107 130.528C245.588 130.921 246.111 131.259 246.666 131.537C247.162 131.898 247.775 132.736 248.027 132.024C248.279 131.312 248.784 130.221 248.433 129.699C248.081 129.176 248.532 127.427 248.685 127.31C248.838 127.193 249.09 128.68 249.586 129.338C250.107 129.875 250.534 130.497 250.848 131.177C251.109 131.889 251.154 133.141 251.614 133.565C252.074 133.989 252.975 133.98 252.921 134.511C252.867 135.043 253.93 136.062 254.48 137.071C255.03 138.08 255.093 140.288 255.093 141.244C254.98 142.292 254.615 143.297 254.029 144.173C253.709 144.825 253.438 145.5 253.218 146.192C253.02 146.552 253.128 146.489 252.362 146.724C251.596 146.958 251.046 147.679 250.848 147.445C250.65 147.21 249.947 146.787 249.748 147.084C249.55 147.381 249.28 148.039 248.937 147.318C248.595 146.597 247.775 146.724 247.621 146.606C247.468 146.489 247.468 146.129 247.468 145.534C247.468 144.939 246.819 144.876 246.765 144.705C246.711 144.533 246.522 144.353 246.522 144.173Z" fill="#C5B2F7"/>
<path opacity="0.5" d="M269.775 132.493C270.433 132.79 271.578 131.42 271.145 131.231C270.713 131.042 269.775 132.493 269.775 132.493Z" fill="#C5B2F7"/>
<path opacity="0.5" d="M263.366 135.458C263.267 136.044 262.663 135.764 262.357 135.232C262.05 134.701 261.455 134.277 262.357 134.511C263.258 134.746 263.411 135.169 263.366 135.458Z" fill="#C5B2F7"/>
<path opacity="0.5" d="M220.846 116.044C220.224 116.18 221.747 117.477 221.909 117.649C222.071 117.82 223.414 119.199 223.414 119.857C223.614 120.745 224.012 121.577 224.577 122.29C224.829 122.543 226.091 123.426 226.298 123.913C226.506 124.399 226.947 124.498 226.947 123.849C226.914 123.229 227.035 122.61 227.299 122.047C227.56 121.695 227.452 121.146 227.055 121.218C226.659 121.29 226.298 120.434 225.64 119.902C224.972 119.427 224.366 118.87 223.838 118.244C223.28 117.641 222.677 117.08 222.035 116.567C221.882 116.405 221.698 116.275 221.494 116.185C221.289 116.095 221.069 116.047 220.846 116.044Z" fill="#C5B2F7"/>
<path opacity="0.5" d="M222.809 112.881C222.412 112.944 222.412 113.846 222.611 114.134C222.809 114.423 223.215 114.26 223.512 115.324C223.735 116.211 224.053 117.072 224.458 117.892C224.852 118.374 225.3 118.81 225.792 119.19C226.09 119.488 226.549 119.073 226.342 118.713C226.05 118.316 225.83 117.87 225.693 117.397C225.561 116.761 225.323 116.152 224.99 115.594C224.575 114.882 224.224 114.693 223.972 114.233C223.632 113.743 223.243 113.29 222.809 112.881Z" fill="#C5B2F7"/>
<path opacity="0.5" d="M227.054 124.147C227 124.233 226.962 124.329 226.945 124.43C226.928 124.531 226.93 124.634 226.953 124.734C226.975 124.833 227.018 124.928 227.077 125.011C227.136 125.094 227.211 125.165 227.298 125.219C227.678 125.392 228.101 125.452 228.514 125.391C229.01 125.337 229.722 125.156 229.172 124.805C228.623 124.453 227.956 124.805 227.757 124.327C227.559 123.849 227.253 123.849 227.054 124.147Z" fill="#C5B2F7"/>
<path opacity="0.5" d="M229.975 124.598C229.623 124.778 229.073 124.895 229.47 125.31C229.61 125.506 229.803 125.66 230.026 125.754C230.248 125.848 230.493 125.878 230.732 125.841C231.336 125.787 232.246 126.211 232.3 125.841C232.354 125.472 231.741 124.94 231.489 124.94C230.978 124.855 230.472 124.741 229.975 124.598Z" fill="#C5B2F7"/>
<path opacity="0.5" d="M234.914 126.59C234.805 127.121 235.671 127.365 235.734 126.77C235.742 126.668 235.714 126.566 235.653 126.483C235.592 126.401 235.503 126.343 235.403 126.321C235.302 126.299 235.198 126.314 235.108 126.363C235.018 126.413 234.949 126.493 234.914 126.59Z" fill="#C5B2F7"/>
<path opacity="0.5" d="M237.59 127.013C237.672 127.653 238.699 126.644 238.699 126.644C238.699 126.644 239.51 126.526 239.51 126.112C239.51 125.697 238.699 125.156 238.402 125.634C238.104 126.112 237.545 126.589 237.59 127.013Z" fill="#C5B2F7"/>
<path opacity="0.5" d="M235.374 120.334C235.077 120.443 235.122 120.749 235.023 121.344C234.924 121.939 234.473 122.353 234.87 122.651C235.266 122.948 236.032 121.641 236.23 122.056C236.429 122.47 236.176 122.651 236.537 123.191C236.65 123.351 236.803 123.478 236.979 123.562C237.156 123.645 237.351 123.682 237.546 123.669C237.546 123.669 237.492 122.236 236.942 121.867C236.393 121.497 236.041 121.101 236.69 121.218C237.339 121.335 237.691 121.037 237.546 120.686C237.402 120.334 236.438 120.506 236.131 120.56C235.862 120.563 235.598 120.485 235.374 120.334Z" fill="#C5B2F7"/>
<path opacity="0.5" d="M235.671 119.19C235.32 119.605 235.572 120.019 236.131 119.956C236.69 119.893 237.853 119.722 238.096 119.722C238.339 119.722 238.7 118.947 238.501 118.947C237.894 119.031 237.292 119.151 236.699 119.307C236.353 119.301 236.009 119.262 235.671 119.19Z" fill="#C5B2F7"/>
<path opacity="0.5" d="M240.817 118.289C240.357 118.063 239.51 120.262 240.114 120.434C240.718 120.605 241.177 118.487 240.817 118.289Z" fill="#C5B2F7"/>
<path opacity="0.5" d="M233.914 115.152C233.914 114.72 233.103 115.27 233.058 115.684C233.013 116.099 233.608 116.459 232.653 116.459C231.697 116.459 231.643 117.361 231.445 117.541C231.2 117.71 230.924 117.829 230.634 117.892C230.228 118.01 230.129 118.487 230.03 118.794C229.931 119.1 229.228 118.262 229.011 118.496C228.873 119.282 228.983 120.092 229.327 120.812C229.45 121.166 229.649 121.488 229.911 121.756C230.173 122.024 230.49 122.231 230.841 122.363C231.212 122.348 231.583 122.39 231.941 122.489C232.301 122.606 233.464 122.723 233.401 122.191C233.326 121.865 233.319 121.527 233.381 121.198C233.443 120.869 233.572 120.557 233.761 120.281C234.266 119.74 234.771 119.443 234.518 118.667C234.266 117.892 233.761 117.415 234.113 117.063C234.464 116.712 234.87 116.585 234.87 116.288C234.87 115.991 234.013 117.117 233.914 115.152Z" fill="#C5B2F7"/>
<path opacity="0.5" d="M236.428 106.752C236.076 106.752 236.482 107.401 235.977 107.825C235.473 108.249 234.914 108.411 235.22 109.132C235.527 109.853 236.581 110.376 236.329 110.682C236.076 110.988 235.319 111.583 235.22 112.106C235.121 112.629 236.428 111.277 236.779 110.736C237.131 110.195 237.834 110.502 237.987 110.204L238.14 109.907C237.797 109.831 237.46 109.732 237.131 109.609C236.68 109.429 236.13 110.078 236.374 109.132C236.617 108.185 237.392 108.357 237.275 107.636C237.158 106.915 236.536 106.752 236.428 106.752Z" fill="#C5B2F7"/>
<path opacity="0.5" d="M236.842 111.98C236.67 112.052 236.229 113.115 236.788 113.115C237.346 113.115 238.302 113.287 238.094 112.989C237.887 112.692 237.391 111.691 236.842 111.98Z" fill="#C5B2F7"/>
<path opacity="0.5" d="M238.502 111.079C238.303 111.079 237.646 112.331 238.547 112.268C239.448 112.205 239.205 111.079 238.502 111.079Z" fill="#C5B2F7"/>
<path opacity="0.5" d="M238.655 113.242C237.943 114.314 237.997 114.08 237.492 113.846C236.987 113.611 236.176 114.377 236.329 114.666C236.483 114.954 237.591 114.612 237.853 115.152C238.114 115.693 238.096 115.738 238.601 115.621C238.871 115.517 239.101 115.328 239.255 115.083C239.409 114.838 239.48 114.549 239.457 114.26C239.251 113.876 238.98 113.532 238.655 113.242Z" fill="#C5B2F7"/>
<path opacity="0.5" d="M242.079 120.272C241.7 120.713 241.529 120.749 242.385 120.921C243.241 121.092 243.494 121.11 243.133 121.588C242.773 122.065 242.538 122.651 242.836 122.714C243.133 122.777 244.053 122.48 244.143 122.714C244.233 122.948 243.953 123.011 244.963 123.192C245.245 123.215 245.517 123.302 245.761 123.445C246.004 123.589 246.212 123.786 246.369 124.021C246.567 124.264 247.18 125.039 246.774 125.039C246.369 125.039 245.873 125.634 246.216 125.688C246.558 125.742 247.423 125.517 247.477 125.688C247.531 125.859 248.027 127.013 248.532 126.95C249.037 126.887 249.343 125.814 249.595 125.517C249.848 125.22 250.857 125.039 250.956 125.571C251.011 125.87 251.129 126.154 251.303 126.402C251.478 126.651 251.704 126.86 251.966 127.013C252.579 127.365 253.282 127.725 253.336 127.419C253.39 127.112 253.029 125.995 252.615 125.814C252.073 125.424 251.684 124.856 251.515 124.21C251.515 123.787 250.911 123.669 250.614 123.372C250.316 123.075 250.064 122.236 249.298 122.056C248.661 121.848 248.065 121.527 247.54 121.11C246.729 120.632 244.918 120.632 244.837 120.921C244.756 121.209 244.837 120.921 244.233 120.695C243.629 120.47 243.169 120.695 243.025 120.272C242.881 119.848 242.538 119.731 242.079 120.272Z" fill="#C5B2F7"/>
</g>
<g opacity="0.5">
<path opacity="0.6" d="M256 103.191H258.244V99.2519H262.183V103.191H264.435V93.061H262.183V97H258.244V93.061H256V103.191Z" fill="white"/>
<path opacity="0.6" d="M269.474 101.298C269.684 101.299 269.892 101.257 270.085 101.174C270.278 101.092 270.452 100.97 270.596 100.817C270.902 100.417 271.068 99.9273 271.068 99.4236C271.068 98.9199 270.902 98.4303 270.596 98.0305C270.453 97.8767 270.28 97.7541 270.088 97.6702C269.895 97.5864 269.687 97.5431 269.478 97.5431C269.268 97.5431 269.06 97.5864 268.868 97.6702C268.675 97.7541 268.502 97.8767 268.359 98.0305C268.034 98.4176 267.873 98.9158 267.909 99.4198C267.876 99.9233 268.031 100.421 268.344 100.817C268.486 100.974 268.661 101.098 268.856 101.181C269.051 101.264 269.262 101.304 269.474 101.298ZM269.474 103.305C268.776 103.314 268.086 103.152 267.466 102.832C266.882 102.521 266.395 102.053 266.062 101.481C265.715 100.85 265.541 100.139 265.558 99.4198C265.543 98.706 265.723 98.0016 266.077 97.3816C266.406 96.7997 266.897 96.3253 267.489 96.0152C268.114 95.704 268.802 95.542 269.5 95.542C270.199 95.542 270.887 95.704 271.512 96.0152C272.104 96.3253 272.595 96.7997 272.924 97.3816C273.265 98.0111 273.443 98.7155 273.443 99.4313C273.443 100.147 273.265 100.851 272.924 101.481C272.586 102.057 272.091 102.526 271.497 102.832C270.874 103.162 270.179 103.333 269.474 103.328V103.305Z" fill="white"/>
<path opacity="0.6" d="M276.816 93.061H274.564V103.191H276.816V93.061Z" fill="white"/>
<path opacity="0.6" d="M283.565 99.42C283.593 98.9199 283.423 98.4289 283.091 98.0535C282.944 97.8929 282.765 97.7655 282.565 97.68C282.365 97.5944 282.149 97.5526 281.931 97.5574C281.711 97.5552 281.494 97.5981 281.292 97.6834C281.089 97.7688 280.907 97.8948 280.755 98.0535C280.425 98.4238 280.255 98.9095 280.282 99.4047C280.257 99.9089 280.426 100.403 280.755 100.786C280.905 100.948 281.087 101.076 281.29 101.163C281.492 101.249 281.711 101.293 281.931 101.29C282.149 101.294 282.366 101.251 282.566 101.164C282.766 101.077 282.945 100.948 283.091 100.786C283.256 100.601 283.383 100.385 283.464 100.15C283.545 99.9159 283.579 99.6676 283.565 99.42ZM277.939 99.42C277.925 98.717 278.072 98.0202 278.366 97.3818C278.634 96.8279 279.052 96.3599 279.572 96.0306C280.076 95.7115 280.663 95.5469 281.259 95.5574C281.742 95.5466 282.219 95.6569 282.649 95.878C283.025 96.0755 283.342 96.3708 283.565 96.7329V95.6642H285.816V103.214H283.565V102.145C283.334 102.504 283.012 102.796 282.633 102.992C282.206 103.22 281.728 103.333 281.244 103.321C280.653 103.325 280.073 103.161 279.572 102.847C279.055 102.508 278.638 102.036 278.366 101.481C278.069 100.83 277.923 100.12 277.939 99.4047V99.42Z" fill="white"/>
<path opacity="0.6" fill-rule="evenodd" clip-rule="evenodd" d="M269.495 90.8169C269.274 90.8184 269.058 90.8855 268.874 91.0097C268.69 91.1339 268.548 91.3097 268.464 91.5149C268.38 91.7201 268.359 91.9455 268.403 92.1626C268.448 92.3798 268.555 92.579 268.712 92.7352C268.869 92.8914 269.069 92.9975 269.287 93.0402C269.504 93.0828 269.73 93.0602 269.934 92.975C270.139 92.8899 270.314 92.7461 270.437 92.5617C270.559 92.3773 270.625 92.1607 270.625 91.9391C270.625 91.7911 270.596 91.6445 270.539 91.5079C270.482 91.3712 270.399 91.2472 270.294 91.1429C270.189 91.0386 270.064 90.9561 269.927 90.9001C269.79 90.8442 269.643 90.8159 269.495 90.8169ZM268.938 91.9391C268.938 92.0511 268.971 92.1606 269.034 92.2537C269.096 92.3467 269.185 92.4191 269.289 92.4616C269.392 92.5042 269.506 92.5149 269.616 92.4925C269.726 92.47 269.826 92.4155 269.905 92.3357C269.984 92.2559 270.037 92.1546 270.058 92.0445C270.079 91.9344 270.067 91.8206 270.023 91.7175C269.979 91.6145 269.905 91.5268 269.811 91.4656C269.717 91.4045 269.607 91.3727 269.495 91.3742C269.347 91.3762 269.205 91.4366 269.101 91.5423C268.997 91.648 268.938 91.7906 268.938 91.9391Z" fill="white"/>
<path opacity="0.6" fill-rule="evenodd" clip-rule="evenodd" d="M275.687 88C275.389 88 275.104 88.1182 274.893 88.3287C274.683 88.5391 274.564 88.8245 274.564 89.1221V90.2519C274.564 90.5495 274.683 90.8349 274.893 91.0454C275.104 91.2558 275.389 91.374 275.687 91.374C275.984 91.374 276.27 91.2558 276.48 91.0454C276.691 90.8349 276.809 90.5495 276.809 90.2519V89.1221C276.809 88.8245 276.691 88.5391 276.48 88.3287C276.27 88.1182 275.984 88 275.687 88ZM276.251 90.2519V89.1221C276.251 88.9723 276.192 88.8286 276.086 88.7227C275.98 88.6168 275.836 88.5573 275.687 88.5573C275.537 88.5573 275.393 88.6168 275.287 88.7227C275.181 88.8286 275.122 88.9723 275.122 89.1221V90.2519C275.122 90.4017 275.181 90.5454 275.287 90.6513C275.393 90.7573 275.537 90.8168 275.687 90.8168C275.836 90.8168 275.98 90.7573 276.086 90.6513C276.192 90.5454 276.251 90.4017 276.251 90.2519Z" fill="white"/>
<path opacity="0.6" fill-rule="evenodd" clip-rule="evenodd" d="M283.603 89.2215C283.391 89.0126 283.106 88.8955 282.809 88.8955C282.512 88.8955 282.226 89.0126 282.015 89.2215L280.42 90.8169C280.209 91.0285 280.091 91.315 280.092 91.6135C280.093 91.912 280.212 92.1979 280.423 92.4085C280.635 92.619 280.921 92.7369 281.22 92.7362C281.518 92.7355 281.804 92.6162 282.015 92.4047L283.603 90.8169C283.708 90.7125 283.792 90.5883 283.849 90.4514C283.906 90.3144 283.936 90.1675 283.936 90.0192C283.936 89.8708 283.906 89.7239 283.849 89.587C283.792 89.45 283.708 89.3258 283.603 89.2215ZM281.618 92.0077L283.206 90.4123C283.262 90.3056 283.283 90.1836 283.265 90.0642C283.247 89.9448 283.191 89.8343 283.106 89.749C283.02 89.6636 282.91 89.6078 282.791 89.5898C282.671 89.5718 282.549 89.5925 282.442 89.6489L280.794 91.2138C280.725 91.2617 280.668 91.3243 280.626 91.397C280.584 91.4697 280.559 91.5508 280.553 91.6343C280.547 91.7178 280.559 91.8018 280.589 91.88C280.619 91.9582 280.666 92.0287 280.727 92.0865C280.787 92.1443 280.86 92.1879 280.94 92.214C281.019 92.2402 281.104 92.2484 281.187 92.2379C281.27 92.2275 281.35 92.1986 281.42 92.1535C281.491 92.1084 281.551 92.0482 281.595 91.9772L281.618 92.0077Z" fill="white"/>
<path opacity="0.6" d="M291.037 103.191C290.515 103.202 289.996 103.109 289.511 102.916C289.103 102.754 288.743 102.492 288.465 102.153C288.211 101.82 288.065 101.418 288.045 101H289.289C289.307 101.172 289.361 101.339 289.448 101.489C289.535 101.639 289.652 101.769 289.793 101.87C290.15 102.107 290.572 102.224 290.999 102.206C291.386 102.227 291.768 102.122 292.091 101.909C292.214 101.823 292.315 101.709 292.384 101.576C292.454 101.443 292.489 101.295 292.488 101.145C292.488 101.002 292.448 100.862 292.372 100.74C292.297 100.619 292.189 100.521 292.06 100.458C291.642 100.256 291.201 100.105 290.747 100.008C290.296 99.8968 289.852 99.7566 289.419 99.5879C289.084 99.4461 288.786 99.2293 288.549 98.9543C288.325 98.6501 288.204 98.2823 288.204 97.9047C288.204 97.527 288.325 97.1592 288.549 96.8551C288.791 96.5349 289.115 96.2869 289.488 96.1375C289.93 95.9547 290.406 95.8638 290.885 95.8703C291.585 95.8385 292.275 96.0488 292.839 96.4657C293.076 96.6658 293.266 96.9147 293.398 97.1953C293.53 97.4759 293.6 97.7817 293.602 98.0917H292.396C292.386 97.9184 292.339 97.7492 292.259 97.5952C292.179 97.4413 292.067 97.3061 291.93 97.1986C291.609 96.9615 291.215 96.8428 290.816 96.8627C290.45 96.8441 290.087 96.9402 289.778 97.1375C289.66 97.2143 289.563 97.3196 289.496 97.4437C289.429 97.5677 289.395 97.7066 289.396 97.8474C289.391 98.0624 289.47 98.2709 289.617 98.4276C289.791 98.581 289.99 98.7025 290.205 98.7864C290.525 98.9033 290.851 99.0027 291.182 99.0841C291.618 99.1905 292.044 99.3309 292.457 99.5039C292.783 99.6245 293.072 99.8269 293.297 100.092C293.543 100.387 293.675 100.761 293.671 101.145C293.672 101.52 293.554 101.887 293.335 102.191C293.096 102.525 292.772 102.789 292.396 102.954C291.964 103.124 291.502 103.205 291.037 103.191Z" fill="white"/>
<path opacity="0.6" d="M298.557 95.8778C299.088 95.8728 299.612 95.9987 300.083 96.2442C300.543 96.4871 300.916 96.8656 301.152 97.3282C301.433 97.8725 301.569 98.4795 301.549 99.0916V103.191H300.312V99.2671C300.358 98.6449 300.155 98.0301 299.748 97.5572C299.549 97.3562 299.311 97.1992 299.048 97.0966C298.785 96.9941 298.503 96.9481 298.221 96.9618C297.928 96.9467 297.636 96.9932 297.362 97.0984C297.089 97.2036 296.84 97.3651 296.633 97.5725C296.22 98.0751 296.015 98.7172 296.061 99.3664V103.183H294.809V93.061H296.061V97.0839C296.309 96.6972 296.661 96.3877 297.076 96.1908C297.54 95.9779 298.046 95.871 298.557 95.8778Z" fill="white"/>
<path opacity="0.6" d="M303.817 95.8779H302.695V103.191H303.817V95.8779Z" fill="white"/>
<path opacity="0.6" d="M302.657 94.5041C302.736 94.5841 302.832 94.6471 302.937 94.6891C303.042 94.7311 303.154 94.7512 303.267 94.7483C303.376 94.7512 303.484 94.7309 303.584 94.6888C303.684 94.6467 303.774 94.5837 303.847 94.5041C303.93 94.4293 303.996 94.3372 304.039 94.2343C304.083 94.1314 304.103 94.0203 304.099 93.9086C304.101 93.7962 304.08 93.6846 304.036 93.5808C303.993 93.477 303.929 93.3833 303.847 93.3056C303.774 93.226 303.684 93.163 303.584 93.1209C303.484 93.0787 303.376 93.0584 303.267 93.0613C303.039 93.0589 302.82 93.1467 302.657 93.3056C302.578 93.3848 302.516 93.4789 302.474 93.5825C302.432 93.686 302.411 93.7969 302.412 93.9086C302.41 94.0193 302.431 94.1293 302.473 94.2317C302.515 94.3341 302.577 94.4268 302.657 94.5041Z" fill="white"/>
<path opacity="0.6" d="M311.031 99.5115C311.045 99.0277 310.932 98.5487 310.703 98.1222C310.499 97.7391 310.185 97.4255 309.802 97.2214C309.428 97.0154 309.008 96.9101 308.581 96.9161C308.152 96.9126 307.731 97.0233 307.359 97.2367C306.978 97.4499 306.665 97.7677 306.459 98.1527C306.213 98.5727 306.076 99.0478 306.062 99.5344C306.076 100.028 306.212 100.511 306.459 100.939C306.664 101.32 306.971 101.637 307.346 101.854C307.72 102.071 308.148 102.18 308.581 102.168C309.008 102.174 309.428 102.069 309.802 101.863C310.182 101.646 310.492 101.326 310.695 100.939C310.927 100.5 311.043 100.008 311.031 99.5115ZM306.069 97.3054C306.353 96.881 306.739 96.5345 307.192 96.2978C307.694 96.0152 308.264 95.8729 308.84 95.8856C309.448 95.8795 310.046 96.0349 310.573 96.3359C311.099 96.6367 311.528 97.0817 311.81 97.6184C312.118 98.2009 312.273 98.8525 312.26 99.5115C312.271 100.178 312.116 100.836 311.81 101.428C311.524 101.967 311.093 102.417 310.566 102.725C310.041 103.034 309.442 103.195 308.833 103.191C308.294 103.202 307.761 103.081 307.279 102.839C306.797 102.596 306.382 102.24 306.069 101.802V106H304.947V95.8779H306.069V97.3054Z" fill="white"/>
</g>
</g>
<path d="M54.6085 125.129C54.2605 122.952 52.5552 121.679 50.4025 121.679C47.7676 121.679 45.8237 123.653 45.8237 126.909C45.8237 130.165 47.7576 132.139 50.4025 132.139C52.6397 132.139 54.2754 130.737 54.6085 128.724L53.0574 128.719C52.7939 130.021 51.7001 130.737 50.4125 130.737C48.6674 130.737 47.35 129.4 47.35 126.909C47.35 124.438 48.6625 123.081 50.4174 123.081C51.715 123.081 52.8038 123.812 53.0574 125.129H54.6085ZM65.2912 126.909C65.2912 123.653 63.3423 121.679 60.7074 121.679C58.0625 121.679 56.1186 123.653 56.1186 126.909C56.1186 130.161 58.0625 132.139 60.7074 132.139C63.3423 132.139 65.2912 130.165 65.2912 126.909ZM63.7699 126.909C63.7699 129.39 62.4574 130.737 60.7074 130.737C58.9524 130.737 57.6449 129.39 57.6449 126.909C57.6449 124.428 58.9524 123.081 60.7074 123.081C62.4574 123.081 63.7699 124.428 63.7699 126.909ZM75.4245 121.818H73.9032V129.295H73.8088L68.6284 121.818H67.2065V132H68.7427V124.533H68.8372L74.0126 132H75.4245V121.818ZM84.5561 125.035H86.1321C85.7891 123.051 84.0938 121.679 81.8963 121.679C79.2614 121.679 77.3374 123.663 77.3374 126.914C77.3374 130.136 79.2067 132.139 81.9659 132.139C84.4368 132.139 86.2017 130.518 86.2017 127.948V126.79H82.1996V128.058H84.7152C84.6804 129.698 83.5966 130.737 81.9659 130.737C80.1712 130.737 78.8636 129.38 78.8636 126.904C78.8636 124.438 80.1811 123.081 81.9062 123.081C83.2585 123.081 84.1733 123.827 84.5561 125.035ZM91.3548 123.141H94.5266V132H96.0579V123.141H99.2347V121.818H91.3548V123.141ZM100.191 121.818L103.884 128.003V132H105.416V128.003L109.11 121.818H107.365L104.705 126.447H104.595L101.936 121.818H100.191ZM122.722 125.129C122.374 122.952 120.669 121.679 118.516 121.679C115.881 121.679 113.937 123.653 113.937 126.909C113.937 130.165 115.871 132.139 118.516 132.139C120.753 132.139 122.389 130.737 122.722 128.724L121.171 128.719C120.907 130.021 119.813 130.737 118.526 130.737C116.781 130.737 115.463 129.4 115.463 126.909C115.463 124.438 116.776 123.081 118.531 123.081C119.828 123.081 120.917 123.812 121.171 125.129H122.722ZM133.404 126.909C133.404 123.653 131.456 121.679 128.821 121.679C126.176 121.679 124.232 123.653 124.232 126.909C124.232 130.161 126.176 132.139 128.821 132.139C131.456 132.139 133.404 130.165 133.404 126.909ZM131.883 126.909C131.883 129.39 130.571 130.737 128.821 130.737C127.066 130.737 125.758 129.39 125.758 126.909C125.758 124.428 127.066 123.081 128.821 123.081C130.571 123.081 131.883 124.428 131.883 126.909ZM139.025 132H140.561V128.42H142.649C145.011 128.42 146.179 126.994 146.179 125.114C146.179 123.24 145.021 121.818 142.654 121.818H139.025V132ZM140.561 127.118V123.136H142.49C144.011 123.136 144.633 123.961 144.633 125.114C144.633 126.268 144.011 127.118 142.51 127.118H140.561ZM147.98 132H149.516V127.56H154.592V132H156.133V121.818H154.592V126.243H149.516V121.818H147.98V132ZM159.231 132L160.165 129.305H164.143L165.072 132H166.703L163.039 121.818H161.264L157.6 132H159.231ZM160.613 128.013L162.114 123.668H162.194L163.695 128.013H160.613ZM176.391 121.818H174.87V129.295H174.776L169.595 121.818H168.173V132H169.71V124.533H169.804L174.979 132H176.391V121.818ZM190.794 125.129C190.446 122.952 188.741 121.679 186.588 121.679C183.953 121.679 182.009 123.653 182.009 126.909C182.009 130.165 183.943 132.139 186.588 132.139C188.825 132.139 190.461 130.737 190.794 128.724L189.243 128.719C188.979 130.021 187.886 130.737 186.598 130.737C184.853 130.737 183.536 129.4 183.536 126.909C183.536 124.438 184.848 123.081 186.603 123.081C187.901 123.081 188.989 123.812 189.243 125.129H190.794ZM201.477 126.909C201.477 123.653 199.528 121.679 196.893 121.679C194.248 121.679 192.304 123.653 192.304 126.909C192.304 130.161 194.248 132.139 196.893 132.139C199.528 132.139 201.477 130.165 201.477 126.909ZM199.955 126.909C199.955 129.39 198.643 130.737 196.893 130.737C195.138 130.737 193.83 129.39 193.83 126.909C193.83 124.428 195.138 123.081 196.893 123.081C198.643 123.081 199.955 124.428 199.955 126.909ZM211.61 121.818H210.089V129.295H209.994L204.814 121.818H203.392V132H204.928V124.533H205.023L210.198 132H211.61V121.818ZM220.742 125.035H222.318C221.975 123.051 220.279 121.679 218.082 121.679C215.447 121.679 213.523 123.663 213.523 126.914C213.523 130.136 215.392 132.139 218.151 132.139C220.622 132.139 222.387 130.518 222.387 127.948V126.79H218.385V128.058H220.901C220.866 129.698 219.782 130.737 218.151 130.737C216.357 130.737 215.049 129.38 215.049 126.904C215.049 124.438 216.367 123.081 218.092 123.081C219.444 123.081 220.359 123.827 220.742 125.035ZM236.26 121.818H234.739V129.295H234.645L229.464 121.818H228.042V132H229.579V124.533H229.673L234.849 132H236.26V121.818ZM245.392 125.035H246.968C246.625 123.051 244.93 121.679 242.732 121.679C240.097 121.679 238.173 123.663 238.173 126.914C238.173 130.136 240.043 132.139 242.802 132.139C245.273 132.139 247.038 130.518 247.038 127.948V126.79H243.036V128.058H245.551C245.516 129.698 244.433 130.737 242.802 130.737C241.007 130.737 239.7 129.38 239.7 126.904C239.7 124.438 241.017 123.081 242.742 123.081C244.094 123.081 245.009 123.827 245.392 125.035ZM248.988 132H250.524V127.56H255.6V132H257.141V121.818H255.6V126.243H250.524V121.818H248.988V132ZM259.378 132H265.822V130.678H260.915V127.56H265.429V126.243H260.915V123.141H265.762V121.818H259.378V132ZM272.409 121.818H270.748L274.412 132H276.187L279.851 121.818H278.191L275.357 130.111H275.243L272.409 121.818ZM281.143 132L282.077 129.305H286.055L286.984 132H288.615L284.951 121.818H283.176L279.512 132H281.143ZM282.525 128.013L284.026 123.668H284.106L285.607 128.013H282.525ZM116.139 149C119.242 149 121.036 147.076 121.036 143.894C121.036 140.727 119.242 138.818 116.244 138.818H112.843V149H116.139ZM114.379 147.658V140.161H116.149C118.377 140.161 119.525 141.493 119.525 143.894C119.525 146.305 118.377 147.658 116.055 147.658H114.379ZM124.483 138.818H122.947V149H124.483V138.818ZM135.177 142.129C134.829 139.952 133.124 138.679 130.971 138.679C128.336 138.679 126.392 140.653 126.392 143.909C126.392 147.165 128.326 149.139 130.971 149.139C133.208 149.139 134.844 147.737 135.177 145.724L133.626 145.719C133.362 147.021 132.268 147.737 130.981 147.737C129.236 147.737 127.918 146.4 127.918 143.909C127.918 141.438 129.231 140.081 130.986 140.081C132.283 140.081 133.372 140.812 133.626 142.129H135.177ZM137.015 149H138.551V144.56H143.627V149H145.169V138.818H143.627V143.243H138.551V138.818H137.015V149ZM152.001 138.818H150.34L154.004 149H155.779L159.443 138.818H157.783L154.949 147.111H154.835L152.001 138.818ZM167.461 138.818V145.391C167.461 146.773 166.507 147.767 164.955 147.767C163.409 147.767 162.45 146.773 162.45 145.391V138.818H160.914V145.515C160.914 147.653 162.514 149.169 164.955 149.169C167.396 149.169 169.002 147.653 169.002 145.515V138.818H167.461ZM176.477 138.818H174.941V149H176.477V138.818ZM178.714 138.818V149H180.176V141.627H180.27L183.273 148.985H184.486L187.489 141.632H187.584V149H189.045V138.818H187.181L183.939 146.733H183.82L180.579 138.818H178.714ZM191.279 149H197.722V147.678H192.815V144.56H197.329V143.243H192.815V140.141H197.662V138.818H191.279V149ZM203.01 149C206.113 149 207.907 147.076 207.907 143.894C207.907 140.727 206.113 138.818 203.115 138.818H199.714V149H203.01ZM201.251 147.658V140.161H203.02C205.248 140.161 206.396 141.493 206.396 143.894C206.396 146.305 205.248 147.658 202.926 147.658H201.251ZM211.354 138.818H209.818V149H211.354V138.818ZM214.451 149L215.386 146.305H219.363L220.293 149H221.924L218.26 138.818H216.485L212.821 149H214.451ZM215.833 145.013L217.335 140.668H217.414L218.916 145.013H215.833Z" fill="#8D869D"/>
<defs>
<filter id="filter0_d_5184_768" x="0" y="0" width="333" height="189" filterUnits="userSpaceOnUse" color-interpolation-filters="sRGB">
<feFlood flood-opacity="0" result="BackgroundImageFix"/>
<feColorMatrix in="SourceAlpha" type="matrix" values="0 0 0 0 0 0 0 0 0 0 0 0 0 0 0 0 0 0 127 0" result="hardAlpha"/>
<feOffset/>
<feGaussianBlur stdDeviation="4"/>
<feColorMatrix type="matrix" values="0 0 0 0 0 0 0 0 0 0 0 0 0 0 0 0 0 0 0.25 0"/>
<feBlend mode="normal" in2="BackgroundImageFix" result="effect1_dropShadow_5184_768"/>
<feBlend mode="normal" in="SourceGraphic" in2="effect1_dropShadow_5184_768" result="shape"/>
</filter>
</defs>
</svg>
