<svg width="15" height="15" viewBox="0 0 15 15" fill="none" xmlns="http://www.w3.org/2000/svg">
<path d="M13.9329 7.26676C13.9329 6.81103 13.5635 6.43343 13.1077 6.43343H8.09961V1.42529C8.09961 0.969557 7.72201 0.600098 7.26628 0.600098C6.81054 0.600098 6.43294 0.969557 6.43294 1.42529V6.43343H1.4248C0.969069 6.43343 0.599609 6.81103 0.599609 7.26676C0.599609 7.7225 0.969068 8.1001 1.4248 8.1001H6.43294V13.1082C6.43294 13.564 6.81054 13.9334 7.26628 13.9334C7.72201 13.9334 8.09961 13.564 8.09961 13.1082V8.1001H13.1077C13.5635 8.1001 13.9329 7.7225 13.9329 7.26676Z" fill="#885DE5" stroke="#885DE5"/>
</svg>
