<svg width="100" height="100" viewBox="0 0 100 100" fill="none" xmlns="http://www.w3.org/2000/svg">
<path d="M66.8824 24.0352C65.8188 25.1046 64.298 25.8142 62.6921 25.8142C61.0861 25.8142 59.576 25.1894 58.5017 24.0352C57.4276 25.1046 55.9173 25.8142 54.3113 25.8142C52.7053 25.8142 51.1953 25.1894 50.121 24.0352C49.0469 25.1046 47.5366 25.8142 45.9306 25.8142C44.3246 25.8142 42.8146 25.1894 41.7403 24.0352C40.6767 25.1046 39.1559 25.8142 37.5499 25.8142C35.9439 25.8142 34.4338 25.1894 33.3596 24.0352C32.2854 25.1046 30.7752 25.8142 29.1692 25.8142C28.6375 25.8142 28.1908 25.7295 27.6484 25.6342V74.4599C28.0951 74.3752 28.6268 74.2799 29.1692 74.2799C30.7752 74.2799 32.2853 74.9046 33.3596 76.0589C34.4337 74.9895 35.9439 74.2799 37.5499 74.2799C39.1559 74.2799 40.666 74.9046 41.7403 76.0589C42.8144 74.9895 44.3246 74.2799 45.9306 74.2799C47.5366 74.2799 49.0467 74.9046 50.121 76.0589C51.1951 74.9895 52.7053 74.2799 54.3113 74.2799C55.9173 74.2799 57.4274 74.9046 58.5017 76.0589C59.5758 74.9895 61.0861 74.2799 62.6921 74.2799C64.298 74.2799 65.8081 74.9046 66.8824 76.0589C67.9565 74.9895 69.4668 74.2799 71.0728 74.2799C71.6045 74.2799 72.0511 74.3646 72.5935 74.4599V25.5495C72.1469 25.6342 71.6152 25.7295 71.0728 25.7295C69.4775 25.7188 68.0417 25.1048 66.8824 24.0352Z" fill="white"/>
<path d="M74.9961 20.7531C74.2836 20.4884 73.4753 20.7531 73.0392 21.2825C72.5926 21.9072 71.88 22.1719 71.1674 22.1719C69.8274 22.1719 68.7638 21.1025 68.7638 19.7788C68.764 18.8047 67.9662 18 66.9772 18C65.9988 18 65.1904 18.7941 65.1904 19.779C65.1904 21.1131 64.1163 22.1721 62.7868 22.1721C61.3616 22.1721 60.2875 21.1027 60.2875 19.779C60.2875 18.8047 59.4899 18 58.5009 18C57.5225 18 56.7141 18.7941 56.7141 19.779C56.7141 21.1131 55.64 22.1721 54.3105 22.1721C52.9706 22.1721 51.907 21.1027 51.907 19.779C51.907 18.8047 51.1094 18 50.1202 18C49.1418 18 48.3334 18.7941 48.3334 19.779C48.3334 21.1131 47.2593 22.1721 45.9298 22.1721C44.5046 22.1721 43.3455 21.1027 43.3455 19.779C43.3456 18.8047 42.5479 18 41.5588 18C40.5805 18 39.772 18.7941 39.772 19.779C39.772 21.1131 38.6979 22.1721 37.3685 22.1721C36.039 22.1721 34.9649 21.1027 34.9649 19.779C34.9649 18.8047 34.1673 18 33.1783 18C32.1999 18 31.3915 18.7941 31.3915 19.779C31.3915 21.1131 30.3174 22.1721 28.9879 22.1721C28.2754 22.1721 27.5627 21.8121 27.1161 21.2827C26.6694 20.658 25.8717 20.4886 25.1592 20.7533C24.4467 21.018 24 21.6427 24 22.437V77.563C24 78.2724 24.4467 78.982 25.1592 79.2467C25.8717 79.5114 26.6799 79.2467 27.1161 78.7173C27.5627 78.0926 28.2752 77.8279 28.9879 77.8279C30.3279 77.8279 31.3915 78.8973 31.3915 80.221C31.3915 81.1951 32.1891 82 33.1783 82C34.1566 82 34.9651 81.2059 34.9651 80.221C34.9651 78.8869 36.0392 77.8279 37.3686 77.8279C38.6981 77.8279 39.7722 78.8973 39.7722 80.221C39.7722 81.1951 40.5698 82 41.559 82C42.5374 82 43.3458 81.2059 43.3458 80.221C43.3458 78.8869 44.4199 77.8279 45.7493 77.8279C47.0893 77.8279 48.1529 78.8973 48.1529 80.221C48.1529 81.1951 48.9505 82 49.9397 82C50.9181 82 51.7265 81.2059 51.7265 80.221C51.7265 78.8869 52.8006 77.8279 54.1301 77.8279C55.4595 77.8279 56.5336 78.8973 56.5336 80.221C56.5336 81.1951 57.3312 82 58.3204 82C59.2988 82 60.1072 81.2059 60.1072 80.221C60.1072 78.8869 61.1813 77.8279 62.5108 77.8279C63.8507 77.8279 64.9143 78.8973 64.9143 80.221C64.9143 81.1951 65.7119 82 66.7011 82C67.6797 82 68.4879 81.2059 68.4879 80.221C68.4879 78.8869 69.562 77.8279 70.8915 77.8279C71.604 77.8279 72.3167 78.1879 72.7633 78.7173C73.21 79.342 74.0077 79.5114 74.7202 79.2467C75.4327 78.982 75.8794 78.3573 75.8794 77.563V22.3521C76.2512 21.6425 75.7088 20.9331 74.9961 20.7531ZM72.6778 74.365C72.2311 74.2804 71.6994 74.185 71.157 74.185C69.551 74.185 68.0409 74.8098 66.9666 75.964C65.8925 74.8946 64.3823 74.185 62.7763 74.185C61.1703 74.185 59.6602 74.8098 58.5859 75.964C57.5118 74.8946 56.0016 74.185 54.3956 74.185C52.7896 74.185 51.2795 74.8098 50.2052 75.964C49.1311 74.8946 47.6209 74.185 46.0149 74.185C44.4089 74.185 42.8988 74.8098 41.8245 75.964C40.7504 74.8946 39.2402 74.185 37.6342 74.185C36.0282 74.185 34.5181 74.8098 33.4438 75.964C32.3697 74.8946 30.8594 74.185 29.2534 74.185C28.7217 74.185 28.2751 74.2697 27.7327 74.365V25.5499C28.1793 25.6346 28.711 25.73 29.2534 25.73C30.8594 25.73 32.3695 25.1052 33.4438 23.9509C34.5179 25.0204 36.0282 25.73 37.6342 25.73C39.2402 25.73 40.7502 25.1052 41.8245 23.9509C42.8986 25.0204 44.4089 25.73 46.0149 25.73C47.6209 25.73 49.1309 25.1052 50.2052 23.9509C51.2793 25.0204 52.7896 25.73 54.3956 25.73C56.0016 25.73 57.5117 25.1052 58.5859 23.9509C59.6601 25.0204 61.1703 25.73 62.7763 25.73C64.3823 25.73 65.8924 25.1052 66.9666 23.9509C68.0408 25.0204 69.551 25.73 71.157 25.73C71.6887 25.73 72.1354 25.6453 72.6778 25.5499V74.365Z" fill="#885DE5"/>
<path d="M33.2412 71.6222C32.5287 71.2622 31.816 70.9975 31.1035 70.8282V29.0968C31.816 28.9168 32.6243 28.6521 33.2412 28.3027C34.4856 28.9275 35.9213 29.2768 37.4316 29.2768C38.9524 29.2768 40.3775 28.9168 41.6219 28.3027C42.8663 28.9275 44.302 29.2768 45.8123 29.2768C47.3331 29.2768 48.7583 28.9168 50.0026 28.3027C51.247 28.9275 52.6828 29.2768 54.193 29.2768C55.7138 29.2768 57.139 28.9168 58.3834 28.3027C59.6277 28.9275 61.0635 29.2768 62.5737 29.2768C64.0945 29.2768 65.5197 28.9168 66.7641 28.3027C67.4766 28.6628 68.1893 28.9275 68.9018 29.0968V70.8173C68.1893 70.9974 67.381 71.2621 66.7641 71.6114C65.5197 70.9867 64.084 70.6373 62.5737 70.6373C61.0529 70.6373 59.6277 70.9974 58.3834 71.6114C57.139 70.9867 55.7032 70.6373 54.193 70.6373C52.6722 70.6373 51.247 70.9974 50.0026 71.6114C48.7583 70.9867 47.3225 70.6373 45.8123 70.6373C44.2915 70.6373 42.8663 70.9974 41.6219 71.6114C40.3775 70.9867 38.9418 70.6373 37.4316 70.6373C35.9108 70.6375 34.4856 70.9975 33.2412 71.6222Z" fill="white"/>
<path d="M34.6989 32.56H37.9107C38.8891 32.56 39.6975 31.7659 39.6975 30.781C39.6975 29.796 38.9 29.002 37.9107 29.002H34.6989C33.7205 29.002 32.9121 29.796 32.9121 30.781C32.9121 31.7659 33.7205 32.56 34.6989 32.56Z" fill="#F0A616"/>
<path d="M37.9107 48.0939C38.8891 48.0939 39.6975 47.2998 39.6975 46.3149C39.6975 45.3408 38.9 44.5359 37.9107 44.5359H34.6989C33.7205 44.5359 32.9121 45.33 32.9121 46.3149C32.9121 47.289 33.7097 48.0939 34.6989 48.0939H37.9107Z" fill="#F0A616"/>
<path d="M51.641 44.5468H48.4291C47.4508 44.5468 46.6423 45.3408 46.6423 46.3258C46.6423 47.3105 47.4399 48.1048 48.4291 48.1048H51.641C52.6193 48.1048 53.4278 47.3107 53.4278 46.3258C53.4276 45.3408 52.6193 44.5468 51.641 44.5468Z" fill="#F0A616"/>
<path d="M65.371 44.5468H62.1592C61.1807 44.5468 60.3724 45.3408 60.3724 46.3258C60.3724 47.3105 61.17 48.1048 62.1592 48.1048H65.371C66.3494 48.1048 67.1578 47.3107 67.1578 46.3258C67.1578 45.3408 66.3496 44.5468 65.371 44.5468Z" fill="#F0A616"/>
<path d="M65.371 55.9934H62.1592C61.1807 55.9934 60.3724 56.7875 60.3724 57.7724C60.3724 58.7465 61.17 59.5514 62.1592 59.5514H65.371C66.3494 59.5514 67.1578 58.7573 67.1578 57.7724C67.1578 56.7981 66.3496 55.9934 65.371 55.9934Z" fill="#F0A616"/>
<path d="M65.371 66.4658H62.1592C61.1807 66.4658 60.3724 67.2601 60.3724 68.2448C60.3724 69.2296 61.17 70.0238 62.1592 70.0238H65.371C66.3494 70.0238 67.1578 69.2296 67.1578 68.2448C67.1578 67.2599 66.3496 66.4658 65.371 66.4658Z" fill="#F0A616"/>
<path d="M34.6989 39.1252H45.2172C46.1955 39.1252 47.0039 38.3311 47.0039 37.3461C47.0039 36.3612 46.2064 35.5671 45.2172 35.5671H34.6989C33.7205 35.5671 32.9121 36.3612 32.9121 37.3461C32.9121 38.3311 33.7205 39.1252 34.6989 39.1252Z" fill="#F0A616"/>
<path d="M47.2698 55.9934H36.3047C35.3264 55.9934 34.5179 56.7875 34.5179 57.7724C34.5179 58.7465 35.3155 59.5514 36.3047 59.5514H47.2698C48.2482 59.5514 49.0566 58.7573 49.0566 57.7724C49.0566 56.7981 48.2483 55.9934 47.2698 55.9934Z" fill="#F0A616"/>
</svg>
