<svg width="16" height="16" viewBox="0 0 16 16" fill="none" xmlns="http://www.w3.org/2000/svg">
<path d="M14.7739 1.22485C14.5415 0.990526 14.265 0.804541 13.9603 0.677619C13.6557 0.550698 13.3289 0.485352 12.9989 0.485352C12.6688 0.485352 12.3421 0.550698 12.0374 0.677619C11.7328 0.804541 11.4563 0.990526 11.2239 1.22485L7.99887 4.47485L4.77387 1.22485C4.30311 0.754088 3.66462 0.489619 2.99887 0.489619C2.33312 0.489619 1.69463 0.754088 1.22387 1.22485C0.753111 1.69561 0.488643 2.33409 0.488643 2.99985C0.488643 3.6656 0.753111 4.30409 1.22387 4.77485L4.47387 7.99985L1.22387 11.2248C0.98955 11.4573 0.803564 11.7338 0.676643 12.0384C0.549721 12.3431 0.484375 12.6698 0.484375 12.9998C0.484375 13.3299 0.549721 13.6566 0.676643 13.9613C0.803564 14.2659 0.98955 14.5424 1.22387 14.7748C1.45628 15.0092 1.73278 15.1951 2.03743 15.3221C2.34208 15.449 2.66884 15.5143 2.99887 15.5143C3.3289 15.5143 3.65566 15.449 3.96031 15.3221C4.26496 15.1951 4.54146 15.0092 4.77387 14.7748L7.99887 11.5248L11.2239 14.7748C11.4563 15.0092 11.7328 15.1951 12.0374 15.3221C12.3421 15.449 12.6688 15.5143 12.9989 15.5143C13.3289 15.5143 13.6557 15.449 13.9603 15.3221C14.265 15.1951 14.5415 15.0092 14.7739 14.7748C15.0082 14.5424 15.1942 14.2659 15.3211 13.9613C15.448 13.6566 15.5134 13.3299 15.5134 12.9998C15.5134 12.6698 15.448 12.3431 15.3211 12.0384C15.1942 11.7338 15.0082 11.4573 14.7739 11.2248L11.5239 7.99985L14.7739 4.77485C15.0082 4.54244 15.1942 4.26594 15.3211 3.96129C15.448 3.65664 15.5134 3.32988 15.5134 2.99985C15.5134 2.66982 15.448 2.34305 15.3211 2.0384C15.1942 1.73376 15.0082 1.45725 14.7739 1.22485Z" fill="#885DE5"/>
</svg>
