<svg width="40" height="34" viewBox="0 0 40 34" fill="none" xmlns="http://www.w3.org/2000/svg">
<path d="M24.4108 4.61672C23.7945 4.78591 23.2628 5.24512 22.9728 5.83727C22.719 6.3569 22.6344 7.19074 22.8157 7.44452C22.864 7.51702 23.5408 7.90373 24.3263 8.31461C25.716 9.03968 25.7643 9.05177 26.1148 8.88258C26.3081 8.77382 26.4652 8.65298 26.4652 8.59255C26.4652 8.53213 26.1873 8.31461 25.861 8.09709C25.4985 7.86748 25.2205 7.58953 25.1843 7.40826C25.0997 7.09406 25.1843 6.18772 25.3172 6.06687C25.3534 6.03062 25.8247 6.13938 26.3444 6.30857C27.4078 6.65902 27.4562 6.62276 27.142 5.8856C26.9365 5.36597 26.2235 4.76174 25.6556 4.60464C25.1238 4.44754 24.9788 4.44754 24.4108 4.61672Z" fill="#F0A616"/>
<path d="M22.4764 8.60392C21.8118 8.94229 21.1713 9.82447 20.2649 11.6613C19.129 13.9332 18.8027 15.4801 19.3344 16.048L19.5761 16.3139L17.0142 16.3381L14.4402 16.3743V16.8577V17.3411L18.2831 17.3773C21.981 17.4015 22.1139 17.4015 22.1139 17.1719C22.1139 16.9544 22.1501 16.9544 22.9961 17.2202C23.4674 17.3773 23.8541 17.5586 23.842 17.6311C23.8178 17.7036 23.552 18.6583 23.2378 19.7701L22.6577 21.7761L21.8964 21.7157C20.8813 21.6432 20.5429 21.3411 20.5429 20.5314C20.5429 19.903 20.7362 19.3834 21.268 18.5012C21.4734 18.187 21.6305 17.8849 21.6305 17.8366C21.6305 17.8003 20.0837 17.764 18.1864 17.764C15.9749 17.764 14.7423 17.8124 14.7423 17.8849C14.7423 17.9574 14.0172 18.0057 12.8208 18.0057C11.2861 18.0057 10.8752 18.042 10.7544 18.187C10.4643 18.5375 10.7544 18.61 12.5429 18.61L14.3193 18.622L13.7755 18.9121C13.2438 19.19 13.1471 19.2021 10.561 19.2142C8.37371 19.2142 7.85408 19.2504 7.73323 19.3955C7.43112 19.758 7.73323 19.8184 10.0535 19.8184H12.3616L12.0837 20.1205L11.8057 20.4227H8.50664C5.66677 20.4227 5.18338 20.4468 5.02628 20.616C4.91752 20.7127 4.8571 20.8577 4.89335 20.9181C4.94169 20.9785 6.33142 21.0269 8.10785 21.0269C9.82386 21.0269 11.2378 21.0631 11.2378 21.0994C11.2378 21.1356 11.1773 21.2686 11.1169 21.4015C11.0082 21.6069 10.8511 21.6311 9.8722 21.6311C9.0867 21.6311 8.67583 21.6795 8.50664 21.8003C8.11994 22.0903 8.43414 22.2233 9.60634 22.2595L10.694 22.2958L10.6577 22.622L10.6214 22.9604H18.416H26.2226V23.3109C26.2226 23.5163 26.2589 23.6976 26.3193 23.7217C26.4039 23.7822 33.0504 20.2776 33.28 20.0601C33.6305 19.7217 32.0595 18.9362 30.9477 18.9L30.1501 18.8637L29.4613 16.5314C29.0746 15.2504 28.7604 14.1387 28.7604 14.0541C28.7604 13.9453 28.9296 13.9332 29.3646 13.9816C29.703 14.0178 29.9689 14.0057 29.9689 13.9453C29.981 13.8849 30.0535 13.329 30.1381 12.7127L30.2952 11.6009H29.9205C29.558 11.6009 28.2529 11.7822 27.7091 11.903C27.552 11.9393 27.4311 12.048 27.4311 12.1568C27.4311 12.3018 27.3465 12.326 27.1048 12.2776C26.9115 12.2414 26.4523 12.181 26.0655 12.1326C25.6063 12.0843 25.3405 11.9876 25.268 11.8547C25.2196 11.7459 25.0504 11.1417 24.8933 10.5133C24.5429 9.05105 24.3737 8.72477 23.8662 8.50725C23.3103 8.27764 23.1048 8.28972 22.4764 8.60392ZM23.9749 12.3018C24.132 12.6281 24.3375 12.9423 24.4341 13.0148C24.5187 13.0752 25.2559 13.1961 26.0776 13.2565C26.8994 13.329 27.6003 13.4257 27.6486 13.474C27.697 13.5224 27.7332 14.5737 27.7332 15.8063C27.7332 17.8003 27.697 18.1628 27.4674 18.9242C26.984 20.4589 26.1622 21.329 24.8813 21.6311C24.555 21.7157 24.2529 21.752 24.2287 21.7278C24.1924 21.6915 24.5791 20.6764 25.0867 19.4438C26.0535 17.0994 26.1864 16.4952 25.7997 16.0722C25.6788 15.9393 24.8088 15.5284 23.8541 15.1538L22.126 14.477L22.4281 13.8486C22.7785 13.1477 23.6003 11.7217 23.6486 11.7217C23.6607 11.7217 23.8178 11.9876 23.9749 12.3018Z" fill="#F0A616"/>
<path d="M12.7131 9.58354C12.6406 9.66814 12.4593 10.4657 12.3022 11.36L12.0243 12.9914L11.263 13.0277C10.7071 13.0518 10.4775 13.1122 10.4291 13.2452C10.3204 13.5231 10.6104 13.656 11.3234 13.656C11.9276 13.656 11.9518 13.6681 11.8551 13.9219C11.7584 14.1757 11.6617 14.1999 10.5016 14.2603C9.3415 14.3207 9.24483 14.3449 9.24483 14.5624C9.24483 14.792 9.3415 14.8041 10.4895 14.8403C11.3596 14.8645 11.7222 14.9128 11.7222 15.0216C11.7101 15.4204 11.5288 15.4567 9.60736 15.4929C7.7705 15.5292 7.67383 15.5412 7.67383 15.7709C7.67383 16.0125 7.7705 16.0125 12.701 16.0488C17.3536 16.073 17.7524 16.0609 17.9941 15.8675C18.1995 15.6863 18.3204 15.1908 18.7312 12.7014C19.1059 10.4536 19.1904 9.72856 19.0817 9.59563C18.8883 9.35394 12.9065 9.34185 12.7131 9.58354Z" fill="#F0A616"/>
<path d="M31.8425 21.2325C31.5162 21.4017 31.2262 21.5588 31.202 21.5709C31.1779 21.583 31.335 21.7643 31.5404 21.9697C32.1446 22.5739 31.9996 23.5286 31.1899 24.2053C30.1869 25.0392 28.8093 24.4833 28.8455 23.2627L28.8576 22.8519L28.1446 23.2144C27.5887 23.4924 27.4316 23.6253 27.4316 23.8428C27.4316 24.3383 27.9513 25.1842 28.4951 25.5588C28.9664 25.8851 29.1235 25.9214 29.8848 25.9214C30.8395 25.9093 31.4195 25.6797 32.193 25.0029C33.2081 24.1208 33.5706 22.4531 32.9905 21.4138C32.8334 21.1359 32.6522 20.9062 32.5797 20.9062C32.5072 20.9183 32.1809 21.0633 31.8425 21.2325Z" fill="#F0A616"/>
<path d="M11.6016 23.7093C11.6136 24.2652 11.9762 25.0266 12.4354 25.4133C13.7889 26.5492 16.1816 25.8362 17.1001 24.0115L17.4143 23.3831L16.7133 23.3468C16.2179 23.3226 16.0004 23.3589 15.9641 23.4676C15.8433 23.8423 15.0336 24.4948 14.5865 24.5794C13.9218 24.7003 13.2813 24.3619 13.1001 23.806C12.9671 23.3951 12.943 23.3831 12.2783 23.3468L11.6016 23.3105V23.7093Z" fill="#F0A616"/>
</svg>
