<svg width="19" height="19" viewBox="0 0 19 19" fill="none" xmlns="http://www.w3.org/2000/svg">
<path d="M17.6667 9.33333C17.6667 8.76366 17.2048 8.29167 16.6352 8.29167H10.375V2.03149C10.375 1.46182 9.903 1 9.33333 1C8.76366 1 8.29167 1.46182 8.29167 2.03149V8.29167H2.03149C1.46182 8.29167 1 8.76366 1 9.33333C1 9.903 1.46182 10.375 2.03149 10.375H8.29167V16.6352C8.29167 17.2048 8.76366 17.6667 9.33333 17.6667C9.903 17.6667 10.375 17.2048 10.375 16.6352V10.375H16.6352C17.2048 10.375 17.6667 9.903 17.6667 9.33333Z" fill="white" stroke="white"/>
</svg>
